<?xml version="1.0" encoding="utf-8"?>
<!-- Generator: Adobe Illustrator 16.0.0, SVG Export Plug-In . SVG Version: 6.00 Build 0)  -->
<!DOCTYPE svg PUBLIC "-//W3C//DTD SVG 1.1//EN" "http://www.w3.org/Graphics/SVG/1.1/DTD/svg11.dtd">
<svg version="1.1" id="Layer_1" xmlns="http://www.w3.org/2000/svg" xmlns:xlink="http://www.w3.org/1999/xlink" x="0px" y="0px"
	 width="163.75px" height="163.75px" viewBox="0 0 163.75 163.75" enable-background="new 0 0 163.75 163.75" xml:space="preserve">
<g>
	<ellipse fill="#0047E1" cx="81.523" cy="81.274" rx="80.173" ry="80.173"/>
	<path fill="#FF87AC" d="M81.876,8.515c-39.988,0-72.534,32.548-72.534,72.538c0,39.989,32.546,72.536,72.534,72.536
		c39.989,0,72.538-32.547,72.538-72.536C154.414,41.063,121.865,8.515,81.876,8.515z M152.032,78.074l-10.121,0.398
		c0-0.992-0.101-1.986-0.197-2.978l10.02-1.09C151.834,75.594,151.934,76.786,152.032,78.074z M151.637,73.213l-10.023,1.09
		c-0.098-0.992-0.298-1.984-0.396-2.977l9.923-1.786C151.338,70.731,151.438,71.921,151.637,73.213z M150.942,68.349l-9.925,1.789
		c-0.198-0.992-0.396-1.984-0.594-2.979l9.822-2.48C150.444,65.869,150.644,67.159,150.942,68.349z M149.85,63.587l-9.824,2.482
		c-0.299-0.992-0.496-1.987-0.794-2.879l9.627-3.076C149.156,61.106,149.552,62.297,149.85,63.587z M77.215,35.207
		c-0.894,3.276-1.292,4.664-1.488,5.16c-3.873,0.596-7.643,1.689-11.115,3.375c-0.098-0.198-0.198-0.496-0.398-0.794l-6.448-13.097
		c-0.201-0.496-0.298-0.696-0.398-0.894c5.458-2.581,11.312-4.267,17.563-5.061c0.1,0.098,0.1,0.198,0.2,0.298
		c0.198,0.296,0.496,1.092,0.892,2.28l2.083,5.657C77.809,32.927,77.511,34.017,77.215,35.207z M78.603,33.619l1.688,5.062
		c0.196,0.496,0.296,0.894,0.396,1.19c-1.29,0-2.581,0.1-3.871,0.298c0.098-0.298,0.198-0.694,0.298-1.291L78.603,33.619z
		 M62.43,43.839c0.098,0.3,0.196,0.496,0.296,0.696c-0.198,0.1-0.396,0.198-0.596,0.296c-0.396-0.196-0.892-0.692-1.884-1.488
		c-3.076-2.58-5.26-4.364-5.657-4.762l-0.1-0.396c-0.496-2.182-0.992-3.971-1.288-5.258c-0.298-0.994-0.398-1.391-0.398-1.588
		c0.895-0.496,1.786-0.993,2.779-1.488c0.1,0.098,0.298,0.396,0.596,1.09L62.43,43.839z M60.146,46.023
		c-1.092,0.696-2.182,1.388-3.174,2.185c-0.1-0.3-0.198-0.696-0.398-1.292l-1.388-5.158l4.069,3.472
		C59.649,45.527,59.948,45.825,60.146,46.023z M53.399,37.589c-3.274-2.778-4.266-3.67-4.366-3.87
		c0.892-0.694,1.884-1.288,2.876-1.884c0.1,0.198,0.3,0.694,0.696,2.38C52.903,35.504,53.201,36.597,53.399,37.589z M49.231,36.795
		l4.664,3.87c0.198,0.894,0.497,1.984,0.895,3.076c0.892,3.174,1.188,4.564,1.288,5.16c-3.672,2.977-6.746,6.451-9.229,10.52
		c-0.396,0-1.09-0.1-2.48-0.398c-4.464-0.794-6.749-1.291-7.245-1.391l-0.295-0.295c-1.488-1.688-2.781-2.976-3.772-3.871
		c-0.692-0.694-0.992-0.992-1.19-1.19c3.87-6.648,9.03-12.505,15.183-17.167c0.101,0,0.198,0.098,0.296,0.198
		C47.645,35.504,48.336,36.003,49.231,36.795z M45.659,61.404c-0.594,1.093-1.19,2.283-1.687,3.473
		c-0.2-0.198-0.496-0.496-0.992-0.892l-3.772-3.871l5.26,0.992C44.965,61.305,45.36,61.305,45.659,61.404z M33.156,54.954
		c0.892,0.894,1.688,1.786,2.382,2.482c-4.367-0.796-5.559-1.092-5.754-1.192c0.496-0.992,0.992-1.984,1.585-2.977
		C31.567,53.268,31.966,53.664,33.156,54.954z M31.567,58.725l5.955,1.092c0.694,0.694,1.39,1.388,2.282,2.282
		c2.382,2.382,3.375,3.375,3.672,3.87c-1.391,3.572-2.382,7.343-2.681,11.213c-0.396,0.198-1.092,0.396-2.282,0.694
		c-4.266,1.19-6.648,1.886-7.145,1.987l-0.398-0.101c-2.082-0.794-3.768-1.39-5.061-1.886c-0.992-0.298-1.387-0.496-1.585-0.594
		c0.396-6.648,1.984-13.001,4.564-18.854c0.098,0,0.198,0,0.298,0C29.583,58.428,30.377,58.526,31.567,58.725z M40.696,83.334
		c-0.296-0.1-0.692-0.2-1.288-0.396l-5.06-1.788l5.16-1.388c0.497-0.1,0.893-0.2,1.188-0.298c0,0.496-0.098,1.09-0.098,1.588
		C40.598,81.846,40.696,82.639,40.696,83.334z M26.707,79.066c1.19,0.398,2.28,0.796,3.174,1.192
		c-4.466,1.291-5.458,1.489-5.656,1.489c0-0.198,0-0.396,0-0.597c0-0.892,0-1.884,0.1-2.778
		C24.423,78.372,25.019,78.472,26.707,79.066z M24.623,83.931c0.296-0.101,1.092-0.398,2.28-0.696l5.756-1.686
		c0.893,0.297,1.884,0.694,3.076,1.09c3.177,1.092,4.464,1.587,4.961,1.787c0,0.198,0,0.396,0,0.595
		c-0.196,0-0.497,0.101-0.892,0.101l-14.487,1.785c-0.596,0.101-0.793,0.101-0.992,0.101c-0.1-0.992-0.198-1.886-0.198-2.881
		C24.325,84.028,24.423,84.028,24.623,83.931z M26.011,88.891L40.3,87.202c0.298,0,0.596-0.098,0.696-0.098
		c0.496,3.273,1.288,6.45,2.581,9.426c-0.2,0.101-0.496,0.198-0.796,0.396l-13.395,5.757c-0.496,0.197-0.694,0.298-0.895,0.298
		c-1.784-4.366-3.076-9.128-3.771-13.991C24.919,89.088,25.217,88.99,26.011,88.891z M30.576,104.47l13.197-5.754
		c0.3-0.101,0.496-0.2,0.696-0.299c0.1,0.299,0.296,0.594,0.396,0.892c-0.198,0.101-0.496,0.299-0.792,0.497l-12.901,6.748
		c-0.496,0.198-0.696,0.298-0.794,0.396c-0.298-0.693-0.694-1.29-0.992-1.983C29.483,104.966,29.784,104.768,30.576,104.47z
		 M32.462,108.24l12.798-6.747c0.3-0.1,0.498-0.199,0.696-0.298c0.198,0.298,0.396,0.596,0.596,0.892
		c-0.2,0.101-0.398,0.299-0.794,0.497l-12.403,7.739c-0.496,0.299-0.696,0.396-0.796,0.497c-0.396-0.597-0.792-1.29-1.09-1.984
		C31.469,108.736,31.768,108.538,32.462,108.24z M34.644,111.812l12.205-7.641c0.3-0.198,0.496-0.297,0.596-0.395
		c0.696,0.991,1.388,1.883,2.084,2.875c-2.778,1.589-6.45,3.672-11.213,6.152l-2.282,1.192c-0.596,0.296-0.992,0.496-1.19,0.496
		c-0.496-0.596-0.894-1.29-1.39-1.985C33.652,112.507,33.95,112.309,34.644,111.812z M35.538,115.384
		c0.197-0.198,2.282-1.388,10.915-5.952l-2.38,2.877c-1.192,1.488-4.864,5.954-4.962,6.055l-0.496,0.593l-0.1,0.101
		C37.522,117.864,36.53,116.674,35.538,115.384C35.538,115.484,35.538,115.384,35.538,115.384z M40.4,120.049l2.38-2.878
		c1.788-2.182,3.076-3.771,3.971-4.862c0.794-0.992,2.082-2.48,3.67-4.465l0,0c2.184,2.58,4.664,4.862,7.445,6.847
		c-0.1,0.198-0.301,0.396-0.496,0.794l-8.237,12.008c-0.298,0.395-0.496,0.593-0.596,0.693c-3.076-2.182-5.955-4.763-8.632-7.442
		C40.004,120.545,40.102,120.347,40.4,120.049z M51.017,128.285l8.136-11.908c0.2-0.296,0.298-0.496,0.396-0.595
		c0.3,0.198,0.596,0.396,0.895,0.595c-0.098,0.199-0.198,0.495-0.496,0.794l-7.343,12.603c-0.298,0.496-0.396,0.694-0.496,0.794
		c-0.596-0.398-1.29-0.794-1.886-1.192C50.323,129.177,50.521,128.879,51.017,128.285z M54.589,130.468l7.245-12.503
		c0.1-0.299,0.295-0.496,0.396-0.596c0.992,0.596,2.083,1.092,3.176,1.49c-1.688,2.677-3.969,6.249-6.947,10.616l-1.488,2.182
		c-0.398,0.597-0.596,0.894-0.794,0.994c-0.696-0.397-1.388-0.696-2.084-1.092C54.093,131.459,54.193,131.162,54.589,130.468z
		 M57.069,133.147c0.2-0.398,2.48-3.87,6.849-10.421l-0.796,3.672c-1.388,6.947-1.488,7.641-1.488,7.641l-0.196,0.695
		c0,0.1,0,0.1,0,0.1C59.948,134.438,58.558,133.841,57.069,133.147L57.069,133.147z M63.52,135.031l0.694-3.67
		c0.596-2.779,0.992-4.862,1.192-6.253c0.197-1.289,0.596-3.174,1.19-5.655l0,0c3.87,1.488,7.938,2.481,12.207,2.778
		c0,0.2,0,0.495,0,0.894l-0.796,14.587c0,0.594-0.098,0.795-0.098,0.893c-5.062-0.299-9.923-1.29-14.487-2.879
		C63.422,135.628,63.422,135.43,63.52,135.031z M42.98,81.15c0-21.434,17.463-38.897,38.896-38.897
		c4.565,0,9.031,0.794,13.099,2.282c0,0,0,0.1-0.1,0.1c-1.686,3.968-3.274,8.037-5.061,11.907
		c-1.785,3.969-3.771,7.839-5.357,11.807c-1.091,2.681-1.985,5.458-2.582,8.438c-0.496,0-0.894,0.098-1.29,0.195
		c-0.694-1.288-1.488-2.48-2.38-3.572c-1.789-2.28-3.871-4.264-5.955-6.348c-2.084-1.984-4.167-3.871-6.451-5.557
		c0.596-0.2,1.192-0.496,1.786-0.994c1.886-1.886,1.092-4.367-0.098-5.557c-1.292-1.29-3.374-1.687-6.648-0.694
		c-3.374,0.992-5.161,0.694-5.161,0.694s0.296,1.786-0.696,5.16c-0.992,3.274-0.497,5.459,0.696,6.649
		c1.19,1.19,3.672,1.984,5.556,0.098c0.597-0.596,0.892-1.288,1.093-1.884c1.786,2.282,3.572,4.464,5.556,6.548
		s3.968,4.268,6.252,6.052c1.09,0.894,2.38,1.688,3.572,2.48c-0.1,0.398-0.2,0.796-0.2,1.292c0,2.48,1.984,4.464,4.466,4.464
		c2.481,0,4.464-1.984,4.464-4.464c0-1.292-0.595-2.48-1.488-3.276c1.589-2.48,2.778-5.16,3.87-7.839
		c1.589-3.97,2.778-8.234,4.267-12.302c1.487-4.068,3.076-8.139,4.564-12.207v-0.098c13.495,6.053,23.021,19.745,23.021,35.522
		c0,21.434-17.464,38.899-38.897,38.899C60.444,120.049,42.98,102.584,42.98,81.15z M131.691,54.556l-12.802,6.551
		c-0.298,0.098-0.496,0.198-0.597,0.298c-0.197-0.298-0.395-0.596-0.495-0.894c0.2-0.098,0.397-0.298,0.794-0.496l12.503-7.641
		c0.496-0.298,0.696-0.398,0.794-0.398c0.398,0.596,0.694,1.292,1.093,1.888C132.683,53.962,132.385,54.16,131.691,54.556z
		 M132.881,56.144c0.495-0.198,0.696-0.296,0.895-0.396c3.075,6.351,5.06,13.397,5.655,20.737c-0.199,0-0.495,0.1-1.29,0.1
		l-14.389,0.794c-0.298,0-0.496,0-0.693,0c-0.398-5.061-1.786-9.823-3.971-14.289c0.2-0.098,0.495-0.198,0.794-0.398L132.881,56.144
		z M129.508,50.886l-12.305,7.542c-0.298,0.196-0.495,0.296-0.596,0.396c-3.375-5.261-7.938-9.625-13.197-12.901
		c0.098-0.198,0.198-0.496,0.497-0.792l7.242-12.603c0.298-0.496,0.398-0.694,0.498-0.794c7.641,4.665,14.188,11.015,18.95,18.558
		C130.501,50.292,130.203,50.488,129.508,50.886z M109.165,31.734l-7.242,12.503c-0.1,0.298-0.298,0.496-0.398,0.594
		c-0.991-0.496-1.984-0.992-2.977-1.388c1.19-3.274,2.48-6.548,3.771-9.825l-2.48-0.992c-1.29,3.276-2.68,6.45-4.068,9.725
		c-2.282-0.792-4.664-1.488-7.145-1.884c0-0.201,0.099-0.496,0.099-0.892l2.084-14.489c0.1-0.496,0.1-0.794,0.198-0.892
		c6.648,1.092,12.901,3.274,18.557,6.449C109.761,30.743,109.562,31.041,109.165,31.734z M83.863,77.282
		c-0.101-0.1-0.301-0.1-0.398-0.1c2.283-6.846,5.16-13.495,7.839-20.144c3.177-7.64,6.253-15.381,9.427-23.119l0.2,0.098
		c-2.979,7.741-6.055,15.479-9.03,23.32C89.42,63.885,86.938,70.731,83.863,77.282z M84.26,81.25c0,1.192-0.992,2.185-2.185,2.185
		c-1.189,0-2.182-0.992-2.182-2.185s0.993-2.184,2.182-2.184C83.268,79.066,84.26,80.058,84.26,81.25z M88.924,25.186L86.84,39.475
		c0,0.296-0.101,0.496-0.101,0.694c-0.396,0-0.694-0.098-1.092-0.098c0-0.2,0-0.496,0.101-0.895L86.84,24.59
		c0-0.596,0.098-0.794,0.098-0.892c0.696,0.098,1.49,0.098,2.185,0.198C89.122,23.994,89.021,24.392,88.924,25.186z M79.199,77.976
		c-0.2,0.098-0.298,0.298-0.398,0.396c-2.878-2.578-5.654-5.158-8.435-7.838c-1.984-1.984-3.868-3.968-5.754-5.952
		c-1.886-2.084-3.77-4.07-5.458-6.253c2.184,1.786,4.168,3.573,6.253,5.457c2.083,1.886,3.968,3.771,5.952,5.756
		C74.039,72.222,76.619,75.097,79.199,77.976z M87.434,127.688c-0.396-1.29-0.892-3.176-1.488-5.556l0,0
		c6.45-0.597,12.404-2.778,17.663-5.954c1.29,2.878,2.879,6.846,4.762,11.809l0.896,2.38c0.297,0.597,0.396,0.994,0.396,1.192
		c-5.854,3.175-12.303,5.456-19.151,6.45c-0.098-0.1-0.198-0.298-0.296-0.695l-1.092-3.474
		C88.428,131.162,87.832,129.079,87.434,127.688z M88.327,138.406c-1.487,0.198-3.076,0.298-4.664,0.298c0,0,0,0,0-0.1
		c0-0.299,0.2-2.679,1.391-12.305l0.991,3.672c1.787,6.35,2.085,7.442,2.085,7.542l0.197,0.694
		C88.327,138.406,88.327,138.406,88.327,138.406z M105.891,119.653l2.58,2.778c2.778,2.875,5.358,5.455,5.459,5.653l0.495,0.597
		l0.099,0.101c-1.291,0.892-2.581,1.686-3.968,2.479l0,0C110.455,130.866,109.463,128.682,105.891,119.653z M113.135,124.217
		c-1.985-1.985-3.374-3.572-4.366-4.566c-0.894-0.892-2.184-2.281-3.97-4.166l0,0c4.168-2.778,7.841-6.351,10.816-10.519
		c2.283,2.182,5.259,5.258,8.931,9.03l1.786,1.885c0.496,0.496,0.694,0.793,0.794,0.991c-3.176,3.971-6.748,7.443-10.816,10.52
		c-0.098-0.098-0.298-0.198-0.595-0.496L113.135,124.217z M118.99,107.248l3.472,1.488c5.756,2.482,7.145,3.075,7.244,3.075
		l0.695,0.299c0.1,0,0.1,0,0.1,0.1c-0.895,1.291-1.688,2.581-2.681,3.871l0,0C127.522,115.881,125.836,114.194,118.99,107.248z
		 M127.425,108.639c-2.581-1.093-4.564-1.887-5.854-2.482c-1.192-0.497-3.077-1.29-5.261-2.282l0,0
		c0.695-1.091,1.391-2.183,1.983-3.274c0.2,0.1,0.499,0.197,0.795,0.398l12.998,6.548c0.497,0.197,0.697,0.396,0.795,0.496
		c-0.396,0.794-0.893,1.588-1.29,2.281c-0.198,0-0.396-0.1-0.694-0.196L127.425,108.639z M132.683,105.562l-12.898-6.45
		c-0.299-0.101-0.496-0.298-0.696-0.396c1.886-3.971,3.176-8.338,3.772-13.002c0.198,0,0.495,0,0.892,0.101l14.486,1.29
		c0.597,0,0.795,0.098,0.896,0.098c-0.694,6.651-2.58,13.001-5.358,18.855C133.775,106.058,133.477,105.958,132.683,105.562z
		 M138.141,85.121l-14.389-1.291c-0.298,0-0.597-0.1-0.693-0.1c0-0.396,0-0.694,0.097-1.092c0.2,0,0.499,0,0.896,0l14.586,0.299
		c0.595,0,0.794,0,0.893,0.099c0,0.694-0.099,1.488-0.099,2.183C139.331,85.219,138.936,85.121,138.141,85.121z M138.339,80.854
		l-14.389-0.3c-0.296,0-0.496,0-0.694,0c0-0.396,0-0.692-0.101-1.09c0.2,0,0.499,0,0.896-0.098l14.586-0.796
		c0.595,0,0.794,0,0.992,0c0,0.696,0.098,1.488,0.098,2.284C139.431,80.854,139.134,80.952,138.339,80.854z M148.46,58.825
		l-9.625,3.076c-0.298-0.992-0.694-1.886-0.991-2.878l9.326-3.771C147.666,56.542,148.063,57.632,148.46,58.825z M146.773,54.26
		l-9.328,3.77c-0.396-0.894-0.792-1.886-1.19-2.778l9.129-4.464C145.781,51.976,146.278,53.168,146.773,54.26z M144.689,49.794
		l-9.031,4.466c-0.495-0.895-0.892-1.786-1.387-2.681l8.731-5.06C143.598,47.612,144.094,48.704,144.689,49.794z M142.308,45.527
		l-8.73,5.061c-0.497-0.892-1.093-1.687-1.589-2.58l8.335-5.657C141.117,43.343,141.714,44.436,142.308,45.527z M139.727,41.359
		l-8.334,5.656c-0.594-0.794-1.189-1.686-1.786-2.48l7.938-6.252C138.238,39.375,139.033,40.367,139.727,41.359z M136.851,37.491
		l-7.938,6.25c-0.597-0.794-1.291-1.588-1.985-2.282l7.541-6.749C135.263,35.504,136.057,36.499,136.851,37.491z M133.675,33.719
		l-7.541,6.749c-0.695-0.794-1.39-1.488-2.083-2.184l7.044-7.243C131.889,31.933,132.783,32.827,133.675,33.719z M130.203,30.246
		l-7.048,7.245c-0.693-0.696-1.487-1.391-2.281-1.987l6.45-7.738C128.416,28.558,129.309,29.354,130.203,30.246z M126.53,26.97
		l-6.448,7.74c-0.794-0.596-1.589-1.288-2.382-1.884l5.954-8.137C124.646,25.384,125.539,26.178,126.53,26.97z M122.66,23.994
		l-5.952,8.137c-0.795-0.595-1.688-1.19-2.482-1.687l5.357-8.535C120.578,22.606,121.668,23.3,122.66,23.994z M118.592,21.316
		l-5.359,8.535c-0.892-0.496-1.685-0.992-2.58-1.49l4.766-8.931C116.41,20.026,117.502,20.622,118.592,21.316z M114.326,18.833
		l-4.764,8.933c-0.894-0.497-1.785-0.895-2.68-1.292l4.068-9.227C112.143,17.744,113.232,18.337,114.326,18.833z M109.861,16.751
		l-4.068,9.226c-0.895-0.396-1.886-0.792-2.78-1.19l3.475-9.526C107.577,15.757,108.769,16.253,109.861,16.751z M105.295,14.965
		l-3.472,9.524c-0.993-0.296-1.887-0.694-2.879-0.892l2.778-9.725C103.013,14.171,104.205,14.569,105.295,14.965z M100.633,13.477
		l-2.778,9.725c-0.994-0.301-1.987-0.496-2.979-0.696l2.085-9.923C98.25,12.881,99.44,13.179,100.633,13.477z M95.867,12.285
		l-2.081,9.925c-0.994-0.2-1.986-0.398-2.979-0.496l1.39-10.025C93.487,11.889,94.678,12.087,95.867,12.285z M87.335,11.193
		c1.29,0.1,2.48,0.2,3.671,0.398l-1.389,10.023c-0.992-0.1-1.983-0.2-2.976-0.298L87.335,11.193z M82.473,10.897
		c1.29,0,2.48,0.1,3.671,0.1l-0.694,10.121c-0.991-0.1-1.984-0.1-2.977-0.1V10.897z M81.876,23.398c0.995,0,1.987,0,2.979,0.1
		c0,0.1,0,0.497-0.101,1.29l-1.092,14.389c0,0.298,0,0.594-0.101,0.794c-0.195,0-0.495,0-0.691,0
		c-0.2-0.396-0.496-0.992-0.894-2.284c-1.49-4.068-2.282-6.449-2.482-6.944l0.1-0.396c0.696-2.184,1.192-3.872,1.488-5.16
		c0.298-0.992,0.398-1.488,0.496-1.688C81.779,23.398,81.876,23.398,81.876,23.398z M81.283,10.897v10.121
		c-0.992,0-1.984,0-3.076,0.1l-0.696-10.121C78.801,10.997,80.091,10.897,81.283,10.897z M80.687,23.398
		c0,0.2-0.1,0.696-0.596,2.384c-0.295,1.188-0.694,2.38-0.992,3.272c-1.588-4.364-1.786-5.356-1.884-5.557
		C78.405,23.498,79.495,23.498,80.687,23.398z M76.418,11.193l0.696,10.123c-0.992,0.098-1.984,0.198-2.976,0.298l-1.39-10.023
		C73.938,11.393,75.131,11.293,76.418,11.193z M71.559,11.689l1.388,10.025c-0.993,0.196-1.984,0.296-2.977,0.496l-2.084-9.925
		C69.078,12.087,70.266,11.889,71.559,11.689z M66.694,12.583l2.084,9.923c-0.992,0.2-1.984,0.496-2.876,0.696l-2.78-9.725
		C64.313,13.179,65.506,12.881,66.694,12.583z M62.032,13.773l2.778,9.725c-0.992,0.298-1.984,0.596-2.876,0.895l-3.474-9.527
		C59.649,14.569,60.842,14.171,62.032,13.773z M57.368,15.361l3.474,9.527c-0.992,0.398-1.886,0.694-2.78,1.09l-4.068-9.226
		C54.985,16.253,56.177,15.757,57.368,15.361z M52.803,17.247l4.068,9.227c-0.894,0.398-1.786,0.894-2.678,1.292l-4.765-8.933
		C50.621,18.337,51.713,17.744,52.803,17.247z M48.437,19.43l4.765,8.931c-0.894,0.498-1.789,0.994-2.58,1.49l-5.361-8.535
		C46.255,20.622,47.345,20.026,48.437,19.43z M44.269,21.91l5.36,8.535c-0.894,0.596-1.688,1.092-2.48,1.687l-5.957-8.137
		C42.186,23.3,43.179,22.606,44.269,21.91z M40.2,24.69l5.955,8.137c-0.794,0.596-1.586,1.19-2.382,1.884l-6.448-7.74
		C38.216,26.178,39.208,25.482,40.2,24.69z M36.332,27.767l6.448,7.738c-0.792,0.694-1.488,1.291-2.28,1.987l-7.047-7.245
		C34.543,29.354,35.438,28.558,36.332,27.767z M32.76,31.041l7.044,7.243c-0.694,0.696-1.388,1.39-2.084,2.184l-7.541-6.749
		C30.971,32.827,31.866,31.933,32.76,31.041z M29.386,34.612l7.542,6.747c-0.696,0.793-1.292,1.488-1.986,2.284l-7.938-6.253
		C27.797,36.499,28.591,35.504,29.386,34.612z M26.309,38.383l7.939,6.252c-0.596,0.792-1.192,1.586-1.786,2.48l-8.335-5.656
		C24.821,40.367,25.515,39.375,26.309,38.383z M23.431,42.351l8.337,5.657c-0.596,0.794-1.092,1.688-1.588,2.58l-8.732-5.061
		C22.043,44.436,22.737,43.443,23.431,42.351z M20.851,46.52l8.732,5.06c-0.496,0.895-0.992,1.786-1.388,2.681l-9.031-4.466
		C19.661,48.704,20.254,47.612,20.851,46.52z M18.571,50.886l9.128,4.466c-0.398,0.892-0.894,1.784-1.192,2.776L17.18,54.36
		C17.577,53.168,18.075,51.976,18.571,50.886z M16.584,55.352l9.326,3.768c-0.396,0.895-0.691,1.889-0.992,2.88l-9.625-3.076
		C15.69,57.732,16.187,56.542,16.584,55.352z M14.999,60.015l9.625,3.076c-0.298,0.992-0.596,1.886-0.796,2.878l-9.823-2.48
		C14.202,62.397,14.6,61.106,14.999,60.015z M13.706,64.679l9.825,2.48c-0.2,0.995-0.396,1.986-0.596,2.979l-9.923-1.789
		C13.11,67.159,13.41,65.869,13.706,64.679z M12.714,69.541l9.924,1.786c-0.2,0.992-0.3,1.984-0.398,2.977l-10.023-1.09
		C12.318,71.921,12.516,70.731,12.714,69.541z M12.021,74.403l10.022,1.09c-0.1,0.992-0.2,1.986-0.2,2.978l-10.121-0.398
		C11.822,76.786,11.922,75.594,12.021,74.403z M11.722,81.15c0-0.596,0-1.288,0-1.884l10.121,0.396c0,0.496,0,0.992,0,1.488
		s0,0.992,0,1.489l-10.121,0.397C11.722,82.342,11.722,81.747,11.722,81.15z M11.822,84.126l10.121-0.396
		c0,0.992,0.1,1.983,0.2,2.976l-10.025,1.093C11.922,86.608,11.822,85.418,11.822,84.126z M12.218,88.99l10.023-1.092
		c0.098,0.992,0.298,1.984,0.398,2.977l-9.924,1.786C12.516,91.472,12.318,90.279,12.218,88.99z M12.914,93.854l9.92-1.787
		c0.201,0.992,0.398,1.984,0.596,2.977l-9.822,2.48C13.41,96.334,13.11,95.144,12.914,93.854z M13.907,98.615l9.822-2.479
		c0.298,0.991,0.496,1.983,0.794,2.875l-9.625,3.076C14.6,101.096,14.202,99.905,13.907,98.615z M15.294,103.378l9.625-3.077
		c0.298,0.993,0.696,1.887,0.992,2.879l-9.326,3.77C16.187,105.659,15.69,104.569,15.294,103.378z M17.08,107.941l9.327-3.771
		c0.398,0.896,0.796,1.887,1.192,2.778l-9.129,4.467C18.075,110.224,17.577,109.134,17.08,107.941z M19.066,112.408l9.029-4.467
		c0.496,0.895,0.892,1.787,1.388,2.681l-8.73,5.061C20.254,114.591,19.661,113.501,19.066,112.408z M21.447,116.674l8.732-5.06
		c0.497,0.893,1.093,1.686,1.588,2.58l-8.337,5.657C22.737,118.859,22.043,117.767,21.447,116.674z M24.027,120.843l8.337-5.657
		c0.594,0.795,1.188,1.687,1.784,2.48l-7.936,6.253C25.515,122.827,24.821,121.835,24.027,120.843z M27.003,124.714l7.938-6.253
		c0.596,0.794,1.29,1.588,1.986,2.282l-7.542,6.749C28.591,126.697,27.797,125.705,27.003,124.714z M30.179,128.483l7.541-6.749
		c0.696,0.697,1.39,1.491,2.084,2.185l-7.044,7.243C31.866,130.27,30.971,129.375,30.179,128.483z M33.552,131.955l7.046-7.241
		c0.694,0.693,1.488,1.388,2.282,1.983l-6.449,7.74C35.438,133.645,34.543,132.85,33.552,131.955z M37.224,135.229l6.451-7.737
		c0.794,0.593,1.586,1.29,2.382,1.883l-5.955,8.139C39.208,136.817,38.216,136.024,37.224,135.229z M41.094,138.208l5.954-8.137
		c0.792,0.594,1.687,1.19,2.48,1.687l-5.358,8.534C43.179,139.597,42.186,138.901,41.094,138.208z M45.26,140.887l5.361-8.532
		c0.892,0.495,1.686,0.991,2.58,1.486l-4.765,8.932C47.345,142.177,46.255,141.582,45.26,140.887z M49.429,143.369l4.765-8.932
		c0.892,0.497,1.784,0.892,2.678,1.288l-4.068,9.229C51.713,144.459,50.621,143.864,49.429,143.369z M53.895,145.45l4.068-9.226
		c0.894,0.396,1.886,0.791,2.778,1.09l-3.472,9.526C56.177,146.442,54.985,145.947,53.895,145.45z M58.459,147.237l3.474-9.525
		c0.992,0.298,1.884,0.694,2.876,0.893l-2.778,9.725C60.842,148.03,59.649,147.635,58.459,147.237z M63.122,148.727l2.78-9.725
		c0.992,0.296,1.984,0.496,2.976,0.694l-2.084,9.923C65.506,149.321,64.313,149.022,63.122,148.727z M67.886,149.917l2.084-9.923
		c0.992,0.197,1.984,0.396,2.977,0.496l-1.388,10.022C70.266,150.312,69.078,150.114,67.886,149.917z M76.418,151.01
		c-1.288-0.101-2.48-0.2-3.67-0.398l1.39-10.023c0.992,0.101,1.984,0.2,2.976,0.299L76.418,151.01z M77.611,151.107l0.694-10.121
		c0.994,0.099,1.986,0.099,2.979,0.099v10.122C80.091,151.305,78.801,151.207,77.611,151.107z M80.091,138.802
		c0-0.197,0-0.496,0-1.288l0.794-14.389c0-0.298,0-0.496,0-0.693c0.297,0,0.694,0,0.991,0c0.895,0,1.686-0.101,2.582-0.101
		c-0.299,3.176-0.795,7.442-1.391,12.604l-0.296,2.579c-0.101,0.694-0.2,1.091-0.299,1.288c-0.198,0-0.398,0-0.596,0
		C81.283,138.802,80.687,138.802,80.091,138.802z M82.473,151.305v-10.12c0.992,0,1.985,0,2.977-0.1l0.694,10.122
		C84.953,151.207,83.763,151.305,82.473,151.305z M87.335,151.01l-0.693-10.123c0.992-0.099,1.983-0.198,2.976-0.299l1.488,10.123
		C89.815,150.81,88.625,151.01,87.335,151.01z M92.197,150.513l-1.39-10.022c0.992-0.198,1.984-0.299,2.979-0.496l2.081,9.923
		C94.678,150.114,93.487,150.312,92.197,150.513z M97.06,149.619l-2.084-9.923c0.992-0.198,1.985-0.496,2.977-0.694l2.778,9.725
		C99.44,149.022,98.25,149.321,97.06,149.619z M101.823,148.429l-2.778-9.725c0.991-0.298,1.886-0.596,2.878-0.895l3.472,9.527
		C104.205,147.635,103.013,148.03,101.823,148.429z M106.487,146.841l-3.475-9.526c0.992-0.396,1.886-0.694,2.78-1.09l4.068,9.226
		C108.769,145.947,107.577,146.442,106.487,146.841z M110.951,144.955l-4.068-9.229c0.895-0.396,1.786-0.892,2.68-1.288l4.764,8.932
		C113.232,143.864,112.143,144.459,110.951,144.955z M115.317,142.772l-4.762-8.932c0.892-0.495,1.785-0.991,2.579-1.486
		l5.358,8.532C117.502,141.582,116.41,142.177,115.317,142.772z M119.583,140.292l-5.357-8.534c0.894-0.496,1.688-1.093,2.482-1.687
		l5.952,8.137C121.668,138.901,120.578,139.597,119.583,140.292z M123.654,137.514l-5.954-8.139
		c0.793-0.593,1.588-1.189,2.382-1.883l6.448,7.737C125.539,136.024,124.646,136.817,123.654,137.514z M127.425,134.438l-6.451-7.74
		c0.795-0.693,1.488-1.29,2.282-1.983l7.045,7.241C129.309,132.85,128.416,133.645,127.425,134.438z M130.996,131.162l-7.046-7.243
		c0.695-0.696,1.391-1.39,2.084-2.185l7.543,6.749C132.783,129.375,131.889,130.27,130.996,131.162z M134.368,127.59l-7.54-6.747
		c0.694-0.794,1.29-1.488,1.984-2.282l7.938,6.251C136.057,125.705,135.263,126.697,134.368,127.59z M137.545,123.819l-7.938-6.25
		c0.597-0.795,1.192-1.589,1.786-2.482l8.334,5.656C139.033,121.835,138.238,122.827,137.545,123.819z M140.424,119.852
		l-8.338-5.657c0.597-0.794,1.093-1.688,1.589-2.58l8.732,5.06C141.714,117.767,141.117,118.859,140.424,119.852z M142.904,115.683
		l-8.733-5.061c0.496-0.894,0.992-1.786,1.39-2.681l9.129,4.467C144.194,113.501,143.598,114.591,142.904,115.683z M145.186,111.316
		l-9.129-4.465c0.396-0.894,0.892-1.785,1.19-2.778l9.329,3.771C146.278,109.033,145.781,110.224,145.186,111.316z M147.17,106.852
		l-9.326-3.772c0.395-0.892,0.693-1.884,0.991-2.876l9.625,3.076C148.063,104.569,147.666,105.659,147.17,106.852z M148.858,102.188
		l-9.627-3.076c0.298-0.992,0.596-1.886,0.794-2.878l9.824,2.482C149.552,99.905,149.156,101.096,148.858,102.188z M150.148,97.523
		l-9.825-2.48c0.198-0.992,0.397-1.984,0.596-2.977l9.923,1.787C150.644,95.043,150.444,96.334,150.148,97.523z M151.141,92.661
		l-9.923-1.786c0.198-0.992,0.298-1.984,0.396-2.977l10.023,1.092C151.438,90.279,151.338,91.472,151.141,92.661z M151.733,87.898
		l-10.02-1.093c0.097-0.991,0.197-1.983,0.197-2.976l10.121,0.396C151.934,85.418,151.834,86.608,151.733,87.898z M141.911,82.639
		c0-0.497,0-0.993,0-1.489s0-0.992,0-1.488l10.121-0.396c0,0.596,0,1.19,0,1.884c0,0.597,0,1.292,0,1.886L141.911,82.639z"/>
</g>
</svg>
