<?xml version="1.0" encoding="utf-8"?>
<!-- Generator: Adobe Illustrator 16.0.0, SVG Export Plug-In . SVG Version: 6.00 Build 0)  -->
<!DOCTYPE svg PUBLIC "-//W3C//DTD SVG 1.1//EN" "http://www.w3.org/Graphics/SVG/1.1/DTD/svg11.dtd">
<svg version="1.1" id="Layer_1" xmlns="http://www.w3.org/2000/svg" xmlns:xlink="http://www.w3.org/1999/xlink" x="0px" y="0px"
	 width="375.75px" height="123.75px" viewBox="0 0 375.75 123.75" enable-background="new 0 0 375.75 123.75" xml:space="preserve">
<g>
	
		<rect x="9.864" y="20.785" transform="matrix(-0.9968 0.0796 -0.0796 -0.9968 384.0977 110.1215)" fill="#0047E1" width="359.982" height="83.855"/>
	<g>
		<g>
			<path fill="#FF87AC" d="M99.648,103.658l-79.262,6.325l-5.344-66.969l79.262-6.326L99.648,103.658z M21.827,108.186l76.016-6.066
				l-5.078-63.625L16.75,44.56L21.827,108.186z"/>
		</g>
		<path fill="#FF87AC" d="M83.569,60.901c-0.196-2.458-1.026-4.173-1.491-5.026c-2.539-4.548-7.747-5.321-9.344-5.49
			c-2.898-0.361-5.955-0.218-6.84-0.147l-28.125,2.244L30.81,95.493l15.537-1.24l2.462-15.041l9.736-0.777l7.078,14.28l16.029-1.279
			l-8.603-16.038c1.715-0.829,3.339-1.552,4.941-2.572C81.727,70.053,83.938,65.523,83.569,60.901z M67.118,65.579
			c-1.129,1.971-3.443,2.75-5.704,2.932l-10.916,0.868l1.397-8.522l10.816-0.865c0.59-0.048,3.139-0.349,4.461,1.327
			c0.334,0.467,0.585,1.14,0.632,1.729C67.901,64.229,67.389,65.259,67.118,65.579z"/>
		<g>
			<path fill="#FF87AC" d="M187.27,96.664l-79.263,6.327l-5.344-66.97l79.261-6.326L187.27,96.664z M109.448,101.193l76.015-6.067
				l-5.077-63.625l-76.016,6.067L109.448,101.193z"/>
		</g>
		<path fill="#FF87AC" d="M162.274,42.646l-18.683,1.492l-26.628,44.579l17.406-1.388l3.588-7.114l17.898-1.427l1.329,6.721
			l16.224-1.296L162.274,42.646z M142.916,70.418l7.759-14.376l3.255,13.496L142.916,70.418z"/>
		<g>
			<path fill="#FF87AC" d="M274.889,89.672l-79.262,6.325l-5.345-66.968l79.264-6.325L274.889,89.672z M197.166,94.192l76.018-6.065
				l-5.076-63.626l-76.018,6.067L197.166,94.192z"/>
		</g>
		<path fill="#FF87AC" d="M232.714,70.87c5.31-0.423,8.663-3.065,9.921-4.651c0.635-0.743,1.062-1.567,1.814-3.312l14.062-1.12
			c0.124,1.57-0.81,4.713-2.679,7.339c-3.037,4.098-10.245,10.514-23.521,11.572c-2.558,0.205-12.701,0.816-19.534-4.18
			c-5.998-4.471-7.056-11.512-7.244-13.873c-0.257-3.242-0.004-9.994,5.606-16.577c5.972-7.009,14.249-9.945,23.393-10.675
			c2.363-0.188,12.59-1.005,19.565,4.573c0.843,0.627,3.081,2.625,4.398,5.49c0.363,0.861,0.68,2.32,0.791,3.697l-14.161,1.13
			c-0.542-1.838-1.138-3.077-2.91-4.222c-1.365-0.98-3.413-1.806-7.05-1.515c-1.277,0.101-4.612,0.466-7.643,2.192
			c-5.105,2.981-7.513,8.814-7.063,14.419C220.894,67.857,225.538,71.443,232.714,70.87z"/>
		<g>
			<path fill="#FF87AC" d="M362.508,82.679l-79.26,6.326l-5.345-66.969l79.261-6.325L362.508,82.679z M284.789,87.199l76.014-6.066
				l-5.077-63.625l-76.016,6.067L284.789,87.199z"/>
		</g>
		<path fill="#FF87AC" d="M343.72,41.92l-13.669,1.091c0.247-4.373-5.282-5.417-8.821-5.134c-3.246,0.259-5.346,1.219-6.146,2.37
			c-0.542,0.638-0.494,1.229-0.471,1.523c0.145,0.582,0.388,1.157,0.715,1.526c1.062,0.906,2.683,1.369,4.393,1.728l11.151,2.079
			c3.718,0.693,4.953,1.287,6.603,2.145c4.147,2.343,4.944,6.137,5.077,7.81c0.205,2.557-0.475,7.658-5.896,11.654
			c-3.367,2.443-8.234,4.713-17.577,5.459c-8.754,0.7-14.105-0.658-17.678-3.241c-4.602-3.096-5.154-8.792-5.086-11.667
			l14.455-1.153c-0.191,1.299,0.358,3.234,0.698,3.802c1.523,2.947,4.906,3.172,7.855,2.935c0.395-0.03,3.745-0.198,5.905-1.656
			c0.564-0.343,2.061-1.453,1.903-3.418c-0.069-0.887-0.46-2.043-2.486-2.672c-1.221-0.398-3.62-0.701-4.725-0.909l-8.646-1.685
			c-0.304-0.075-3.12-0.643-4.754-1.304c-1.745-0.75-6.48-3.046-6.935-8.75c-0.197-2.457,0.394-7.452,5.849-11.055
			c3.384-2.249,8.097-3.913,17.144-4.634c12.686-1.013,20.625,4.193,21.268,12.257C343.757,41.127,343.797,41.619,343.72,41.92z"/>
	</g>
</g>
<g>
	
		<rect x="9.864" y="20.785" transform="matrix(-0.9968 0.0796 -0.0796 -0.9968 384.0977 110.1215)" fill="#0047E1" width="359.982" height="83.855"/>
	<g>
		<g>
			<path fill="#FF87AC" d="M99.648,103.658l-79.262,6.325l-5.344-66.969l79.262-6.326L99.648,103.658z M21.827,108.186l76.016-6.066
				l-5.078-63.625L16.75,44.56L21.827,108.186z"/>
		</g>
		<path fill="#FF87AC" d="M83.569,60.901c-0.196-2.458-1.026-4.173-1.491-5.026c-2.539-4.548-7.747-5.321-9.344-5.49
			c-2.898-0.361-5.955-0.218-6.84-0.147l-28.125,2.244L30.81,95.493l15.537-1.24l2.462-15.041l9.736-0.777l7.078,14.28l16.029-1.279
			l-8.603-16.038c1.715-0.829,3.339-1.552,4.941-2.572C81.727,70.053,83.938,65.523,83.569,60.901z M67.118,65.579
			c-1.129,1.971-3.443,2.75-5.704,2.932l-10.916,0.868l1.397-8.522l10.816-0.865c0.59-0.048,3.139-0.349,4.461,1.327
			c0.334,0.467,0.585,1.14,0.632,1.729C67.901,64.229,67.389,65.259,67.118,65.579z"/>
		<g>
			<path fill="#FF87AC" d="M187.27,96.664l-79.263,6.327l-5.344-66.97l79.261-6.326L187.27,96.664z M109.448,101.193l76.015-6.067
				l-5.077-63.625l-76.016,6.067L109.448,101.193z"/>
		</g>
		<path fill="#FF87AC" d="M162.274,42.646l-18.683,1.492l-26.628,44.579l17.406-1.388l3.588-7.114l17.898-1.427l1.329,6.721
			l16.224-1.296L162.274,42.646z M142.916,70.418l7.759-14.376l3.255,13.496L142.916,70.418z"/>
		<g>
			<path fill="#FF87AC" d="M274.889,89.672l-79.262,6.325l-5.345-66.968l79.264-6.325L274.889,89.672z M197.166,94.192l76.018-6.065
				l-5.076-63.626l-76.018,6.067L197.166,94.192z"/>
		</g>
		<path fill="#FF87AC" d="M232.714,70.87c5.31-0.423,8.663-3.065,9.921-4.651c0.635-0.743,1.062-1.567,1.814-3.312l14.062-1.12
			c0.124,1.57-0.81,4.713-2.679,7.339c-3.037,4.098-10.245,10.514-23.521,11.572c-2.558,0.205-12.701,0.816-19.534-4.18
			c-5.998-4.471-7.056-11.512-7.244-13.873c-0.257-3.242-0.004-9.994,5.606-16.577c5.972-7.009,14.249-9.945,23.393-10.675
			c2.363-0.188,12.59-1.005,19.565,4.573c0.843,0.627,3.081,2.625,4.398,5.49c0.363,0.861,0.68,2.32,0.791,3.697l-14.161,1.13
			c-0.542-1.838-1.138-3.077-2.91-4.222c-1.365-0.98-3.413-1.806-7.05-1.515c-1.277,0.101-4.612,0.466-7.643,2.192
			c-5.105,2.981-7.513,8.814-7.063,14.419C220.894,67.857,225.538,71.443,232.714,70.87z"/>
		<g>
			<path fill="#FF87AC" d="M362.508,82.679l-79.26,6.326l-5.345-66.969l79.261-6.325L362.508,82.679z M284.789,87.199l76.014-6.066
				l-5.077-63.625l-76.016,6.067L284.789,87.199z"/>
		</g>
		<path fill="#FF87AC" d="M343.72,41.92l-13.669,1.091c0.247-4.373-5.282-5.417-8.821-5.134c-3.246,0.259-5.346,1.219-6.146,2.37
			c-0.542,0.638-0.494,1.229-0.471,1.523c0.145,0.582,0.388,1.157,0.715,1.526c1.062,0.906,2.683,1.369,4.393,1.728l11.151,2.079
			c3.718,0.693,4.953,1.287,6.603,2.145c4.147,2.343,4.944,6.137,5.077,7.81c0.205,2.557-0.475,7.658-5.896,11.654
			c-3.367,2.443-8.234,4.713-17.577,5.459c-8.754,0.7-14.105-0.658-17.678-3.241c-4.602-3.096-5.154-8.792-5.086-11.667
			l14.455-1.153c-0.191,1.299,0.358,3.234,0.698,3.802c1.523,2.947,4.906,3.172,7.855,2.935c0.395-0.03,3.745-0.198,5.905-1.656
			c0.564-0.343,2.061-1.453,1.903-3.418c-0.069-0.887-0.46-2.043-2.486-2.672c-1.221-0.398-3.62-0.701-4.725-0.909l-8.646-1.685
			c-0.304-0.075-3.12-0.643-4.754-1.304c-1.745-0.75-6.48-3.046-6.935-8.75c-0.197-2.457,0.394-7.452,5.849-11.055
			c3.384-2.249,8.097-3.913,17.144-4.634c12.686-1.013,20.625,4.193,21.268,12.257C343.757,41.127,343.797,41.619,343.72,41.92z"/>
	</g>
</g>
</svg>
