<?xml version="1.0" encoding="utf-8"?>
<!-- Generator: Adobe Illustrator 16.0.0, SVG Export Plug-In . SVG Version: 6.00 Build 0)  -->
<!DOCTYPE svg PUBLIC "-//W3C//DTD SVG 1.1//EN" "http://www.w3.org/Graphics/SVG/1.1/DTD/svg11.dtd">
<svg version="1.1" id="Layer_1" xmlns="http://www.w3.org/2000/svg" xmlns:xlink="http://www.w3.org/1999/xlink" x="0px" y="0px"
	 width="163.75px" height="163.75px" viewBox="0 0 163.75 163.75" enable-background="new 0 0 163.75 163.75" xml:space="preserve">
<g>
	<ellipse fill="#0047E1" cx="82.024" cy="81.334" rx="80.018" ry="80.018"/>
	<g>
		<path fill="#FF87AC" d="M154.236,94.192c3.637-17.989-0.08-37.208-9.879-52.814c-9.704-15.579-25.442-27.331-43.196-32.234l0,0
			l-0.096-0.025l0,0l0,0l-0.095-0.025l0,0C83.019,4.54,63.625,6.985,47.482,15.719c-16.24,8.709-28.986,23.568-34.729,40.999
			C6.844,74,7.82,93.518,15.419,110.078c7.536,16.03,21.068,29.141,37.262,35.685c0,0,0,0-0.025,0.097
			c0.46,1.352,1.337,2.299,2.117,3.222c0.78,0.926,1.821,2.021,3.257,2.402c0.669,0.177,1.487,0.187,2.137,0.053
			c0.651-0.135,1.351-0.461,1.957-0.812c0.726-0.423,1.381-0.967,1.944-1.537c0.537,1.067,1.17,2.155,1.925,3.174
			c0.851,1.046,2.184,1.811,3.624,1.78c1.443-0.026,2.605-0.538,3.741-0.957c0.793-0.302,1.617-0.695,2.299-1.335
			c17.335,2.235,35.366-2.413,49.727-12.543C140.305,128.608,150.813,112.134,154.236,94.192z M63.905,147.096
			c-0.829,0.804-1.752,1.584-2.625,2.173c-0.485,0.283-0.968,0.563-1.427,0.75c-0.459,0.187-0.989,0.251-1.467,0.124
			c-0.984-0.157-2.03-0.846-2.811-1.769c-0.78-0.924-1.558-1.85-1.905-2.86c-0.347-1.017-0.042-2.164,0.62-3.115
			c0.661-0.95,1.585-1.731,2.483-2.415l0.388-0.306c1.864,0.697,3.951,0.941,5.946,0.755l-2.515,2.918l-0.025,0.097
			c0,0,0.097,0.025,0.192,0.051l4.308-2.343c0.263,0.171,0.619,0.369,0.907,0.445c0.384,0.102,0.695,0.08,1.104,0.088l0.07,0.119
			C66.521,143.793,65.319,145.627,63.905,147.096z M74.96,137.833l-4.962-0.596c-0.254-0.578-0.729-1.115-1.229-1.556l-0.019-0.311
			c1.746-1.177,3.798-1.966,5.752-2.371c1.179-0.2,2.333-0.304,3.435-0.215c0.6,0.056,1.079,0.183,1.557,0.31
			c0.479,0.127,0.907,0.443,1.335,0.763c0.736,0.706,1.151,1.843,1.254,2.995c0.081,1.252,0.185,2.405-0.19,3.433
			c-0.375,1.028-1.273,1.711-2.312,2.154c-1.038,0.44-2.29,0.52-3.417,0.528l-0.503-0.03c-1.082-1.722-2.55-3.135-4.363-4.024
			l3.709-0.86l0.122-0.071C75.059,137.858,74.96,137.833,74.96,137.833z M69.136,138.954c-0.33,1.245-1.541,1.948-2.786,1.618
			c-1.246-0.329-1.949-1.54-1.619-2.785c0.33-1.244,1.54-1.948,2.785-1.618C68.761,136.499,69.465,137.71,69.136,138.954z
			 M74.191,131.074l-0.127,0.478c-1.975,0.501-3.791,1.56-5.181,2.932l0.294-3.815c0,0,0.026-0.097-0.07-0.122
			c-0.096-0.025-0.096-0.025-0.121,0.071l-2.13,4.558c-0.721,0.016-1.299,0.271-1.835,0.744l-0.287-0.075
			c-0.571-2.099-0.735-4.19-0.418-6.155c0.112-1.2,0.417-2.349,0.888-3.351c0.152-0.574,0.469-1.002,0.789-1.432
			c0.318-0.428,0.707-0.734,1.094-1.04c0.944-0.468,2.074-0.477,3.247-0.267c1.148,0.304,2.418,0.537,3.249,1.27
			c0.856,0.637,1.272,1.771,1.28,2.9C74.799,128.777,74.495,129.926,74.191,131.074z M63.732,135.372l-3.512-1.443
			c0,0-0.095-0.025-0.121,0.072c-0.026,0.097-0.026,0.097-0.05,0.19l3.603,3.414l0,0c-0.177,0.669-0.164,1.39,0.093,1.972
			l-0.146,0.165c-2.112-0.15-4.147-0.586-6.056-1.502c-1.098-0.496-2.05-1.157-2.905-1.794c-0.429-0.319-0.831-0.732-1.138-1.121
			c-0.307-0.388-0.491-0.848-0.652-1.402c-0.251-0.987,0.174-2.206,0.74-3.183c0.592-1.073,1.279-2.121,2.152-2.71
			c0.898-0.684,2.027-0.691,3.176-0.387c1.053,0.279,2.101,0.966,3.052,1.628l0.427,0.317
			C62.487,131.561,62.893,133.512,63.732,135.372z M72.984,152.268c-1.16,0.513-2.295,0.929-3.328,0.963
			c-1.127,0.007-2.082-0.654-2.765-1.553c-0.683-0.899-1.196-2.06-1.518-3.17l-0.184-0.457c1.247-1.617,2.137-3.43,2.549-5.368
			l2.02,3.198l0.096,0.025c0.096,0.025,0.122-0.07,0.147-0.167l-0.966-4.863c0.511-0.379,0.878-0.998,1.056-1.669l0,0l0.218-0.044
			c1.688,1.369,3.007,2.949,3.967,4.739c0.564,0.969,0.982,2.104,1.303,3.214c0.158,0.554,0.224,1.082,0.191,1.587
			c-0.03,0.503-0.061,1.008-0.284,1.461C75.043,151.069,74.119,151.85,72.984,152.268z M77.378,148.821
			c0.083-0.694,0.07-1.414-0.161-2.092c-0.206-0.77-0.508-1.569-0.835-2.27c1.18-0.199,2.457-0.373,3.617-0.886
			c1.256-0.487,2.351-1.528,2.802-2.845c0.024-0.095,0.05-0.19,0.05-0.19l3.529,0.218c-0.294,0.331-0.465,0.594-0.592,1.072
			c-0.253,0.957,0.047,1.755,0.471,2.48c0.772,1.333,2.106,2.095,3.423,2.546c0.644,0.273,1.313,0.451,2.011,0.533
			c0.694,0.08,1.293,0.138,2.039,0.028l0,0l0.312-0.021l-0.019-0.312c0.037-0.911-0.167-1.682-0.467-2.479
			c0.854,0.637,1.761,1.081,2.743,1.24c1.363,0.259,2.685,0.3,4.081,0.055l0,0l0.313-0.017l-0.019-0.313
			c-0.067-0.531-0.154-0.965-0.342-1.423c-0.115-0.339-0.229-0.676-0.44-1.038c0.262,0.172,0.522,0.344,0.812,0.42
			c0.642,0.271,1.339,0.354,2.033,0.436c1.393,0.165,2.667-0.011,3.992-0.376l0,0l0.338-0.116l-0.018-0.313
			c-0.065-0.529-0.275-0.89-0.463-1.351c-0.112-0.338-0.353-0.605-0.562-0.969c0.452,0.224,0.834,0.324,1.339,0.354
			c0.98,0.158,1.921,0.1,2.858,0.041c0.964-0.153,1.83-0.336,2.747-0.707l0,0l0.243-0.141l-0.142-0.242
			c-0.371-0.917-0.862-1.765-1.502-2.446l-0.071-0.121c1.193,0.521,2.417,0.538,3.477,0.408c0.649-0.136,1.276-0.175,1.953-0.404
			c0.676-0.231,1.257-0.486,1.861-0.839l0,0l0.239-0.143l-0.138-0.24c-0.398-0.823-0.942-1.479-1.511-2.041
			c0.984,0.16,2.018,0.126,2.884-0.054c1.302-0.271,2.584-0.854,3.601-1.609l0,0l0.244-0.138l-0.144-0.243
			c-0.492-0.848-1.227-1.556-2.012-2.068l-0.097-0.025c0.479,0.127,0.983,0.156,1.392,0.161c0.722-0.015,1.398-0.243,2.048-0.379
			c1.257-0.486,2.441-1.093,3.485-1.944l0,0l0.269-0.236l-0.237-0.269c-0.542-0.654-1.112-1.218-1.826-1.611
			c0.312-0.019,0.529-0.063,0.841-0.085c0.748-0.108,1.327-0.365,2.002-0.596c1.282-0.582,2.302-1.337,3.249-2.212l0,0l0.269-0.237
			l-0.236-0.267c-0.642-0.682-1.521-1.222-2.331-1.642c-0.906-0.445-1.889-0.604-2.897-0.664c-0.599-0.057-1.154,0.103-1.804,0.237
			c0.025-0.096,0.146-0.165,0.146-0.165c0.29-0.333,0.463-0.596,0.757-0.927c0.285,0.076,0.67,0.178,0.886,0.132
			c1.034-0.034,1.716-0.671,2.346-1.119c0.561-0.569,1.025-1.164,1.396-1.782c0.591-1.072,0.992-2.197,1.199-3.371
			c0.208-1.173,0.322-2.373,0.121-3.552l0.025-0.097c0.195-0.357,0.419-0.811,0.642-1.264l1.013-1.884
			c0.051-0.192,0.197-0.357,0.248-0.549c0.113,0.337,0.327,0.702,0.588,0.872c0.759,0.612,1.553,0.718,2.364,0.729
			c0.725-0.013,1.494-0.219,2.103-0.57c0.604-0.352,1.211-0.703,1.648-1.204c0.949-0.874,1.758-1.991,2.471-3.134l0,0l0.171-0.263
			l-0.262-0.172c-0.812-0.42-1.575-0.622-2.438-0.851c0.917-0.372,1.695-0.984,2.281-1.648c0.879-0.998,1.686-2.115,2.208-3.31l0,0
			l0.17-0.261l-0.287-0.076c-0.835-0.324-1.602-0.527-2.514-0.563c0.968-0.564,1.699-1.395,2.338-2.25
			c0.368-0.618,0.738-1.238,0.89-1.812c0.272-0.645,0.521-1.194,0.628-1.986l0,0l0.076-0.288l-0.287-0.076
			c-0.479-0.127-0.983-0.156-1.488-0.187c-0.406-0.007-0.719,0.012-1.129,0.006c0.804-0.707,1.413-1.467,1.859-2.375
			c0.275-0.644,0.548-1.29,0.7-1.863c0.177-0.669,0.329-1.244,0.314-1.965l0,0l-0.021-0.313l-0.285-0.075
			c-0.985-0.158-1.949-0.004-2.812,0.175c-0.097-0.025-0.122,0.071-0.221,0.045c0.926-0.778,1.612-1.828,1.989-2.854
			c0.451-1.315,0.684-2.583,0.726-3.907l0,0l-0.02-0.31l-0.315,0.018c-0.909-0.037-1.656,0.073-2.452,0.377
			c0.61-0.762,1.031-1.573,1.26-2.434c0.449-1.316,0.59-2.61,0.414-3.885l0,0l-0.02-0.313l-0.314,0.021
			c-0.937,0.057-1.925,0.308-2.747,0.705c0,0,0,0-0.12,0.072c0.733-0.83,1.227-1.93,1.48-2.888c0.354-1.338,0.397-2.659,0.224-3.934
			l0,0l-0.02-0.315l-0.312,0.02c-0.843,0.085-1.732,0.361-2.435,0.687c0.513-0.785,0.837-1.622,0.969-2.508
			c0.233-1.27,0.278-2.59,0.104-3.867l0,0l-0.021-0.311l-0.311,0.021c-0.938,0.057-1.928,0.307-2.772,0.802
			c-0.849,0.492-1.628,1.105-2.263,1.961c-0.319,0.428-0.54,0.88-0.762,1.334c-0.118-0.339-0.205-0.773-0.322-1.109
			c0.244-0.143,0.508-0.378,0.56-0.571c0.517-0.784,0.529-1.602,0.512-2.322c-0.107-0.747-0.242-1.396-0.476-2.071
			c-0.438-1.039-1.004-2.009-1.711-2.812c-0.71-0.803-1.539-1.535-2.396-2.171l-0.356-0.197l-0.102,0.384l0,0
			c-0.428,1.219-0.685,2.583-0.633,3.931c0.054,1.344,0.301,2.741,1.002,3.953c0.353,0.606,0.798,1.235,1.488,1.724
			c0.356,0.197,0.716,0.396,1.15,0.305c0.184,0.458,0.276,0.893,0.46,1.352c-0.524-0.345-0.978-0.566-1.524-0.814
			c-0.932-0.348-1.941-0.411-2.879-0.352c-0.937,0.058-1.827,0.333-2.746,0.706l-0.244,0.142l0.117,0.336l0,0
			c0.513,1.16,1.266,2.179,2.261,3.059c0.5,0.439,1.093,0.902,1.808,1.298c-0.842,0.082-1.612,0.29-2.314,0.615l-0.336,0.116
			l0.113,0.337l0,0c0.514,1.163,1.147,2.251,2.145,3.131c0.565,0.558,1.329,1.169,2.139,1.591c-0.911-0.037-1.877,0.116-2.794,0.488
			l-0.336,0.116l0.114,0.337l0,0c0.417,1.135,1.05,2.225,1.9,3.268c0.475,0.537,0.971,0.976,1.493,1.318
			c-0.814-0.011-1.563,0.098-2.333,0.306l-0.339,0.112l0.117,0.341l0,0c0.391,1.228,0.928,2.294,1.683,3.312
			c0.447,0.63,1.11,1.217,1.803,1.708c-0.889-0.132-1.825-0.074-2.789,0.081l-0.312,0.019l0.116,0.339l0,0
			c0.295,1.205,0.71,2.339,1.345,3.431c0.282,0.483,0.658,0.992,1.062,1.408c-0.767-0.203-1.487-0.191-2.305-0.202l-0.311,0.021
			l0.019,0.311l0,0c0.064,0.529,0.198,1.181,0.361,1.735c0.16,0.555,0.416,1.135,0.671,1.714c0.188,0.461,0.495,0.848,0.774,1.333
			c-0.737-0.299-1.409-0.477-2.201-0.583l-0.287-0.076l-0.076,0.288l0,0c-0.137,1.295-0.06,2.544,0.237,3.75
			c0.133,0.648,0.39,1.229,0.74,1.834c-0.714-0.395-1.479-0.597-2.245-0.8l-0.287-0.076l-0.076,0.288l0,0
			c-0.235,1.27-0.252,2.493-0.077,3.77c0.271,1.303,0.661,2.532,1.729,3.531c0.498,0.439,1.187,0.93,2.101,0.966
			c0.216-0.045,0.434-0.09,0.647-0.135c-0.05,0.19-0.075,0.286-0.221,0.453l-0.916,1.91c-0.222,0.453-0.417,0.81-0.642,1.263
			l-0.097-0.025l0,0c-1.376,0.558-2.684,1.236-3.752,2.182c-1.07,0.945-2.096,2.108-2.692,3.592
			c-0.299,0.738-0.502,1.505-0.443,2.441c0.092,0.434,0.181,0.867,0.513,1.161c-0.267,0.236-0.464,0.593-0.732,0.83
			c-0.025,0.096-0.12,0.07-0.145,0.165c0.055-0.599-0.105-1.153-0.169-1.683c-0.251-0.989-0.744-1.836-1.382-2.517
			c-0.642-0.683-1.399-1.294-2.21-1.713l-0.265-0.174l-0.169,0.263l0,0c-0.594,1.073-1.02,2.293-1.156,3.589
			c-0.056,0.599-0.138,1.296-0.004,1.944l0,0c-0.544-0.656-1.112-1.216-1.729-1.587l-0.264-0.171l-0.171,0.264l0,0
			c-0.688,1.045-1.208,2.239-1.416,3.414c-0.151,0.574-0.234,1.269-0.196,1.895c-0.051,0.19,0.021,0.314,0.065,0.529
			c-0.493-0.847-1.036-1.503-1.797-2.116l-0.261-0.169l-0.172,0.261l0,0c-0.439,0.498-0.686,1.049-1.032,1.57
			c-0.248,0.548-0.495,1.099-0.741,1.646c-0.249,0.55-0.33,1.245-0.388,1.845c-0.325-0.701-0.771-1.333-1.342-1.892l-0.236-0.267
			l-0.269,0.234l0,0c-0.415,0.401-0.756,0.927-1.102,1.451c-0.342,0.522-0.687,1.046-0.936,1.596
			c-0.298,0.741-0.595,1.482-0.608,2.296c-0.277-0.891-0.696-1.617-1.311-2.396l-0.235-0.265l-0.271,0.236l0,0
			c-0.411,0.402-0.825,0.805-1.36,1.277c-0.44,0.496-0.759,0.925-1.129,1.545c-0.341,0.523-0.59,1.074-0.767,1.743
			c-0.204-0.771-0.531-1.474-0.857-2.173l-0.141-0.244l-0.244,0.143l0,0c-1.089,0.633-1.943,1.532-2.728,2.555
			c-0.341,0.524-0.66,0.951-0.909,1.502c-0.107-0.747-0.311-1.519-0.641-2.22l-0.114-0.337l-0.338,0.114l0,0
			c-0.581,0.256-1.093,0.633-1.601,1.011c-0.509,0.377-0.922,0.779-1.338,1.181c-0.412,0.406-0.853,0.901-1.1,1.451
			c0.013-0.815-0.1-1.562-0.305-2.334l-0.115-0.337l-0.337,0.115l0,0c-0.581,0.256-1.16,0.513-1.645,0.792l0,0
			c-0.942,0.468-1.841,1.152-2.572,1.983c-0.733,0.83-1.326,1.901-1.463,3.196c-0.057,0.602,0.246,1.398,0.742,1.838l0,0
			l-3.578-0.025c0.305-1.15,0.102-2.329,0.07-3.362c-0.077-1.25-0.323-2.648-1.245-3.812c-0.471-0.535-1.064-1-1.711-1.273
			c-0.643-0.273-1.313-0.451-2.011-0.533c-0.79-0.107-1.633-0.022-2.377,0.088c0.209-1.173,0.345-2.47,0.268-3.719
			c-0.052-1.346-0.705-2.748-1.824-3.557c-1.118-0.809-2.483-1.067-3.633-1.372c-1.243-0.329-2.635-0.492-3.986-0.032
			c-0.677,0.23-1.308,0.678-1.771,1.272c-0.439,0.498-0.808,1.118-1.083,1.764c-0.298,0.739-0.501,1.505-0.608,2.297
			c-1.072-0.592-2.17-1.089-3.415-1.418c-1.245-0.33-2.833-0.134-3.973,0.691c-1.141,0.823-1.758,1.992-2.444,3.04
			c-0.343,0.522-0.616,1.166-0.865,1.717c-1.072-0.593-2.075-1.062-3.147-1.653l0,0c0.746-0.11,1.307-0.679,1.555-1.229
			c0.617-1.169,0.538-2.418,0.313-3.502c-0.225-1.084-0.668-2.123-1.255-2.996l0,0c-0.282-0.483-0.659-0.993-1.038-1.503l0,0
			l-0.235-0.267l-0.268,0.234c-0.561,0.57-1.024,1.164-1.419,1.878c-0.039-0.625-0.104-1.154-0.238-1.806
			c-0.162-0.554-0.418-1.134-0.578-1.688c-0.256-0.58-0.512-1.159-0.889-1.67l0,0l-0.237-0.266l-0.267,0.235
			c-0.631,0.447-1.191,1.016-1.656,1.611c0.057-0.602,0.017-1.227-0.048-1.756c-0.174-1.275-0.47-2.48-1.104-3.569l0,0l-0.14-0.244
			l-0.243,0.143c-0.726,0.421-1.261,0.896-1.822,1.464c0.152-0.574,0.208-1.175,0.195-1.895c-0.04-0.626-0.078-1.252-0.214-1.901
			c-0.16-0.554-0.295-1.204-0.551-1.783l0,0l-0.115-0.339l-0.337,0.113c-0.823,0.398-1.645,0.796-2.326,1.433
			c0.297-0.738,0.5-1.504,0.608-2.296c0.056-0.6,0.042-1.319-0.023-1.85c-0.039-0.625-0.077-1.252-0.238-1.806l0,0l-0.116-0.336
			l-0.336,0.114c-0.772,0.204-1.473,0.531-2.104,0.979c0.248-0.55,0.425-1.219,0.577-1.795c0.056-0.598,0.113-1.198,0.169-1.798
			c0.056-0.599,0.018-1.225-0.118-1.875l0,0l-0.02-0.312l-0.312,0.018c-0.964,0.156-1.759,0.458-2.607,0.949
			c0.146-0.165,0.171-0.262,0.318-0.428c0.344-0.524,0.521-1.194,0.77-1.743c0.425-1.22,0.538-2.419,0.459-3.667l0,0l-0.02-0.313
			l-0.312,0.019c-0.842,0.085-1.613,0.291-2.29,0.521l0,0c0.344-0.522,0.687-1.048,0.961-1.691c0.521-1.193,0.729-2.369,0.771-3.689
			l0,0l-0.02-0.312l-0.312,0.02c-0.912-0.038-1.875,0.118-2.769,0.394c-0.891,0.276-1.739,0.768-2.446,1.503
			c-0.414,0.402-0.732,0.831-0.98,1.38c0.026-0.096-0.071-0.121-0.045-0.217c-0.115-0.339-0.109-0.746-0.225-1.084
			c0.458-0.187,0.848-0.493,1.02-0.755c0.515-0.784,0.718-1.551,0.825-2.341c0.214-1.584-0.1-3.103-0.562-4.453
			c-0.557-1.376-1.235-2.684-2.181-3.753l0,0l-0.096-0.025c0.031-0.505,0.037-0.912,0.067-1.416l0.15-2.112
			c0.051-0.192-0.019-0.313,0.031-0.504c0.166,0.146,0.333,0.292,0.499,0.438c0.81,0.42,1.652,0.335,2.303,0.201
			c1.352-0.461,2.397-1.313,3.25-2.212c0.878-0.998,1.469-2.069,1.799-3.314l0,0l0.076-0.288l-0.287-0.076
			c-0.74-0.297-1.531-0.406-2.348-0.415c0.605-0.354,1.115-0.731,1.554-1.228c0.853-0.901,1.54-1.948,2.061-3.141l0,0l0.076-0.288
			l-0.287-0.076c-0.74-0.299-1.411-0.477-2.201-0.583c0.459-0.186,0.942-0.467,1.332-0.775c0.51-0.376,0.924-0.779,1.434-1.157
			c0.413-0.402,0.853-0.901,1.17-1.329l0,0l0.172-0.26l-0.262-0.173c-0.714-0.396-1.334-0.762-2.1-0.965
			c0.555-0.163,1.135-0.418,1.619-0.699c1.09-0.635,2.109-1.389,2.866-2.313l0,0l0.268-0.239l-0.262-0.17
			c-0.76-0.613-1.476-1.007-2.381-1.451c0.841-0.084,1.613-0.291,2.409-0.592c1.161-0.511,2.179-1.265,3.103-2.044l0,0l0.268-0.239
			l-0.236-0.265c-0.569-0.562-1.162-1.026-1.877-1.42c0.72-0.014,1.396-0.244,1.952-0.406c1.229-0.391,2.32-1.025,3.268-1.899l0,0
			l0.268-0.236l-0.236-0.268c-0.614-0.778-1.304-1.268-2.185-1.807c0.912,0.035,1.754-0.047,2.646-0.324
			c1.231-0.392,2.391-0.903,3.411-1.659l0,0l0.267-0.237l-0.236-0.267c-0.448-0.63-1.111-1.217-1.707-1.68
			c0.723-0.016,1.467-0.124,2.214-0.233c1.205-0.296,2.39-0.903,3.48-1.538l0,0l0.268-0.234l-0.142-0.244
			c-0.517-0.753-1.251-1.459-2.038-1.973c-0.786-0.515-1.691-0.96-2.675-1.119c-0.6-0.055-1.104-0.088-1.729-0.047
			c0.292-0.333,0.681-0.639,1.069-0.947c0.358,0.198,0.836,0.325,1.149,0.305c0.842-0.083,1.543-0.409,2.148-0.761
			c1.212-0.706,2.116-1.798,2.828-2.939c0.713-1.145,1.138-2.362,1.397-3.729l0,0l0.102-0.383l-0.408-0.005
			c-1.13,0.008-2.119,0.259-3.157,0.7c-1.014,0.347-1.983,0.911-2.881,1.596c-0.535,0.472-1.069,0.943-1.438,1.564
			c-0.369,0.618-0.763,1.334-0.705,2.271c0.045,0.218,0.065,0.529,0.205,0.773c-0.267,0.234-0.561,0.567-0.827,0.805
			c0.031-0.504,0.088-1.104-0.003-1.537c-0.129-1.058-0.5-1.977-0.994-2.824c-0.491-0.849-1.227-1.556-2.012-2.069l-0.262-0.172
			l-0.171,0.26l0,0c-0.783,1.023-1.4,2.192-1.826,3.411c-0.228,0.86-0.456,1.723-0.396,2.662c-0.519-0.753-1.087-1.314-1.776-1.805
			l-0.263-0.17l-0.172,0.262l0,0c-0.783,1.021-1.4,2.19-1.754,3.528c-0.279,1.054-0.367,2.158-0.142,3.242c0,0,0,0-0.07-0.122
			c-0.613-0.777-1.252-1.459-2.038-1.973l-0.262-0.173l-0.172,0.263l0,0c-0.712,1.143-1.232,2.336-1.562,3.581
			c-0.228,0.861-0.291,1.868-0.112,2.738c-0.544-0.656-1.232-1.148-1.948-1.542l-0.262-0.171l-0.171,0.26l0,0
			c-0.618,1.171-1.138,2.362-1.302,3.754c-0.183,1.077-0.105,2.329,0.312,3.463c-0.095-0.025-0.07-0.121-0.167-0.147
			c-0.734-0.707-1.521-1.22-2.356-1.545l-0.287-0.076l-0.172,0.262l0,0c-0.273,0.645-0.521,1.194-0.699,1.863
			c-0.177,0.67-0.259,1.367-0.315,1.965c-0.063,1.01,0.067,2.068,0.439,2.984c-0.358-0.198-0.595-0.463-0.978-0.564
			c-0.453-0.223-0.811-0.422-1.386-0.574l-0.286-0.076l-0.076,0.288l0,0c-0.274,0.645-0.259,1.367-0.437,2.037
			c-0.177,0.669-0.165,1.392-0.124,2.015c0.034,1.033,0.354,2.142,0.917,3.111c-0.715-0.394-1.576-0.622-2.463-0.754l-0.288-0.076
			l0.02,0.311l0,0c-0.138,1.296-0.084,2.642,0.281,3.969c0.181,0.867,0.552,1.784,1.165,2.562c-0.835-0.322-1.626-0.431-2.539-0.468
			l-0.312,0.02l0.019,0.313l0,0c-0.042,1.32,0.133,2.596,0.594,3.946c0.23,0.677,0.486,1.257,0.839,1.863
			c0.352,0.605,0.92,1.166,1.539,1.535c0.62,0.367,1.43,0.788,2.419,0.537c0.338-0.115,0.676-0.23,0.943-0.467
			c-0.051,0.192-0.005,0.408-0.057,0.601l-0.054,2.137c-0.004,0.408-0.036,0.911-0.067,1.416l-0.026,0.096
			c-0.662,0.95-1.253,2.024-1.653,3.146c-0.4,1.123-0.609,2.299-0.625,3.523c0.013,0.72,0.098,1.562,0.328,2.238
			c0.207,0.771,0.603,1.593,1.483,2.134c0.262,0.173,0.55,0.249,0.836,0.324c0.091,0.434,0.111,0.747,0.201,1.181
			c-0.025,0.095,0.045,0.215,0.045,0.215c-0.403-0.412-0.927-0.757-1.45-1.099c-0.906-0.446-1.838-0.796-2.847-0.857
			c-1.008-0.062-1.945-0.003-2.838,0.272l-0.337,0.115l0.114,0.338l0,0c0.392,1.23,0.975,2.513,1.729,3.533
			c0.378,0.507,0.85,1.042,1.445,1.506c0.165,0.148,0.427,0.319,0.689,0.491c-0.842,0.085-1.685,0.17-2.385,0.495l-0.339,0.116
			l0.116,0.338l0,0c0.486,1.257,1.12,2.345,2.066,3.415c0.473,0.533,0.972,0.974,1.591,1.343c0.453,0.223,0.81,0.421,1.289,0.548
			l-0.095-0.025c-0.963,0.153-1.831,0.334-2.773,0.802l-0.242,0.141l0.141,0.24l0,0c0.608,1.186,1.337,2.302,2.333,3.181
			c0.734,0.707,1.52,1.221,2.479,1.475c-0.868,0.181-1.568,0.508-2.321,1.025l-0.241,0.14l0.14,0.243l0,0
			c0.352,0.605,0.729,1.114,1.203,1.65c0.472,0.534,0.97,0.975,1.495,1.317c0.951,0.663,2.024,1.253,3.224,1.367l-0.122,0.069
			c-0.892,0.276-1.74,0.769-2.517,1.383l-0.243,0.14l0.141,0.242l0,0c0.518,0.752,1.277,1.365,2.037,1.976
			c0.786,0.514,1.571,1.03,2.503,1.378c0.479,0.127,0.861,0.229,1.341,0.355c-0.338,0.117-0.701,0.326-0.968,0.563
			c-0.39,0.308-0.779,0.614-1.071,0.948l-0.171,0.26l0.235,0.268l0,0c0.972,0.975,2.02,1.661,3.283,2.304
			c0.645,0.273,1.29,0.546,1.986,0.629c0.286,0.076,0.599,0.056,0.912,0.036c-0.268,0.235-0.606,0.352-0.898,0.684
			c-0.388,0.306-0.681,0.639-1,1.067l-0.172,0.263l0.263,0.17l0,0c0.997,0.879,2.261,1.522,3.575,1.974
			c0.932,0.348,2.035,0.436,2.999,0.279c-0.657,0.545-1.243,1.209-1.636,1.923l-0.172,0.263l0.261,0.173l0,0
			c0.62,0.367,1.144,0.711,1.788,0.985c0.645,0.273,1.315,0.451,2.011,0.532c1.366,0.259,2.807,0.232,4.234-0.519
			c0.702-0.326,1.384-0.965,1.637-1.922c0.101-0.382,0.106-0.792,0.016-1.224c1.073,0.592,2.075,1.061,3.173,1.557
			c-0.152,0.575-0.304,1.147-0.265,1.773c0.015,0.721,0.246,1.396,0.571,2.098c0.352,0.605,0.825,1.14,1.324,1.58
			c0.663,0.587,1.283,0.955,1.999,1.348c-0.854,0.903-1.707,1.802-2.395,2.852c-0.54,0.88-0.844,2.028-0.741,3.184
			c-14.862-7.316-27.009-19.857-33.521-35.105c-7.012-15.687-7.789-34.024-2.063-50.23c5.631-16.229,17.429-30.214,32.552-38.193
			c15.054-8.101,33.216-10.154,49.655-5.696l0,0l0.098,0.025l0,0c16.49,4.265,31.352,15.065,40.326,29.53
			c9.192,14.419,12.518,32.41,9.377,49.299c-3.048,16.915-12.799,32.464-26.657,42.622c-13.084,9.955-29.752,14.861-46.095,13.913
			c0.146-0.164,0.267-0.235,0.317-0.428C77.023,150.162,77.299,149.518,77.378,148.821z M91.241,133.234
			c0.107,0.747,0.15,1.37,0.065,2.065c-0.106,0.791-0.432,1.628-0.825,2.344c-0.515,0.783-1.265,1.305-2.013,1.411
			c-0.338,0.118-0.722,0.018-0.912-0.033c-0.192-0.051-0.33-0.296-0.353-0.606c-0.013-0.723,0.432-1.629,0.946-2.414
			c0.518-0.785,1.294-1.399,2.069-2.014l0,0C90.487,133.753,90.849,133.541,91.241,133.234z M91.434,138.305
			c0.021,0.313,0.159,0.553,0.398,0.821c0.069,0.122,0.234,0.27,0.306,0.39c-0.433,0.091-0.774,0.206-1.181,0.198
			c-0.216,0.046-0.528,0.068-0.843,0.085C90.626,139.423,91.063,138.923,91.434,138.305z M96.228,132.198
			c0.229,0.676,0.246,1.397,0.257,2.117c-0.01,0.816-0.142,1.705-0.537,2.42c-0.444,0.905-1.368,1.685-2.116,1.795
			c-0.336,0.115-0.719,0.014-0.861-0.228c-0.167-0.147-0.255-0.579-0.224-1.084c0.157-0.984,0.628-1.984,1.361-2.814
			c0.313-0.43,0.731-0.831,1.144-1.236C95.572,132.741,95.864,132.409,96.228,132.198z M96.948,137.204
			c0.142,0.243,0.256,0.581,0.493,0.847c0.07,0.122,0.167,0.147,0.263,0.173l-1.568,0.506
			C96.477,138.207,96.796,137.78,96.948,137.204z M101.077,130.512c0.232,0.677,0.464,1.354,0.475,2.073
			c0.086,0.842-0.021,1.634-0.224,2.399c-0.35,0.932-1.204,1.832-1.88,2.062c-0.214,0.047-0.335,0.115-0.432,0.09
			c-0.192-0.051-0.287-0.076-0.358-0.195c-0.167-0.147-0.351-0.605-0.345-1.016c-0.062-0.937,0.436-2.035,1.001-3.012
			C99.665,131.98,100.276,131.223,101.077,130.512z M102.355,135.358c0.141,0.243,0.281,0.484,0.518,0.751
			c0.095,0.025,0.167,0.148,0.264,0.174c-0.34,0.114-0.799,0.301-1.137,0.415c-0.12,0.072-0.217,0.047-0.338,0.115
			C102.076,136.412,102.203,135.932,102.355,135.358z M105.647,128.343c0.354,0.604,0.582,1.281,0.717,1.931
			c0.183,0.869,0.171,1.685-0.032,2.449c-0.279,1.055-0.918,1.909-1.713,2.211c-0.365,0.21-0.554,0.16-0.817-0.013
			c-0.26-0.17-0.473-0.534-0.439-1.038c-0.066-0.528-0.036-1.033,0.091-1.511c0.127-0.479,0.279-1.054,0.502-1.507
			c0.225-0.453,0.472-1.004,0.787-1.432L105.647,128.343z M109.709,126.549c0.197-0.355,0.394-0.715,0.617-1.169
			c0.351,0.606,0.703,1.211,0.935,1.888c0.302,0.797,0.382,1.639,0.277,2.43c-0.061,1.009-0.724,1.961-1.451,2.383
			c-0.12,0.07-0.338,0.114-0.459,0.184c-0.12,0.072-0.215,0.047-0.383-0.102c-0.259-0.169-0.474-0.533-0.562-0.966
			c-0.25-0.989-0.065-2.067,0.309-3.095C109.143,127.527,109.364,127.074,109.709,126.549z M121.768,114.275
			c0.596,0.466,1.096,0.905,1.446,1.511c0.544,0.655,0.844,1.451,0.953,2.198c0.13,1.059-0.08,2.232-0.639,2.801
			c-0.292,0.332-0.51,0.377-0.797,0.301c-0.285-0.075-0.62-0.368-0.83-0.732c-0.21-0.361-0.374-0.917-0.532-1.471
			c-0.162-0.556-0.13-1.06-0.168-1.685C121.331,116.312,121.514,115.233,121.768,114.275z M132.664,109.89
			c-0.037,0.91-0.196,1.893-0.425,2.755c-0.278,1.051-0.746,2.055-1.384,2.91c-0.345,0.525-0.783,1.023-1.294,1.4
			c-0.51,0.377-1.089,0.633-1.401,0.652c-0.216,0.046-0.288-0.077-0.385-0.103c-0.095-0.024-0.137-0.239-0.184-0.459
			c-0.092-0.432-0.01-1.128,0.238-1.676c0.426-1.22,1.233-2.338,2.088-3.238C130.674,111.206,131.575,110.521,132.664,109.89z
			 M103.681,138.476l0.069,0.12l0,0c-0.427-0.318-0.976-0.564-1.646-0.742c0.123-0.07,0.243-0.142,0.338-0.116
			c0.459-0.185,0.797-0.302,1.254-0.485C103.595,137.633,103.566,138.138,103.681,138.476z M97.822,140.1
			c-0.051,0.191,0.02,0.313,0.089,0.432l0,0c-0.523-0.342-1.047-0.686-1.597-0.934l1.761-0.454
			C97.878,139.499,97.802,139.786,97.822,140.1z M91.872,141.289c-0.051,0.192,0.019,0.312,0.063,0.528c0,0,0,0-0.096-0.025
			c-0.497-0.438-0.995-0.876-1.614-1.245c0.312-0.02,0.528-0.066,0.841-0.085c0.41,0.006,0.843-0.085,1.178-0.199
			C92.049,140.619,91.879,140.882,91.872,141.289z M88.121,141.526c0.868-0.181,2.062,0.339,2.985,1.096
			c0.694,0.491,1.237,1.147,1.537,1.945c0.352,0.605,0.559,1.377,0.691,2.027c-0.504-0.032-0.981-0.159-1.461-0.286
			c-0.574-0.151-1.125-0.398-1.672-0.647c-1.097-0.495-2.12-1.277-2.588-2.221c-0.281-0.486-0.371-0.919-0.269-1.303
			C87.446,141.756,87.688,141.615,88.121,141.526z M93.845,142.734c-0.305-0.389-0.465-0.943-0.39-1.23
			c0.076-0.288,0.247-0.551,0.681-0.64c0.797-0.301,2.136,0.054,3.113,0.619c0.718,0.396,1.258,1.051,1.803,1.707
			c0.449,0.631,0.679,1.307,0.909,1.983c-1.131,0.008-2.303-0.2-3.331-0.575C95.506,144.199,94.46,143.511,93.845,142.734z
			 M99.968,141.281c-0.404-0.412-0.587-0.872-0.607-1.186c-0.022-0.31,0.127-0.479,0.609-0.759c0.824-0.397,2.117-0.259,3.118,0.21
			c0.716,0.396,1.406,0.885,1.952,1.541c0.332,0.296,0.541,0.656,0.752,1.02c0.141,0.241,0.281,0.486,0.396,0.821
			c-1.153,0.106-2.257,0.019-3.336-0.164C101.773,142.579,100.676,142.085,99.968,141.281z M105.623,138.887
			c-0.238-0.268-0.381-0.509-0.495-0.848c-0.045-0.217,0.005-0.406,0.152-0.574l0.025-0.095c0.197-0.357,0.778-0.614,1.403-0.652
			c0.625-0.041,1.318,0.041,2.085,0.244c0.741,0.298,1.549,0.718,2.122,1.278c0.498,0.439,0.943,1.069,1.393,1.701
			c-0.747,0.11-1.493,0.22-2.214,0.232c-0.817-0.012-1.728-0.047-2.495-0.25C106.81,139.816,106.093,139.423,105.623,138.887z
			 M109.238,136.056c-0.549-0.249-1.123-0.401-1.696-0.554c0.121-0.07,0.121-0.07,0.241-0.14c0.484-0.282,1.04-0.44,1.551-0.82
			c-0.076,0.287-0.033,0.506-0.011,0.818c0.112,0.337,0.229,0.675,0.466,0.942C109.598,136.252,109.433,136.107,109.238,136.056z
			 M112.738,129.812c0.139,0.239,0.401,0.413,0.664,0.584c0.096,0.025,0.192,0.051,0.381,0.101c-0.387,0.309-0.871,0.589-1.355,0.87
			C112.648,130.915,112.681,130.41,112.738,129.812z M123.564,123.356c0.019,0.312,0.16,0.555,0.3,0.798
			c0.072,0.119,0.238,0.267,0.31,0.388l0,0c-0.601-0.057-1.202-0.112-1.756,0.047c0.121-0.069,0.147-0.167,0.267-0.235
			C122.881,123.993,123.174,123.663,123.564,123.356z M121.855,123.622c-0.024,0.094-0.145,0.166-0.269,0.235
			c0.058-0.6,0.086-1.104-0.071-1.658c0.26,0.171,0.524,0.344,0.81,0.42c0.097,0.025,0.287,0.076,0.407,0.005
			C122.536,122.982,122.148,123.288,121.855,123.622z M118.976,126.752l0.072,0.119L118.976,126.752L118.976,126.752z
			 M119.182,127.522c0.021,0.313,0.064,0.528,0.183,0.867c0.112,0.339,0.377,0.509,0.61,0.778c-0.188-0.05-0.382-0.101-0.574-0.152
			c-0.574-0.151-1.196-0.112-1.701-0.146L119.182,127.522z M114.277,131.347c0.02,0.31,0.064,0.528,0.085,0.84
			c0.043,0.217,0.114,0.337,0.281,0.486c0,0,0,0-0.097-0.025c-0.573-0.152-1.149-0.305-1.749-0.361
			C113.378,132.029,113.862,131.748,114.277,131.347z M109.128,133.771l0.14,0.241L109.128,133.771L109.128,133.771z
			 M110.841,135.046c-0.021-0.314,0.055-0.602,0.415-0.812c0.657-0.544,2.005-0.597,3.181-0.388c0.765,0.202,1.6,0.526,2.29,1.017
			c0.593,0.463,1.092,0.903,1.539,1.534c-0.457,0.187-0.985,0.25-1.446,0.436c-0.556,0.161-1.179,0.201-1.778,0.145
			c-1.226-0.017-2.398-0.227-3.282-0.767C111.167,135.745,110.859,135.357,110.841,135.046z M116.807,132.63
			c-0.454-0.223-0.856-0.636-0.876-0.948c-0.116-0.34,0.056-0.601,0.325-0.838c0.654-0.543,1.954-0.812,3.059-0.727
			c0.792,0.11,1.652,0.338,2.342,0.826c0.621,0.371,1.214,0.834,1.686,1.369c-1.038,0.441-2.147,0.763-3.206,0.891
			C118.982,133.309,117.808,133.101,116.807,132.63z M120.886,127.666c-0.112-0.338-0.062-0.529,0.228-0.86
			c0.586-0.664,1.721-1.08,2.945-1.063c0.819,0.01,1.681,0.238,2.419,0.537c0.645,0.274,1.241,0.74,1.832,1.202
			c-0.968,0.562-1.98,0.909-3.091,1.231c-1.11,0.317-2.333,0.302-3.338-0.167C121.335,128.296,121.002,128.005,120.886,127.666z
			 M126.221,124.162c-0.479-0.127-0.907-0.443-1.025-0.783c-0.069-0.121-0.044-0.217-0.086-0.433
			c0.052-0.192,0.102-0.383,0.245-0.55c0.492-0.689,1.651-1.201,2.807-1.306c0.841-0.084,1.727,0.048,2.468,0.348
			c0.644,0.271,1.385,0.569,1.885,1.01c-0.97,0.563-1.938,1.124-2.952,1.472C128.429,124.337,127.273,124.44,126.221,124.162z
			 M120.482,122.231c0.031,1.035-0.273,2.183-0.832,2.751c-0.146,0.166-0.269,0.237-0.363,0.212c-0.12,0.071-0.314,0.02-0.41-0.006
			c-0.285-0.075-0.616-0.369-0.805-0.829c-0.369-0.917-0.476-2.071-0.29-3.148c0.062-1.011,0.315-1.967,0.762-2.873
			c0.495,0.439,0.942,1.07,1.32,1.58C120.068,120.688,120.371,121.485,120.482,122.231z M118.187,126.643
			c0.097,0.025,0.192,0.051,0.285,0.075l-1.456,1.255c0.152-0.575,0.112-1.199,0.046-1.729c0.025-0.097-0.044-0.215-0.019-0.312
			C117.473,126.249,117.83,126.448,118.187,126.643z M114.937,128.858c-0.267,0.235-0.677,0.229-0.867,0.178
			c-0.287-0.076-0.498-0.439-0.686-0.897c-0.276-0.894-0.282-2.023,0.021-3.171c0.152-0.575,0.304-1.147,0.529-1.602
			c0.102-0.383,0.322-0.837,0.516-1.193c0.476,0.534,0.828,1.14,1.179,1.744c0.302,0.798,0.508,1.57,0.495,2.388
			C116.063,127.312,115.567,128.408,114.937,128.858z M108.482,133.499c0.099,0.025,0.262,0.171,0.356,0.196
			c-0.483,0.282-0.968,0.563-1.427,0.749c-0.12,0.071-0.12,0.071-0.239,0.141c0.246-0.548,0.398-1.122,0.524-1.602
			c0.025-0.096,0.051-0.191,0.008-0.409C107.817,132.912,108.03,133.277,108.482,133.499z M146.448,75.635
			c-0.183,1.079-0.583,2.204-1.031,3.109c-0.587,1.073-1.344,1.998-2.29,2.466c-0.484,0.28-0.917,0.372-1.272,0.175
			c-0.291-0.077-0.429-0.319-0.52-0.753c-0.182-0.865,0.342-2.061,1.072-2.892c0.562-0.567,1.218-1.11,1.944-1.533
			C145.052,75.881,145.726,75.65,146.448,75.635z M139.363,94.656c0.232,0.267,0.473,0.537,0.758,0.612
			c0.098,0.026,0.192,0.051,0.286,0.076l0,0c-0.578,0.256-1.064,0.535-1.573,0.912L139.363,94.656z M140.259,90.49
			c0.058-0.601,0.185-1.079,0.241-1.68c0.261,0.173,0.428,0.32,0.69,0.49c0.192,0.051,0.381,0.102,0.478,0.127
			c0,0-0.097-0.025-0.122,0.071C141.185,89.711,140.77,90.112,140.259,90.49z M140.701,84.563c-0.036-0.625,0.045-1.32,0.03-2.043
			c0.263,0.173,0.452,0.224,0.742,0.3c0.382,0.102,0.694,0.081,1.008,0.062c-0.148,0.165-0.364,0.211-0.512,0.376
			C141.557,83.662,141.145,84.065,140.701,84.563z M140.398,82.229L140.398,82.229l-0.216,0.044L140.398,82.229z M140.404,78.337
			c-0.063-0.529-0.102-1.155-0.168-1.684c0.264,0.173,0.454,0.223,0.743,0.3c0.188,0.05,0.407,0.005,0.598,0.055l0,0
			C141.092,77.291,140.751,77.814,140.404,78.337z M139.623,72.394c-0.135-0.65-0.268-1.301-0.406-1.952
			c0.194,0.051,0.454,0.222,0.672,0.178c0.407,0.004,0.721-0.013,1.059-0.13c-0.146,0.167-0.269,0.236-0.413,0.402
			C140.217,71.32,139.87,71.844,139.623,72.394z M138.256,70.599c0.135,0.649,0.174,1.272,0.334,1.827
			c-0.401-0.412-0.95-0.661-1.379-0.978c-0.095-0.025-0.287-0.076-0.36-0.197c0.316-0.02,0.773-0.206,1.137-0.417
			C138.084,70.859,138.206,70.788,138.256,70.599z M138.911,77.021c0.12-0.072,0.241-0.143,0.389-0.309
			c0.063,0.529,0.129,1.06,0.194,1.591c-0.402-0.417-0.83-0.734-1.257-1.052C138.425,77.301,138.669,77.162,138.911,77.021z
			 M139.697,82.557c0.041,0.624-0.015,1.223,0.021,1.848c-0.376-0.509-0.803-0.828-1.232-1.145
			c-0.094-0.025-0.165-0.146-0.259-0.172c0.406,0.005,0.744-0.11,1.205-0.296C139.553,82.721,139.578,82.626,139.697,82.557z
			 M139.517,88.653c-0.058,0.601-0.088,1.104-0.215,1.583c-0.28-0.482-0.684-0.899-0.989-1.286c0.312-0.021,0.625-0.041,0.963-0.156
			C139.372,88.819,139.396,88.726,139.517,88.653z M138.258,94.568c0.098,0.026,0.123-0.068,0.241-0.141l-0.431,1.627
			c-0.161-0.555-0.537-1.062-0.845-1.452C137.536,94.584,137.825,94.66,138.258,94.568z M137.482,100.203L137.482,100.203
			c0.14,0.241,0.378,0.511,0.64,0.682c0.167,0.146,0.355,0.197,0.452,0.223l0,0c-0.652,0.134-1.257,0.487-1.86,0.838
			L137.482,100.203z M138.968,102.339c0.793-0.302,1.566-0.508,2.479-0.471c0.721-0.014,1.391,0.164,2.157,0.367
			c-0.731,0.831-1.464,1.66-2.339,2.247c-1.017,0.756-2.057,1.197-3.09,1.23c-0.505-0.03-0.983-0.157-1.219-0.425
			c-0.073-0.121-0.143-0.242-0.211-0.364c-0.044-0.216,0.007-0.406,0.058-0.599C136.907,103.534,137.833,102.755,138.968,102.339z
			 M140.293,100.026c-0.53,0.064-1.008-0.062-1.24-0.329c-0.169-0.147-0.144-0.244-0.213-0.363
			c-0.044-0.217-0.019-0.312-0.038-0.626c0.132-0.886,1.081-1.762,2.048-2.325c0.703-0.326,1.597-0.602,2.411-0.59
			c0.722-0.016,1.415,0.066,2.087,0.245c-0.637,0.855-1.395,1.781-2.195,2.49C142.42,99.358,141.355,99.896,140.293,100.026z
			 M142.275,94.097c-0.556,0.16-1.059,0.131-1.294-0.139c-0.168-0.146-0.263-0.17-0.306-0.387c-0.073-0.122-0.119-0.339-0.067-0.532
			c0.039-0.91,0.846-2.028,1.839-2.688c0.63-0.447,1.454-0.844,2.32-1.023c0.649-0.136,1.492-0.221,2.188-0.138
			c-0.223,0.453-0.444,0.907-0.667,1.36c-0.247,0.55-0.593,1.071-1.029,1.568C144.213,92.97,143.266,93.847,142.275,94.097z
			 M143.132,87.768c-0.457,0.187-0.985,0.25-1.249,0.08c-0.262-0.173-0.403-0.417-0.491-0.85c-0.086-0.84,0.533-2.01,1.36-2.815
			c0.561-0.567,1.286-0.989,2.08-1.292c0.677-0.23,1.425-0.339,2.17-0.45c-0.279,1.054-0.774,2.151-1.314,3.033
			C144.998,86.521,144.076,87.301,143.132,87.768z M145.455,69.33c-0.182,1.077-0.461,2.131-0.836,3.157
			c-0.495,1.099-1.159,2.051-2.03,2.638c-0.486,0.282-0.919,0.373-1.204,0.297c-0.288-0.077-0.524-0.344-0.642-0.682
			c-0.18-0.868,0.124-2.017,0.786-2.968c0.492-0.69,1.148-1.232,1.873-1.656C144.034,69.668,144.708,69.438,145.455,69.33z
			 M143.984,62.894c-0.087,1.105-0.366,2.158-0.645,3.212c-0.401,1.123-1.062,2.072-1.937,2.663
			c-0.388,0.306-0.943,0.464-1.23,0.389c-0.285-0.076-0.551-0.248-0.636-0.681c-0.303-0.794,0.027-2.042,0.688-2.994
			c0.488-0.688,1.049-1.259,1.774-1.68C142.631,63.356,143.334,63.03,143.984,62.894z M142.288,56.916
			c-0.061,1.008-0.148,2.109-0.521,3.14c-0.401,1.121-0.993,2.195-1.77,2.807c-0.391,0.308-0.851,0.494-1.231,0.393
			c-0.289-0.077-0.549-0.249-0.64-0.682c-0.204-0.772,0.101-1.92,0.666-2.896c0.394-0.718,0.953-1.287,1.582-1.733
			C140.983,57.594,141.684,57.267,142.288,56.916z M138.673,64.767c0.193,0.051,0.409,0.005,0.625-0.041l0,0
			c-0.317,0.428-0.66,0.952-0.91,1.501c-0.16-0.555-0.225-1.083-0.385-1.638C138.17,64.737,138.455,64.812,138.673,64.767z
			 M137.401,66.479c-0.427-0.317-0.952-0.661-1.404-0.884c0.215-0.047,0.458-0.187,0.701-0.327c0.12-0.072,0.265-0.237,0.388-0.306
			C137.178,65.395,137.239,65.923,137.401,66.479z M135.812,63.189c0.091,0.435,0.016,0.721-0.229,0.863
			c-0.238,0.139-0.698,0.326-1.203,0.295c-1.008-0.063-1.985-0.628-2.936-1.291c-0.761-0.612-1.566-1.439-2.182-2.215
			c0.678-0.231,1.425-0.341,2.118-0.261c0.817,0.012,1.678,0.24,2.417,0.54C134.923,61.518,135.729,62.348,135.812,63.189z
			 M135.403,66.668c0.977,0.563,1.661,1.464,1.867,2.234c0.088,0.433-0.083,0.695-0.228,0.861c-0.241,0.141-0.701,0.329-1.182,0.202
			c-0.979-0.159-1.957-0.725-2.911-1.387c-0.76-0.612-1.469-1.413-2.058-2.288c0.651-0.133,1.398-0.246,2.117-0.257
			C133.829,66.044,134.69,66.272,135.403,66.668z M136.62,72.52c0.881,0.541,1.633,1.561,1.746,2.309
			c-0.009,0.407-0.084,0.691-0.229,0.861c-0.243,0.14-0.677,0.229-1.154,0.103c-0.982-0.157-1.935-0.818-2.766-1.55
			c-0.736-0.707-1.351-1.485-1.935-2.359c0.649-0.133,1.465-0.124,2.065-0.065C135.137,71.923,136,72.151,136.62,72.52z
			 M137.453,78.275c0.856,0.635,1.513,1.626,1.502,2.446c-0.005,0.407-0.081,0.694-0.322,0.835
			c-0.243,0.141-0.677,0.229-1.154,0.103c-0.957-0.253-1.91-0.915-2.618-1.717c-0.642-0.682-1.229-1.555-1.723-2.401
			c0.747-0.11,1.468-0.124,2.138,0.054C136.022,77.484,136.762,77.781,137.453,78.275z M137.73,84.185
			c0.83,0.732,1.298,1.676,1.191,2.468c-0.008,0.408-0.178,0.669-0.396,0.715c-0.241,0.141-0.65,0.136-1.104-0.088
			c-0.932-0.349-1.763-1.08-2.445-1.98c-0.614-0.777-1.105-1.624-1.479-2.543c0.721-0.013,1.416,0.07,2.087,0.247
			C136.421,83.326,137.137,83.72,137.73,84.185z M137.361,89.826c0.71,0.801,1.057,1.815,0.854,2.579
			c-0.102,0.385-0.274,0.647-0.489,0.69c-0.244,0.143-0.626,0.041-1.079-0.183c-0.785-0.516-1.59-1.344-2.18-2.217
			c-0.28-0.482-0.56-0.968-0.724-1.523c-0.113-0.335-0.3-0.796-0.415-1.134c0.694,0.081,1.366,0.259,2.034,0.436
			C136.227,88.703,136.82,89.17,137.361,89.826z M136.162,95.141c0.585,0.872,0.786,2.053,0.486,2.793
			c-0.101,0.382-0.246,0.55-0.561,0.567c-0.311,0.021-0.693-0.08-1.122-0.398c-0.427-0.319-0.734-0.706-1.016-1.192
			c-0.281-0.482-0.564-0.969-0.75-1.427c-0.373-0.918-0.598-2.001-0.654-2.939c0.669,0.177,1.313,0.451,1.936,0.819
			C135.169,93.854,135.713,94.51,136.162,95.141z M134.306,100.592c0.469,0.941,0.57,2.097,0.273,2.838
			c-0.195,0.355-0.343,0.523-0.655,0.542c-0.314,0.021-0.67-0.177-1.098-0.493c-0.334-0.295-0.616-0.779-0.898-1.263
			c-0.279-0.485-0.467-0.944-0.625-1.498c-0.252-0.988-0.404-1.952-0.44-2.984c0.646,0.271,1.292,0.546,1.883,1.011
			C133.341,99.21,133.885,99.865,134.306,100.592z M135.372,100.055c0.284,0.076,0.573,0.152,0.887,0.131
			c0.216-0.046,0.335-0.114,0.554-0.16l-0.675,1.768C135.908,101.117,135.651,100.538,135.372,100.055z M135.505,57.78
			c-0.122,0.072-0.218,0.046-0.383-0.102c-0.36-0.196-0.762-0.61-1.042-1.095c-0.563-0.967-0.979-2.101-1.058-3.353
			c-0.13-1.059-0.068-2.066,0.018-3.171c0.571,0.56,1.14,1.122,1.656,1.872c0.614,0.777,0.987,1.696,1.262,2.588
			c0.16,0.555,0.2,1.182,0.166,1.684c-0.03,0.504-0.183,1.079-0.354,1.339C135.626,57.711,135.602,57.805,135.505,57.78z
			 M23.824,81.061c0.537,1.062,1.074,2.128,1.371,3.332c0.365,1.328,0.419,2.674,0.209,3.848c-0.152,0.573-0.33,1.244-0.622,1.574
			c-0.146,0.169-0.292,0.333-0.389,0.308c-0.096-0.025-0.216,0.046-0.383-0.102c-0.357-0.196-0.735-0.706-0.895-1.26
			c-0.256-0.58-0.392-1.23-0.431-1.857c-0.128-1.059-0.042-2.163,0.236-3.214C23.054,82.802,23.403,81.87,23.824,81.061z
			 M31.117,90.265c-0.254,0.958-0.628,1.985-1.048,2.796c-0.248,0.549-0.566,0.977-0.979,1.38c-0.318,0.428-0.732,0.83-1.191,1.015
			c-0.364,0.212-0.918,0.373-1.084,0.226c-0.288-0.076-0.428-0.317-0.544-0.657c-0.206-0.771,0.195-1.894,0.831-2.75
			c0.465-0.594,1.121-1.137,1.918-1.438C29.695,90.605,30.371,90.375,31.117,90.265z M35.563,105.577
			c-0.006,0.412-0.01,0.818-0.042,1.321c-0.057,0.602-0.088,1.105-0.145,1.705c-0.183,1.077-0.653,2.08-1.265,2.841
			c-0.293,0.332-0.777,0.611-0.967,0.562c-0.096-0.026-0.193-0.052-0.383-0.102c-0.071-0.12-0.238-0.267-0.308-0.387
			c-0.422-0.727-0.43-1.856-0.081-2.789c0.3-0.74,0.789-1.431,1.445-1.973C34.353,106.281,34.958,105.931,35.563,105.577z
			 M38.162,110.467l0.174,1.276c0.064,0.528,0.009,1.128-0.022,1.631c-0.057,0.602-0.184,1.08-0.311,1.559
			c-0.152,0.574-0.375,1.028-0.667,1.36s-0.682,0.639-0.898,0.684c-0.312,0.019-0.478-0.126-0.715-0.394
			c-0.447-0.631-0.646-1.812-0.393-2.768c0.203-0.767,0.597-1.481,1.183-2.146C37.021,111.292,37.557,110.818,38.162,110.467z
			 M41.059,114.614c0.25,0.99,0.405,1.95,0.438,2.985c0.009,1.129-0.175,2.207-0.619,3.113c-0.223,0.453-0.585,0.665-0.804,0.711
			c-0.12,0.068-0.312,0.019-0.408-0.008c-0.095-0.024-0.261-0.17-0.332-0.291c-0.474-0.535-0.769-1.74-0.61-2.723
			c0.106-0.792,0.501-1.507,0.992-2.195C40.083,115.587,40.523,115.088,41.059,114.614z M44.439,118.481
			c0.211,0.363,0.301,0.796,0.392,1.229c0.159,0.556,0.32,1.109,0.384,1.64c0.227,1.084,0.138,2.188-0.211,3.119
			c-0.222,0.454-0.516,0.788-0.732,0.831c-0.218,0.045-0.504-0.03-0.861-0.229c-0.595-0.466-1.037-1.504-0.949-2.608
			c0.012-0.815,0.31-1.556,0.729-2.366C43.535,119.574,43.999,118.979,44.439,118.481z M45.582,126.159
			c0.038,0.626,0.078,1.252,0.309,1.926c-0.263-0.169-0.428-0.318-0.689-0.49c-0.333-0.292-0.595-0.463-0.926-0.757
			c0.215-0.044,0.311-0.019,0.458-0.187C45.141,126.658,45.409,126.422,45.582,126.159z M48.259,121.85
			c0.211,0.363,0.422,0.727,0.538,1.064l0,0c0.371,0.918,0.743,1.837,0.802,2.772c0.059,0.94-0.002,1.947-0.372,2.566
			c-0.197,0.355-0.414,0.401-0.605,0.351c-0.217,0.048-0.574-0.152-0.812-0.418c-0.594-0.466-0.965-1.383-1.05-2.227
			c-0.083-0.842,0.12-1.607,0.443-2.443C47.425,123.063,47.794,122.445,48.259,121.85z M34.854,120.245
			c0.268-0.236,0.49-0.689,0.591-1.071c0.308,0.387,0.544,0.656,0.851,1.043c0.071,0.122,0.141,0.243,0.236,0.269
			c-0.574-0.152-1.174-0.21-1.799-0.17l0,0C34.829,120.341,34.854,120.245,34.854,120.245z M39.142,124.557
			c0.172-0.263,0.248-0.55,0.324-0.837l1.303,1.269c-0.599-0.058-1.199-0.113-1.849,0.021l0,0
			C38.97,124.819,39.117,124.651,39.142,124.557z M43.905,127.459c0.333,0.291,0.595,0.462,0.927,0.757
			c0.261,0.17,0.427,0.318,0.689,0.487c-0.721,0.017-1.372,0.151-2.021,0.285c0,0,0,0-0.096-0.025
			c0.146-0.166,0.171-0.261,0.317-0.428C43.92,128.18,43.899,127.865,43.905,127.459z M41.333,122.474
			c-0.032,0.505-0.088,1.104-0.048,1.728l-1.113-1.216c0.096,0.025,0.218-0.046,0.313-0.021
			C40.823,122.852,41.065,122.711,41.333,122.474z M37.549,118.193c-0.152,0.573-0.184,1.078-0.144,1.703
			c-0.07-0.122-0.167-0.147-0.237-0.266c-0.211-0.364-0.543-0.659-0.779-0.925c0.096,0.025,0.216-0.045,0.312-0.02
			C36.944,118.545,37.308,118.335,37.549,118.193z M33.845,115.163c-0.071-0.12-0.071-0.12-0.141-0.241
			c-0.28-0.487-0.684-0.898-0.87-1.358c0.096,0.025,0.288,0.076,0.409,0.006c0.434-0.091,0.867-0.18,1.135-0.417
			c-0.025,0.096-0.146,0.165-0.197,0.358C34.053,113.989,33.901,114.562,33.845,115.163z M27.368,102.487L27.368,102.487
			l-0.121,0.068L27.368,102.487z M26.416,98.343c-0.089-0.435-0.179-0.866-0.365-1.327c0.095,0.025,0.262,0.173,0.357,0.197
			c0.287,0.076,0.6,0.057,0.913,0.037c-0.319,0.429-0.662,0.951-0.884,1.404C26.462,98.559,26.391,98.437,26.416,98.343z
			 M25.428,98.593c0.072,0.119,0.046,0.217,0.116,0.337c-0.523-0.344-1.047-0.688-1.5-0.909l0,0c0.12-0.07,0.338-0.116,0.458-0.185
			c0.242-0.143,0.484-0.283,0.656-0.545C25.249,97.726,25.338,98.157,25.428,98.593z M26.808,103.055l0.622,1.905
			c-0.523-0.343-1.073-0.589-1.647-0.741c-0.191-0.051-0.382-0.101-0.574-0.151c0.313-0.021,0.554-0.162,0.918-0.373
			C26.394,103.457,26.662,103.22,26.808,103.055z M30.748,109.835c-0.281-0.482-0.466-0.944-0.749-1.427
			c0.096,0.025,0.192,0.051,0.383,0.102c0.313-0.021,0.624-0.039,0.868-0.182C31.026,108.782,30.804,109.236,30.748,109.835z
			 M29.177,108.806c0.256,0.579,0.442,1.038,0.724,1.523c-0.548-0.248-1.098-0.498-1.698-0.552c0,0,0,0-0.095-0.025
			c0.121-0.073,0.362-0.212,0.484-0.284C28.833,109.328,29.006,109.065,29.177,108.806z M32.451,113.462L32.451,113.462
			l-0.242,0.141L32.451,113.462z M33.661,100.774c-0.005,0.406-0.037,0.91-0.138,1.293c-0.152,0.573-0.209,1.175-0.336,1.653
			c-0.279,1.054-0.843,2.028-1.552,2.765c-0.388,0.306-0.751,0.518-1.038,0.441c-0.192-0.051-0.454-0.223-0.664-0.584
			c-0.327-0.703-0.24-1.808,0.327-2.781c0.394-0.716,0.955-1.286,1.611-1.829C32.284,101.329,32.984,101.003,33.661,100.774z
			 M29.091,102.943c-0.319,0.427-0.566,0.975-0.814,1.525l-0.646-1.812c0.096,0.025,0.191,0.051,0.287,0.076
			c0.503,0.033,0.912,0.038,1.276-0.174C29.263,102.681,29.237,102.778,29.091,102.943z M32.102,95.442
			c-0.158,0.982-0.411,1.938-0.761,2.872c-0.47,1.002-1.037,1.979-1.812,2.592c-0.39,0.308-0.823,0.398-1.111,0.322
			c-0.095-0.025-0.287-0.076-0.357-0.197c-0.07-0.122-0.141-0.242-0.21-0.364c-0.206-0.771,0.002-1.943,0.639-2.802
			c0.489-0.688,1.05-1.257,1.777-1.679C30.75,95.904,31.426,95.674,32.102,95.442z M23.926,96.146
			c-0.051,0.191-0.172,0.262-0.294,0.332c-0.267,0.237-0.771,0.205-1.275,0.174c-1.078-0.184-2.004-0.941-2.784-1.864
			c-0.709-0.804-1.369-1.796-1.836-2.739c0.747-0.11,1.467-0.123,2.137,0.055c0.887,0.132,1.627,0.431,2.317,0.92
			c0.952,0.662,1.706,1.681,1.791,2.523C24.027,95.763,23.977,95.953,23.926,96.146z M23.548,99.119
			c0.977,0.565,1.853,1.516,2.031,2.382c0.091,0.433,0.015,0.721-0.228,0.86c-0.267,0.237-0.796,0.301-1.301,0.271
			c-1.079-0.186-2.08-0.655-2.982-1.506c-0.735-0.707-1.514-1.633-2.077-2.601c0.651-0.135,1.493-0.218,2.188-0.138
			C21.997,98.4,22.737,98.698,23.548,99.119z M25.408,105.244c1.002,0.472,1.999,1.35,2.3,2.146c0.09,0.436,0.04,0.626-0.132,0.889
			c-0.269,0.237-0.727,0.422-1.231,0.391c-1.104-0.087-2.227-0.487-3.153-1.243c-0.856-0.64-1.662-1.465-2.345-2.366
			c0.676-0.229,1.421-0.339,2.143-0.352C23.902,104.745,24.692,104.851,25.408,105.244z M25.404,110.674
			c0.841-0.085,1.658-0.072,2.495,0.25c1.124,0.4,2.17,1.087,2.568,1.911c0.115,0.336,0.134,0.649-0.038,0.912
			c-0.171,0.262-0.63,0.446-1.16,0.511c-1.033,0.035-2.183-0.27-3.23-0.957c-0.523-0.344-1.047-0.687-1.475-1.005
			c-0.331-0.295-0.735-0.707-1.041-1.096C24.007,110.918,24.684,110.688,25.404,110.674z M31.497,114.746
			c0.146-0.166,0.318-0.429,0.393-0.714c0.282,0.483,0.563,0.967,0.941,1.478c0.07,0.119,0.07,0.119,0.141,0.241
			c-0.575-0.152-1.148-0.304-1.749-0.359c-0.192-0.051-0.408-0.007-0.6-0.058C30.962,115.219,31.229,114.982,31.497,114.746z
			 M31.136,116.494c0.67,0.178,1.435,0.38,1.934,0.819c0.524,0.344,0.901,0.854,0.895,1.262l-0.025,0.096
			c0.045,0.217-0.005,0.408-0.152,0.575c-0.146,0.166-0.509,0.377-0.847,0.492c-0.675,0.231-1.493,0.221-2.258,0.018
			c-0.767-0.203-1.602-0.528-2.292-1.019c-0.619-0.368-1.213-0.833-1.807-1.298c0.605-0.353,1.306-0.678,2.052-0.787
			C29.432,116.35,30.344,116.388,31.136,116.494z M34.837,121.469c1.2,0.115,2.297,0.608,2.815,1.362
			c0.307,0.39,0.352,0.604,0.155,0.962c-0.171,0.262-0.561,0.57-1.115,0.729c-1.014,0.348-2.213,0.233-3.338-0.165
			c-1.026-0.375-2.029-0.845-2.98-1.509c0.242-0.141,0.51-0.377,0.751-0.517c0.364-0.212,0.822-0.395,1.161-0.513
			C33.083,121.517,33.925,121.434,34.837,121.469z M36.543,126.634c0.821-0.396,1.594-0.603,2.41-0.591
			c1.129-0.008,2.469,0.348,3.013,1.003c0.333,0.292,0.352,0.605,0.276,0.893s-0.49,0.689-0.95,0.876
			c-1.039,0.441-2.193,0.546-3.342,0.241c-1.053-0.278-2.082-0.653-3.178-1.148C35.333,127.336,35.938,126.985,36.543,126.634z
			 M43.725,130.072c1.181-0.2,2.475-0.061,3.139,0.526c0.333,0.291,0.474,0.534,0.373,0.917c-0.101,0.382-0.394,0.714-0.879,0.996
			c-0.872,0.589-2.148,0.763-3.347,0.649c-0.6-0.055-1.295-0.138-1.774-0.265c-0.479-0.127-0.957-0.254-1.41-0.475
			c0.465-0.596,1-1.067,1.605-1.42C42.182,130.483,42.979,130.182,43.725,130.072z M28.802,44.474
			c0.593,0.465,1.066,1.001,1.539,1.535c0.518,0.752,0.844,1.454,0.928,2.294c0.225,1.084-0.008,2.356-0.498,3.044
			c-0.293,0.333-0.535,0.474-0.823,0.397c-0.286-0.076-0.714-0.394-1.021-0.783c-0.588-0.875-0.788-2.053-0.772-3.277
			C28.244,46.581,28.523,45.527,28.802,44.474z M28.918,53.315c-0.045-0.216-0.212-0.363-0.256-0.58
			c0.263,0.17,0.523,0.343,0.906,0.445c0.288,0.076,0.504,0.03,0.792,0.106c-0.369,0.621-0.714,1.145-0.986,1.79
			C29.239,54.425,29.175,53.896,28.918,53.315z M32.476,48.007C32.476,48.007,32.379,47.981,32.476,48.007
			c0.191,0.051,0.358,0.198,0.549,0.249c0.191,0.051,0.478,0.126,0.792,0.106c-0.345,0.524-0.663,0.953-0.981,1.38
			C32.675,49.188,32.635,48.564,32.476,48.007z M36.192,43.256c-0.044-0.217-0.115-0.337-0.16-0.555
			c0.236,0.269,0.499,0.439,0.856,0.637c0.19,0.051,0.479,0.127,0.669,0.177c-0.439,0.498-0.878,0.997-1.318,1.495
			C36.392,44.436,36.354,43.81,36.192,43.256z M34.665,49.409c0.141,0.242,0.282,0.483,0.544,0.656
			c-0.529,0.064-1.059,0.128-1.614,0.289c0.319-0.428,0.637-0.855,0.956-1.283C34.55,49.071,34.595,49.287,34.665,49.409z
			 M28.495,59.555c0.236,0.267,0.498,0.439,0.76,0.612c-0.554,0.159-1.013,0.345-1.498,0.628c0.223-0.453,0.375-1.028,0.597-1.482
			C28.449,59.338,28.424,59.433,28.495,59.555z M26.07,66.389l0.431-1.626c0.07,0.123,0.07,0.123,0.142,0.242
			c0.332,0.294,0.593,0.465,0.881,0.541C27.064,65.732,26.484,65.987,26.07,66.389z M31.356,54.166
			c0.211,0.364,0.543,0.656,0.901,0.854c-0.096-0.025-0.217,0.046-0.312,0.021c-0.529,0.062-1.18,0.2-1.639,0.384
			c0.344-0.524,0.592-1.072,0.935-1.594C31.312,53.949,31.287,54.044,31.356,54.166z M38.504,44.586
			c0.211,0.361,0.422,0.727,0.78,0.923c-0.096-0.025-0.288-0.076-0.408-0.007c-0.504-0.03-1.129,0.011-1.683,0.169
			c0.438-0.499,0.757-0.927,1.195-1.424C38.363,44.342,38.434,44.465,38.504,44.586z M30.793,53.198l0.166,0.146L30.793,53.198
			L30.793,53.198z M26.825,60.444c-0.161-0.555-0.417-1.134-0.698-1.62c0,0-0.096-0.025-0.071-0.12
			c0.191,0.051,0.383,0.102,0.479,0.127c0.288,0.076,0.599,0.055,0.843-0.085C27.2,59.417,26.952,59.966,26.825,60.444z
			 M25.544,64.509l-0.362,1.749c-0.256-0.58-0.537-1.063-0.914-1.574l0,0c0.096,0.025,0.192,0.051,0.287,0.076
			C24.868,64.741,25.205,64.624,25.544,64.509z M24.905,72.331l0.292-1.87c0.165,0.148,0.236,0.267,0.402,0.414
			c0.262,0.174,0.548,0.25,0.836,0.326C25.855,71.456,25.346,71.833,24.905,72.331z M26.998,72.169
			c0.631-0.448,1.428-0.748,2.27-0.833c0.747-0.11,1.442-0.029,2.138,0.054c-0.541,0.88-1.178,1.736-1.859,2.375
			c-0.414,0.402-0.802,0.709-1.287,0.992c-0.484,0.28-0.968,0.562-1.402,0.653c-0.434,0.088-0.938,0.058-1.199-0.114
			c-0.262-0.17-0.307-0.39-0.302-0.796C25.463,73.708,26.125,72.755,26.998,72.169z M29.104,69.244
			c-0.484,0.281-1.039,0.442-1.473,0.53c-0.529,0.065-0.912-0.037-1.174-0.207c-0.262-0.173-0.307-0.388-0.206-0.771
			c0.107-0.792,0.865-1.719,1.808-2.185c0.701-0.327,1.498-0.627,2.314-0.618c0.721-0.014,1.417,0.068,2.087,0.245
			c-0.637,0.857-1.248,1.617-2.025,2.231C30.048,68.775,29.563,69.058,29.104,69.244z M28.791,64.242
			c-0.504-0.03-0.887-0.131-1.028-0.373c-0.166-0.148-0.187-0.458-0.084-0.842c0.203-0.767,1.004-1.475,2.019-1.822
			c0.771-0.204,1.614-0.291,2.405-0.183c0.695,0.083,1.34,0.355,1.985,0.627c-0.292,0.333-0.656,0.544-0.923,0.779
			c-0.484,0.283-0.898,0.685-1.383,0.968C30.837,63.863,29.728,64.184,28.791,64.242z M30.758,59.13
			c-0.504-0.032-0.861-0.228-1.001-0.47c-0.141-0.245-0.161-0.555,0.011-0.819c0.395-0.713,1.293-1.398,2.255-1.552
			c0.772-0.207,1.563-0.098,2.425,0.13c0.669,0.177,1.315,0.449,1.933,0.82c-0.776,0.612-1.624,1.106-2.542,1.478
			C32.826,59.062,31.742,59.287,30.758,59.13z M33.64,54.054c-0.479-0.126-0.836-0.323-0.951-0.663
			c-0.141-0.241-0.065-0.529,0.132-0.885c0.394-0.716,1.458-1.253,2.518-1.382c0.841-0.085,1.632,0.024,2.373,0.321
			c0.646,0.272,1.264,0.643,1.883,1.011c-0.847,0.492-1.792,0.961-2.683,1.237C35.776,54.107,34.597,54.308,33.64,54.054z
			 M37.019,49.417c-0.478-0.127-0.81-0.421-0.951-0.661c-0.044-0.218-0.065-0.529,0.229-0.863c0.49-0.689,1.529-1.131,2.658-1.14
			c0.816,0.013,1.608,0.119,2.419,0.538c0.644,0.273,1.263,0.642,1.761,1.082c-0.943,0.469-1.861,0.838-2.85,1.089
			C39.106,49.663,37.952,49.768,37.019,49.417z M40.807,44.788c-0.453-0.224-0.785-0.518-0.926-0.76
			c-0.045-0.215-0.064-0.529,0.228-0.86c0.465-0.593,1.6-1.011,2.729-1.017c0.817,0.009,1.583,0.212,2.393,0.633
			c0.645,0.272,1.239,0.737,1.713,1.271c-0.944,0.468-1.958,0.813-2.921,0.969C42.964,45.152,41.738,45.135,40.807,44.788z
			 M44.806,40.519c-0.454-0.223-0.785-0.517-0.901-0.853c-0.045-0.219,0.031-0.504,0.229-0.861c0.561-0.57,1.695-0.986,2.799-0.898
			c0.791,0.107,1.557,0.31,2.368,0.729c0.619,0.368,1.214,0.833,1.711,1.273c-0.918,0.372-1.932,0.719-2.99,0.848
			C46.816,41.051,45.712,40.964,44.806,40.519z M42.503,40.318c0.14,0.242,0.282,0.483,0.447,0.631
			c-0.504-0.03-1.103-0.088-1.658,0.073c0.413-0.402,0.732-0.831,1.121-1.137C42.388,39.98,42.433,40.196,42.503,40.318z
			 M40.437,40.386c0.056-0.601,0.017-1.227-0.048-1.756l0,0c0.166,0.147,0.332,0.294,0.524,0.345
			c0.19,0.051,0.479,0.127,0.669,0.177C41.168,39.555,40.849,39.983,40.437,40.386z M42.402,37.219
			c-0.292,0.332-0.605,0.352-0.894,0.276c-0.286-0.076-0.592-0.465-0.874-0.951c-0.468-0.941-0.45-2.167-0.146-3.315
			c0.254-0.958,0.629-1.986,1.098-2.987c0.474,0.535,0.826,1.14,1.057,1.816c0.301,0.797,0.507,1.567,0.52,2.29
			C43.267,35.501,43.059,36.674,42.402,37.219z M39.234,38.734c0.104,1.154-0.322,2.376-0.881,2.942
			c-0.293,0.333-0.605,0.352-0.893,0.275c-0.287-0.076-0.69-0.488-0.876-0.946c-0.467-0.946-0.45-2.17-0.363-3.272
			c0.183-1.079,0.558-2.107,1.028-3.11c0.473,0.537,0.946,1.071,1.298,1.676C38.944,37.12,39.246,37.919,39.234,38.734z
			 M35.013,43.455c0.103,1.155-0.105,2.331-0.786,2.967c-0.293,0.333-0.51,0.377-0.893,0.276c-0.288-0.076-0.715-0.392-0.902-0.852
			c-0.466-0.944-0.666-2.124-0.458-3.297c0.183-1.079,0.462-2.131,0.836-3.159c0.5,0.438,1.042,1.094,1.394,1.699
			C34.724,41.842,34.928,42.615,35.013,43.455z M27.784,53.731c0.32,1.109,0.278,2.432-0.212,3.12
			c-0.197,0.357-0.44,0.499-0.848,0.494c-0.312,0.018-0.74-0.299-1.048-0.688c-0.684-0.897-1.004-2.007-0.987-3.232
			c-0.033-1.034,0.079-2.232,0.358-3.286c0.62,0.369,1.214,0.834,1.661,1.464C27.182,52.139,27.579,52.96,27.784,53.731z
			 M25.088,59.266c0.442,1.04,0.591,2.411,0.268,3.246c-0.051,0.193-0.199,0.358-0.319,0.43c-0.121,0.069-0.242,0.141-0.458,0.184
			c-0.312,0.021-0.862-0.229-1.194-0.521c-0.831-0.731-1.221-1.963-1.421-3.143c-0.135-0.649-0.2-1.178-0.119-1.873
			c0.031-0.504,0.062-1.008,0.093-1.512c0.646,0.272,1.24,0.737,1.833,1.202C24.244,57.813,24.761,58.566,25.088,59.266z
			 M21.473,63.635c0.69,0.491,1.354,1.077,1.802,1.708c0.659,0.992,0.954,2.198,0.63,3.035c-0.051,0.192-0.197,0.356-0.345,0.522
			c-0.121,0.071-0.242,0.142-0.362,0.211c-0.339,0.115-0.792-0.106-1.245-0.33c-0.856-0.635-1.515-1.63-1.836-2.738
			c-0.346-1.015-0.571-2.099-0.674-3.254C20.234,62.898,20.878,63.17,21.473,63.635z M22.085,71.38
			c0.684,0.897,1.075,2.128,0.873,2.892c-0.051,0.194-0.102,0.384-0.249,0.551c-0.121,0.071-0.146,0.167-0.363,0.21
			c-0.337,0.116-0.816-0.011-1.271-0.233c-0.881-0.541-1.66-1.466-2.077-2.6c-0.467-0.944-0.692-2.027-0.917-3.111
			c0.669,0.177,1.435,0.38,2.054,0.749C20.973,70.163,21.637,70.749,22.085,71.38z M23.008,70.599L23.008,70.599
			c0.095,0.025,0.313-0.019,0.529-0.065c0.312-0.018,0.651-0.136,0.893-0.275l0,0l-0.219,1.99
			C23.859,71.644,23.411,71.012,23.008,70.599z M47.363,32.796c0.222-0.453,0.663-0.952,0.981-1.379
			c0.682-0.639,1.458-1.254,2.377-1.625c0.7-0.327,1.498-0.628,2.363-0.807c-0.375,1.029-0.914,1.91-1.551,2.766
			c-0.662,0.952-1.611,1.826-2.58,2.389c-0.483,0.281-1.039,0.44-1.447,0.437c-0.191-0.051-0.383-0.101-0.383-0.101
			c-0.071-0.123-0.071-0.123-0.141-0.243C46.989,33.822,47.141,33.25,47.363,32.796z M124.514,137.95
			c-10.823,7.993-24.078,12.778-37.518,13.622c12.916-1.188,25.518-5.841,35.884-13.646c13.979-10.23,23.975-25.919,27.167-43
			c3.289-17.057,0.036-35.334-9.271-50.091c-9.185-14.831-24.188-25.87-41.035-30.333l-0.19-0.05l0,0
			C82.702,9.99,64.202,12.156,48.88,20.495C33.49,28.711,21.616,42.981,16.031,59.43c-5.778,16.396-4.859,34.976,2.318,50.81
			c5.142,11.913,13.79,22.194,24.423,29.619c-11.259-7.386-20.405-18.104-25.854-30.407c-7.267-16.268-7.962-35.3-2.013-51.959
			c5.784-16.807,18.255-31.02,33.907-39.062c15.609-8.264,34.373-10.258,51.315-5.771l0,0l0,0l0,0
			c16.968,4.393,32.261,15.509,41.731,30.416c9.591,14.833,13.395,33.356,10.124,50.725
			C148.907,111.22,138.878,127.412,124.514,137.95z"/>
		<path fill="#FF87AC" d="M70.168,37.198l8.615,2.282c0.192,0.051,0.313-0.021,0.364-0.212l1.188-2.553
			c0.025-0.097,0.051-0.193-0.019-0.312c-0.07-0.122-0.167-0.147-0.262-0.173l-0.095-0.025c-0.096-0.025-0.218,0.045-0.313,0.02
			c-1.458,1.251-2.038,1.508-3.761,1.052l-3.063-0.812l1.166-4.403l2.202,0.583c1.148,0.304,1.34,0.355,1.463,1.823
			c-0.025,0.094,0.14,0.241,0.237,0.267l0.095,0.025c0.191,0.05,0.313-0.021,0.363-0.211l0.989-3.733
			c0.051-0.191-0.02-0.313-0.211-0.364l-0.095-0.025c-0.097-0.026-0.313,0.02-0.338,0.117c-0.833,1.212-1.025,1.161-2.173,0.857
			l-2.202-0.583l1.065-4.021l2.68,0.71c1.723,0.457,1.979,1.037,2.727,2.466c0.07,0.122,0.166,0.147,0.166,0.147l0.096,0.025
			c0.095,0.025,0.191,0.05,0.312-0.021c0.123-0.071,0.148-0.167,0.173-0.262l0.084-2.641c0.051-0.192-0.114-0.338-0.333-0.293
			c-0.191-0.05-0.504-0.029-0.983-0.156l-7.178-1.901c-0.192-0.051-0.312,0.019-0.363,0.209l-0.026,0.097
			c-0.025,0.097,0.045,0.217,0.115,0.336c0.569,0.562,0.734,0.708,0.481,1.666l-2.079,7.85c-0.253,0.957-0.469,1-1.242,1.207
			c-0.121,0.072-0.242,0.141-0.267,0.237l-0.025,0.097C69.811,36.999,69.978,37.147,70.168,37.198z"/>
		<path fill="#FF87AC" d="M80.412,39.911l3.062,0.811c0.193,0.051,0.314-0.021,0.364-0.211l0.025-0.097
			c0.025-0.094-0.019-0.312-0.115-0.338c-0.428-0.318-0.761-0.611-0.709-0.804c0.024-0.095,0.075-0.286,0.343-0.522l1.516-1.852
			l4.786,1.268l0.399,2.358c0.09,0.435,0.064,0.529,0.039,0.623c-0.025,0.097-0.051,0.193-0.917,0.373
			c-0.121,0.071-0.243,0.142-0.268,0.236l-0.025,0.097c-0.051,0.19,0.02,0.313,0.21,0.364l3.255,0.862
			c0.191,0.05,0.313-0.021,0.364-0.212l0.025-0.096c0.025-0.095-0.046-0.217-0.021-0.313c-0.543-0.656-0.684-0.898-0.909-1.981
			l-1.984-11.077c-0.069-0.12-0.14-0.242-0.235-0.268l-0.095-0.025c-0.097-0.026-0.218,0.046-0.338,0.115l-7.207,8.643
			c-0.612,0.761-0.974,0.971-1.867,1.247c-0.121,0.071-0.147,0.167-0.172,0.262l-0.025,0.096
			C80.149,39.737,80.22,39.86,80.412,39.911z M88.686,32.267l0.754,4.5l-3.638-0.963L88.686,32.267z"/>
		<path fill="#FF87AC" d="M98.547,44.918c2.396,0.635,4.57-0.224,5.776-2.465c0.051-0.191,0.076-0.288-0.09-0.432l-0.261-0.173
			c-0.167-0.147-0.289-0.077-0.436,0.088c-1.343,1.592-2.599,2.077-4.415,1.596c-2.011-0.533-3.808-2.646-2.945-5.901
			c0.786-2.967,2.919-4.45,5.409-3.791c1.435,0.38,2.189,1.398,2.786,3.401c0.071,0.122,0.142,0.243,0.238,0.268l0.093,0.024
			c0.192,0.051,0.315-0.018,0.367-0.211l0.887-3.349c0.052-0.194-0.021-0.313-0.215-0.365l-0.092-0.024
			c-0.097-0.025-0.193-0.051-0.218,0.043l-0.851,0.494c-0.636-0.68-1.519-1.222-2.57-1.5c-3.544-0.939-6.717,0.985-7.681,4.625
			C93.299,40.764,95.007,43.981,98.547,44.918z"/>
		<path fill="#FF87AC" d="M104.631,46.326l3.253,0.861c0.193,0.051,0.315-0.021,0.365-0.211l0.025-0.097
			c0.025-0.094-0.045-0.217-0.118-0.339c-0.566-0.56-0.732-0.706-0.479-1.663l0.913-3.446l6.7,1.775l-0.913,3.446
			c-0.253,0.958-0.47,1.003-1.243,1.208c-0.121,0.071-0.241,0.143-0.267,0.237l-0.025,0.096c-0.051,0.191,0.019,0.313,0.211,0.364
			l3.253,0.861c0.192,0.051,0.316-0.02,0.367-0.211l0.025-0.096c0.025-0.094-0.048-0.217-0.118-0.339
			c-0.567-0.56-0.732-0.706-0.479-1.664l2.078-7.849c0.254-0.957,0.471-1.003,1.24-1.208c0.121-0.071,0.245-0.142,0.27-0.235
			l0.025-0.095c0.052-0.193-0.021-0.316-0.214-0.367l-3.253-0.861c-0.192-0.051-0.312,0.021-0.364,0.214l-0.024,0.095
			c-0.025,0.094,0.044,0.215,0.114,0.337c0.571,0.56,0.736,0.708,0.482,1.665l-0.836,3.159l-6.701-1.775l0.837-3.159
			c0.253-0.957,0.47-1.003,1.239-1.208c0.124-0.071,0.245-0.142,0.271-0.235l0.025-0.095c0.051-0.193-0.02-0.315-0.213-0.367
			l-3.253-0.861c-0.192-0.051-0.312,0.021-0.363,0.214l-0.025,0.095c-0.024,0.094,0.044,0.215,0.113,0.337
			c0.57,0.56,0.735,0.708,0.482,1.665l-2.079,7.849c-0.254,0.958-0.47,1.003-1.243,1.208c-0.12,0.071-0.24,0.143-0.265,0.237
			l-0.026,0.096C104.37,46.153,104.533,46.3,104.631,46.326z"/>
		<path fill="#FF87AC" d="M54.061,51.986l3.637,0.963c0.192,0.051,0.313-0.021,0.365-0.214l0.025-0.094
			c0.026-0.096-0.02-0.312-0.116-0.338c-0.951-0.661-1.09-0.905-0.862-1.766l0.862-3.255l2.201,0.583
			c1.148,0.304,1.34,0.355,1.463,1.823c-0.025,0.094,0.141,0.241,0.237,0.267l0.095,0.025c0.192,0.051,0.312-0.021,0.363-0.21
			l0.989-3.734c0.051-0.191-0.019-0.313-0.21-0.364l-0.096-0.025c-0.096-0.025-0.313,0.021-0.338,0.117
			c-0.833,1.212-1.025,1.161-2.173,0.857l-2.201-0.583l1.115-4.21l2.68,0.71c1.723,0.456,1.979,1.036,2.728,2.461
			c0.07,0.122,0.167,0.147,0.167,0.147l0.095,0.025c0.096,0.025,0.19,0.051,0.312-0.02c0.121-0.069,0.146-0.164,0.171-0.26
			l0.085-2.641c0.05-0.191-0.115-0.338-0.333-0.292c-0.191-0.051-0.503-0.033-0.981-0.16l-7.179-1.901
			c-0.192-0.051-0.313,0.021-0.364,0.212l-0.025,0.097c-0.025,0.094,0.044,0.216,0.115,0.337c0.569,0.56,0.734,0.707,0.481,1.664
			l-2.079,7.849c-0.253,0.957-0.47,1.003-1.242,1.208c-0.122,0.071-0.242,0.143-0.267,0.236l-0.025,0.094
			C53.799,51.813,53.87,51.936,54.061,51.986z"/>
		<path fill="#FF87AC" d="M69.614,56.308c3.446,0.913,6.62-1.011,7.583-4.648c0.964-3.639-0.841-6.882-4.288-7.795
			c-3.446-0.913-6.62,1.012-7.583,4.651C64.389,52.058,66.168,55.395,69.614,56.308z M72.555,45.205
			c2.394,0.634,3.514,2.979,2.728,5.947c-0.76,2.871-2.919,4.45-5.313,3.816c-2.393-0.634-3.513-2.978-2.727-5.946
			C68.028,46.055,70.066,44.546,72.555,45.205z"/>
		<path fill="#FF87AC" d="M76.831,57.299c-0.122,0.071-0.242,0.14-0.268,0.236l-0.025,0.094c-0.051,0.193,0.019,0.315,0.21,0.366
			l3.255,0.862c0.191,0.051,0.313-0.021,0.364-0.214l0.025-0.094c0.025-0.096-0.046-0.216-0.116-0.338
			c-0.568-0.56-0.734-0.708-0.481-1.665l0.837-3.16l2.106,0.558c1.532,0.406,1.763,1.082,1.814,2.43l0.099,1.563
			c0.06,0.936,0.079,1.249,0.284,2.021c0.071,0.121,0.141,0.243,0.237,0.269l2.297,0.608c0.191,0.051,0.313-0.021,0.364-0.213
			l0.025-0.094c0.025-0.097-0.021-0.312-0.116-0.338c-0.857-0.636-1.26-1.05-1.363-2.205l-0.002-1.538
			c-0.034-1.033-0.359-1.734-0.929-2.295c1.347-0.053,2.626-0.635,3.108-2.454c0.558-2.105-0.738-3.782-3.706-4.568l-4.883-1.293
			c-0.19-0.051-0.312,0.02-0.363,0.213l-0.025,0.094c-0.025,0.097,0.045,0.216,0.116,0.339c0.568,0.559,0.734,0.706,0.48,1.664
			l-2.079,7.849C77.818,57.047,77.602,57.094,76.831,57.299z M82.127,47.741l2.394,0.634c1.818,0.481,2.598,1.405,2.218,2.84
			c-0.406,1.533-1.444,1.974-3.358,1.466l-2.394-0.634L82.127,47.741z"/>
		<path fill="#FF87AC" d="M99.926,63.312c-0.12,0.072-0.242,0.143-0.267,0.237l-0.025,0.097c-0.051,0.191,0.02,0.313,0.209,0.363
			l3.259,0.863c0.187,0.049,0.31-0.021,0.36-0.212l0.026-0.097c0.024-0.094-0.048-0.216-0.022-0.314
			c-0.542-0.655-0.682-0.896-0.908-1.98l-1.983-11.077c-0.069-0.12-0.138-0.241-0.234-0.267l-0.099-0.026
			c-0.096-0.025-0.214,0.047-0.335,0.116l-7.207,8.643c-0.61,0.761-0.977,0.97-1.868,1.246c-0.122,0.072-0.147,0.168-0.172,0.262
			l-0.026,0.096c-0.051,0.192,0.021,0.313,0.213,0.364l3.061,0.811c0.194,0.051,0.316-0.019,0.367-0.21l0.025-0.096
			c0.025-0.095-0.02-0.313-0.116-0.339c-0.429-0.318-0.76-0.61-0.709-0.801c0.025-0.096,0.076-0.288,0.343-0.524l1.515-1.852
			l4.786,1.268l0.399,2.359c0.091,0.435,0.066,0.53,0.041,0.626C100.794,63.133,100.768,63.23,99.926,63.312z M96.428,57.571
			l2.881-3.539l0.756,4.501L96.428,57.571z"/>
		<path fill="#FF87AC" d="M109.912,65.445l-2.68-0.709l2.333-8.806c0.253-0.958,0.47-1.003,1.241-1.208
			c0.122-0.072,0.243-0.14,0.269-0.237l0.025-0.094c0.051-0.194-0.021-0.315-0.213-0.366l-3.253-0.861
			c-0.194-0.052-0.314,0.019-0.365,0.213l-0.025,0.094c-0.025,0.097,0.044,0.216,0.114,0.338c0.571,0.56,0.734,0.706,0.481,1.664
			l-2.079,7.849c-0.254,0.958-0.468,1.003-1.241,1.208c-0.122,0.072-0.242,0.143-0.267,0.237l-0.026,0.096
			c-0.051,0.192,0.019,0.312,0.213,0.364l8.23,2.18c0.194,0.052,0.313-0.019,0.364-0.211l1.36-2.815
			c0.025-0.094,0.051-0.191-0.019-0.312c-0.07-0.122-0.167-0.147-0.263-0.173l0,0c-0.095-0.025-0.217,0.046-0.336,0.117
			C112.24,65.55,111.636,65.902,109.912,65.445z"/>
		<path fill="#FF87AC" d="M114.464,67.985l8.233,2.181c0.191,0.05,0.312-0.021,0.362-0.214l1.362-2.815
			c0.024-0.094,0.05-0.189-0.021-0.311c-0.07-0.122-0.167-0.147-0.261-0.172l-0.097-0.025c-0.097-0.025-0.216,0.046-0.338,0.117
			c-1.508,1.442-2.21,1.768-3.933,1.312l-2.49-0.66l2.333-8.806c0.254-0.957,0.472-1.003,1.243-1.207
			c0.12-0.072,0.239-0.141,0.265-0.238l0.025-0.095c0.051-0.193-0.018-0.314-0.209-0.365l-3.255-0.862
			c-0.19-0.05-0.312,0.02-0.363,0.213l-0.025,0.095c-0.025,0.097,0.046,0.216,0.116,0.339c0.565,0.558,0.732,0.706,0.479,1.663
			l-2.079,7.849c-0.254,0.957-0.472,1.002-1.239,1.208c-0.122,0.072-0.244,0.142-0.269,0.237l-0.025,0.096
			C114.203,67.812,114.273,67.935,114.464,67.985z"/>
		<path fill="#FF87AC" d="M58.474,69.748l-1.983-11.077c-0.07-0.12-0.142-0.242-0.237-0.268l-0.096-0.025
			c-0.095-0.025-0.216,0.045-0.338,0.115l-7.206,8.643c-0.612,0.761-0.975,0.973-1.868,1.249c-0.122,0.071-0.146,0.165-0.172,0.261
			l-0.025,0.095c-0.05,0.19,0.02,0.312,0.211,0.363l3.063,0.812c0.191,0.051,0.313-0.021,0.364-0.211l0.025-0.095
			c0.025-0.096-0.021-0.312-0.116-0.338c-0.427-0.32-0.76-0.612-0.709-0.804c0.05-0.19,0.076-0.287,0.345-0.524l1.514-1.851
			l4.786,1.268l0.4,2.358c0.09,0.436,0.065,0.529,0.04,0.626c-0.026,0.097-0.051,0.191-0.918,0.373
			c-0.096-0.025-0.243,0.14-0.269,0.236l-0.025,0.095c-0.05,0.19,0.021,0.313,0.212,0.364l3.255,0.862
			c0.19,0.05,0.312-0.021,0.362-0.212l0.025-0.095c0.025-0.096-0.045-0.216-0.019-0.312C58.865,70.979,58.699,70.832,58.474,69.748z
			 M52.369,64.956l2.883-3.54l0.753,4.503L52.369,64.956z"/>
		<path fill="#FF87AC" d="M63.806,73.21l0.025-0.096c0.025-0.094-0.045-0.216-0.115-0.337l-0.096-0.026
			c-0.568-0.56-0.83-0.732-0.602-1.593l2.029-7.66l5.167,11.819c0.069,0.122,0.166,0.148,0.262,0.173
			c0.191,0.05,0.312-0.021,0.363-0.212l2.611-9.86c0.228-0.861,0.541-0.881,1.312-1.085l0.096,0.025
			c0.122-0.071,0.242-0.143,0.268-0.239l0.025-0.095c0.051-0.19-0.019-0.312-0.21-0.363l-3.16-0.837
			c-0.191-0.051-0.312,0.021-0.362,0.211l-0.025,0.095c-0.025,0.096,0.044,0.218,0.114,0.34l0.095,0.025
			c0.57,0.56,0.832,0.732,0.604,1.593l-1.673,6.317l-4.4-10.077c-0.07-0.122-0.166-0.147-0.261-0.173l-2.394-0.634
			c-0.191-0.051-0.313,0.021-0.364,0.211l-0.025,0.097c-0.025,0.095,0.046,0.216,0.116,0.338c0.568,0.559,0.735,0.707,0.481,1.664
			l-2.079,7.85c-0.228,0.86-0.541,0.881-1.312,1.085l-0.096-0.025c-0.122,0.072-0.242,0.143-0.268,0.239l-0.025,0.094
			c-0.05,0.191,0.019,0.313,0.211,0.364l3.159,0.836C63.608,73.567,63.755,73.402,63.806,73.21z"/>
		<path fill="#FF87AC" d="M85.715,72.867c0.964-3.64-0.985-6.716-5.006-7.781l-4.307-1.141c-0.191-0.051-0.313,0.021-0.364,0.211
			l-0.026,0.097c-0.025,0.095,0.046,0.217,0.116,0.338c0.568,0.56,0.734,0.707,0.481,1.664l-2.079,7.85
			c-0.253,0.957-0.471,1.003-1.242,1.208c-0.121,0.071-0.243,0.142-0.268,0.236l-0.025,0.096c-0.051,0.192,0.021,0.311,0.212,0.362
			l4.307,1.141C81.509,78.309,84.727,76.599,85.715,72.867z M76.025,75.421l2.535-9.57l1.723,0.457
			c3.063,0.811,4.304,3.085,3.518,6.053c-0.786,2.967-3.086,4.303-6.053,3.517L76.025,75.421z"/>
		<path fill="#FF87AC" d="M96.934,81.575c-0.097-0.026-0.246,0.141-0.271,0.235l-0.025,0.094c-0.051,0.194,0.022,0.313,0.215,0.365
			l3.253,0.861c0.192,0.051,0.312-0.018,0.363-0.211l0.024-0.095c0.025-0.095-0.044-0.216-0.018-0.312
			c-0.546-0.658-0.686-0.899-0.909-1.984l-1.984-11.076c-0.069-0.121-0.143-0.241-0.236-0.266l-0.097-0.025
			c-0.095-0.025-0.216,0.043-0.337,0.114l-7.207,8.641c-0.611,0.761-0.973,0.973-1.866,1.249c-0.122,0.071-0.147,0.167-0.173,0.262
			l-0.024,0.094c-0.052,0.193,0.02,0.313,0.211,0.363l3.063,0.812c0.193,0.051,0.311-0.019,0.361-0.212l0.025-0.095
			c0.025-0.094-0.017-0.312-0.114-0.337c-0.428-0.318-0.762-0.611-0.711-0.804c0.051-0.191,0.076-0.285,0.347-0.521l1.515-1.852
			l4.784,1.267l0.399,2.358c0.092,0.433,0.065,0.53,0.041,0.624C97.705,81.37,97.68,81.465,96.934,81.575z M93.436,75.833
			l2.883-3.54l0.753,4.503L93.436,75.833z"/>
		<path fill="#FF87AC" d="M111.189,82.278l-0.095-0.025c-0.096-0.025-0.218,0.046-0.339,0.115c-1.508,1.444-2.209,1.771-3.933,1.314
			l-2.681-0.71l2.332-8.806c0.254-0.957,0.472-1.002,1.245-1.207c0.118-0.072,0.24-0.143,0.265-0.238l0.025-0.096
			c0.051-0.19-0.02-0.313-0.211-0.363l-3.255-0.862c-0.19-0.05-0.314,0.021-0.364,0.211l-0.025,0.096
			c-0.025,0.095,0.047,0.217,0.118,0.339c0.568,0.56,0.733,0.707,0.48,1.664l-2.079,7.85c-0.254,0.957-0.47,1.002-1.241,1.208
			c-0.122,0.071-0.246,0.142-0.271,0.235l-0.025,0.095c-0.051,0.193,0.022,0.313,0.213,0.364l8.233,2.181
			c0.191,0.05,0.311-0.019,0.361-0.212l1.362-2.814c0.024-0.095,0.05-0.189-0.022-0.312
			C111.356,82.426,111.284,82.303,111.189,82.278z"/>
		<path fill="#FF87AC" d="M121.241,84.94l-0.097-0.025c-0.094-0.025-0.216,0.046-0.335,0.115c-1.51,1.444-2.213,1.771-3.935,1.314
			l-2.681-0.711l2.332-8.806c0.254-0.957,0.472-1.002,1.243-1.207c0.12-0.072,0.242-0.143,0.267-0.237l0.025-0.096
			c0.051-0.191-0.02-0.313-0.212-0.364l-3.254-0.861c-0.192-0.051-0.312,0.021-0.362,0.211l-0.025,0.096
			c-0.025,0.095,0.043,0.216,0.114,0.338c0.568,0.56,0.735,0.707,0.482,1.664l-2.079,7.85c-0.254,0.956-0.472,1.002-1.243,1.207
			c-0.122,0.07-0.242,0.142-0.267,0.236l-0.025,0.095c-0.051,0.193,0.019,0.312,0.211,0.363l8.231,2.181
			c0.193,0.051,0.314-0.018,0.365-0.211l1.362-2.814c0.024-0.096,0.05-0.189-0.022-0.312
			C121.41,85.089,121.338,84.966,121.241,84.94z"/>
		<path fill="#FF87AC" d="M70.998,82.797c1.723,0.457,1.979,1.037,2.729,2.466c0.071,0.119,0.166,0.145,0.166,0.145l0.095,0.025
			c0.096,0.025,0.192,0.051,0.313-0.019s0.146-0.165,0.171-0.262l0.085-2.641c0.05-0.191-0.115-0.339-0.333-0.292
			c-0.191-0.051-0.503-0.033-0.982-0.159l-7.179-1.902c-0.191-0.05-0.313,0.021-0.364,0.211l-0.025,0.097
			c-0.025,0.095,0.046,0.216,0.116,0.338c0.568,0.56,0.735,0.708,0.481,1.666l-2.079,7.848c-0.254,0.958-0.472,1.003-1.242,1.207
			c-0.121,0.071-0.243,0.142-0.268,0.237l-0.026,0.096c-0.051,0.192,0.021,0.312,0.212,0.362l3.637,0.964
			c0.192,0.051,0.313-0.019,0.364-0.21l0.025-0.097c0.025-0.095-0.02-0.312-0.115-0.338c-0.952-0.661-1.092-0.904-0.864-1.765
			l0.862-3.255l2.201,0.583c1.149,0.304,1.34,0.354,1.463,1.823c-0.025,0.094,0.143,0.24,0.238,0.266l0.096,0.025
			c0.191,0.051,0.312-0.02,0.363-0.212l0.989-3.732c0.05-0.191-0.02-0.312-0.211-0.363l-0.096-0.025
			c-0.095-0.025-0.313,0.021-0.338,0.115c-0.833,1.213-1.024,1.162-2.173,0.858l-2.106-0.559l1.116-4.212L70.998,82.797z"/>
		<path fill="#FF87AC" d="M78.492,96.665c3.444,0.912,6.617-1.012,7.581-4.649c0.963-3.639-0.841-6.881-4.285-7.793
			c-3.447-0.913-6.619,1.012-7.583,4.649C73.267,92.413,75.045,95.752,78.492,96.665z M81.433,85.561
			c2.392,0.634,3.512,2.981,2.726,5.948c-0.761,2.872-2.92,4.451-5.312,3.818c-2.394-0.635-3.514-2.979-2.728-5.948
			C76.905,86.412,79.039,84.927,81.433,85.561z"/>
		<path fill="#FF87AC" d="M93.049,96.629l0.098,1.562c0.057,0.938,0.078,1.253,0.282,2.023c0.071,0.12,0.143,0.241,0.24,0.268
			l2.294,0.607c0.192,0.051,0.314-0.02,0.365-0.211l0.025-0.095c0.025-0.097-0.021-0.313-0.114-0.339
			c-0.855-0.638-1.258-1.051-1.364-2.204l-0.125-1.467c-0.033-1.034-0.358-1.736-0.929-2.296c1.347-0.053,2.631-0.634,3.112-2.455
			c0.558-2.104-0.742-3.78-3.71-4.567l-4.88-1.292c-0.195-0.052-0.314,0.02-0.365,0.211l-0.025,0.095
			c-0.025,0.096,0.044,0.218,0.115,0.338c0.567,0.562,0.735,0.707,0.481,1.666l-2.079,7.85c-0.254,0.957-0.471,0.999-1.243,1.206
			c-0.121,0.07-0.241,0.141-0.267,0.237l-0.025,0.095c-0.051,0.191,0.019,0.312,0.213,0.364l3.251,0.861
			c0.193,0.051,0.316-0.02,0.367-0.211l0.025-0.095c0.025-0.097-0.048-0.218-0.118-0.34c-0.566-0.561-0.732-0.705-0.479-1.662
			l0.837-3.16l2.105,0.558C92.763,94.606,92.993,95.282,93.049,96.629z M89.458,92.399l1.141-4.308l2.392,0.634
			c1.818,0.481,2.597,1.403,2.216,2.84c-0.405,1.532-1.442,1.975-3.356,1.468L89.458,92.399z"/>
		<path fill="#FF87AC" d="M61.599,107.455l-0.095-0.024c-0.096-0.025-0.218,0.044-0.313,0.019c-1.458,1.255-2.038,1.509-3.761,1.053
			l-3.064-0.812l1.167-4.404l2.203,0.584c1.147,0.304,1.34,0.354,1.463,1.823c-0.025,0.095,0.14,0.242,0.236,0.268l0.096,0.025
			c0.191,0.051,0.312-0.021,0.362-0.212l0.989-3.733c0.05-0.191-0.02-0.312-0.21-0.363l-0.096-0.025
			c-0.096-0.025-0.312,0.021-0.338,0.116c-0.833,1.213-1.025,1.162-2.173,0.858l-2.203-0.584l1.065-4.022l2.681,0.711
			c1.723,0.456,1.979,1.039,2.728,2.465c0.07,0.12,0.165,0.146,0.165,0.146l0.097,0.025c0.096,0.025,0.191,0.051,0.312-0.02
			c0.122-0.069,0.146-0.164,0.172-0.261l0.084-2.641c0.051-0.191-0.114-0.339-0.332-0.292c-0.191-0.051-0.503-0.034-0.982-0.16
			l-7.18-1.902c-0.191-0.051-0.312,0.021-0.362,0.212L54.283,96.4c-0.026,0.097,0.044,0.217,0.115,0.339
			c0.569,0.56,0.734,0.706,0.481,1.664l-2.079,7.849c-0.253,0.957-0.47,1.003-1.242,1.206c-0.122,0.073-0.242,0.143-0.267,0.237
			l-0.026,0.098c-0.051,0.19,0.019,0.312,0.209,0.363l8.616,2.282c0.192,0.051,0.313-0.021,0.364-0.212l1.188-2.553
			c0.026-0.098,0.051-0.193-0.02-0.313C61.764,107.602,61.694,107.48,61.599,107.455z"/>
		<path fill="#FF87AC" d="M73.19,111.652l-1.984-11.076c-0.069-0.123-0.142-0.242-0.237-0.268l-0.096-0.024
			c-0.095-0.025-0.215,0.042-0.338,0.114l-7.206,8.643c-0.611,0.76-0.975,0.971-1.868,1.246c-0.121,0.07-0.146,0.168-0.171,0.262
			l-0.025,0.097c-0.051,0.19,0.019,0.313,0.211,0.364l3.062,0.812c0.191,0.051,0.313-0.021,0.364-0.212l0.025-0.097
			c0.025-0.094-0.021-0.312-0.117-0.338c-0.427-0.319-0.759-0.61-0.708-0.802c0.025-0.097,0.076-0.288,0.344-0.524l1.514-1.851
			l4.786,1.268l0.4,2.358c0.09,0.434,0.065,0.529,0.04,0.625s-0.051,0.192-0.918,0.371c-0.121,0.07-0.243,0.142-0.268,0.236
			l-0.026,0.097c-0.05,0.19,0.02,0.313,0.212,0.364l3.254,0.861c0.192,0.051,0.313-0.021,0.364-0.212l0.025-0.096
			c0.025-0.095-0.044-0.217-0.019-0.312C73.555,112.979,73.416,112.736,73.19,111.652z M67.084,106.858l2.883-3.538l0.754,4.502
			L67.084,106.858z"/>
		<path fill="#FF87AC" d="M85.014,113.044l-0.265-0.175c-0.164-0.146-0.285-0.075-0.433,0.092c-1.343,1.591-2.599,2.077-4.417,1.596
			c-2.009-0.532-3.807-2.647-2.945-5.901c0.786-2.969,2.921-4.451,5.411-3.791c1.435,0.38,2.189,1.399,2.787,3.401
			c0.07,0.121,0.14,0.24,0.234,0.266l0.097,0.025c0.192,0.051,0.313-0.018,0.364-0.21l0.888-3.351
			c0.05-0.189-0.021-0.312-0.213-0.363l-0.097-0.025c-0.094-0.025-0.188-0.051-0.214,0.047l-0.85,0.49
			c-0.64-0.682-1.521-1.222-2.572-1.501c-3.542-0.938-6.716,0.988-7.679,4.625c-0.963,3.638,0.744,6.857,4.288,7.796
			c2.392,0.634,4.564-0.227,5.773-2.467C85.248,113.31,85.178,113.188,85.014,113.044z"/>
		<path fill="#FF87AC" d="M100.403,108.31l-3.255-0.862c-0.191-0.051-0.313,0.021-0.363,0.211l-0.025,0.096
			c-0.025,0.096,0.046,0.218,0.116,0.338c0.565,0.561,0.735,0.705,0.48,1.664l-0.836,3.159l-6.701-1.775l0.837-3.158
			c0.254-0.959,0.468-1.003,1.241-1.209c0.123-0.068,0.241-0.14,0.267-0.235l0.025-0.097c0.051-0.189-0.017-0.312-0.211-0.362
			l-3.253-0.862c-0.192-0.051-0.314,0.021-0.365,0.211l-0.025,0.097c-0.025,0.095,0.046,0.217,0.117,0.337
			c0.568,0.562,0.734,0.705,0.48,1.664l-2.079,7.851c-0.254,0.956-0.47,1.001-1.241,1.208c-0.122,0.069-0.243,0.139-0.269,0.236
			l-0.025,0.094c-0.051,0.192,0.021,0.312,0.213,0.364l3.253,0.861c0.194,0.052,0.312-0.02,0.363-0.211l0.024-0.095
			c0.026-0.097-0.041-0.217-0.114-0.337c-0.57-0.562-0.734-0.708-0.48-1.664l0.913-3.447l6.7,1.775l-0.913,3.446
			c-0.253,0.956-0.473,1-1.241,1.208c-0.121,0.068-0.243,0.139-0.269,0.236l-0.025,0.094c-0.051,0.191,0.021,0.312,0.212,0.363
			l3.255,0.862c0.19,0.05,0.31-0.021,0.36-0.212l0.025-0.094c0.025-0.098-0.043-0.218-0.113-0.338
			c-0.57-0.562-0.735-0.708-0.482-1.664l2.08-7.851c0.254-0.959,0.469-1.002,1.243-1.208c0.119-0.069,0.239-0.141,0.265-0.236
			l0.025-0.096C100.734,108.601,100.594,108.359,100.403,108.31z"/>
	</g>
</g>
</svg>
