<?xml version="1.0" encoding="utf-8"?>
<!-- Generator: Adobe Illustrator 16.0.0, SVG Export Plug-In . SVG Version: 6.00 Build 0)  -->
<!DOCTYPE svg PUBLIC "-//W3C//DTD SVG 1.1//EN" "http://www.w3.org/Graphics/SVG/1.1/DTD/svg11.dtd">
<svg version="1.1" id="Layer_1" xmlns="http://www.w3.org/2000/svg" xmlns:xlink="http://www.w3.org/1999/xlink" x="0px" y="0px"
	 width="163.75px" height="163.75px" viewBox="0 0 163.75 163.75" enable-background="new 0 0 163.75 163.75" xml:space="preserve">
<g>
	<g>
		<path fill="#0047E1" d="M153.162,147.381L27.616,161.492c-5.304,0.599-9.989-3.23-10.574-8.434L2.929,27.512
			c-0.596-5.302,3.235-9.988,8.438-10.572L136.914,2.827c5.302-0.595,9.983,3.233,10.567,8.436l14.113,125.548
			C162.192,142.113,158.463,146.785,153.162,147.381z"/>
	</g>
	<g>
		<path fill="#FF87AC" d="M149.459,129.765l-0.698,0.079l-7.412-65.925l-0.27-2.399l-0.445-0.356l-0.202,0.022l-1.889-16.805
			l1.005-0.113l0.352-0.445l-0.403-3.601l-0.445-0.356l-2.304,0.26l-0.606-5.402l-0.444-0.356l-2.001,0.225l-0.225-2l-0.445-0.356
			l-0.402,0.045l-1.326-11.803l-0.444-0.355l-1.102,0.123l-0.112-0.999l0.402-0.045l0.354-0.445l-0.504-4.502l-0.446-0.355
			L21.104,26.076l-0.354,0.445l0.507,4.502l0.444,0.355l0.398-0.045l0.113,1l-1.099,0.123l-0.356,0.446l1.327,11.803l-0.399,0.046
			l-0.355,0.445l0.225,2.001l-2,0.225l-0.357,0.446l0.608,5.401l-2.302,0.259l-0.354,0.445l0.404,3.601L18,57.93l1-0.111
			l1.89,16.806l-0.204,0.023l-0.353,0.444l0.27,2.401l7.411,65.923l-0.7,0.078l-0.356,0.446l0.686,6.103l0.446,0.357l122.045-13.721
			l0.357-0.444l-0.688-6.104L149.459,129.765z M146.257,130.125l-0.338-3.001l1.603-0.179l0.335,3L146.257,130.125z M21.55,77.793
			l1.599-0.182l6.938,61.723l-1.599,0.182L21.55,77.793z M23.768,75.009l0.181,1.601l-2.602,0.292l-0.18-1.601L23.768,75.009z
			 M45.703,51.168l0.316,2.803l-23.508,2.643l-0.314-2.801L45.703,51.168z M38.95,46.053l0.562,5.002l-8.803,0.99l-0.563-5.002
			L38.95,46.053z M140.211,61.919l0.181,1.601l-2.602,0.292l-0.179-1.601L140.211,61.919z M147.532,126.132l-1.603,0.18
			l-6.938-61.722l1.602-0.179L147.532,126.132z M53.522,140.55l-0.336-3l69.827-7.851l0.337,3L53.522,140.55z M74.004,134.398
			l-1,0.111l-5.994-53.318l-0.445-0.356l-12.904,1.452l-0.356,0.446l5.993,53.317l-1,0.115l-6.173-54.922l15.706-1.765
			L74.004,134.398z M72.204,134.6l-12.105,1.362l-5.949-52.92l12.105-1.36L72.204,134.6z M95.811,131.946l-0.997,0.111L88.819,78.74
			l-0.447-0.356l-12.906,1.451l-0.353,0.445l5.992,53.32l-0.999,0.112l-6.174-54.922l15.706-1.765L95.811,131.946z M94.012,132.148
			l-12.104,1.361l-5.95-52.919l12.105-1.361L94.012,132.148z M117.619,129.494l-0.999,0.113l-5.994-53.319l-0.444-0.355
			l-12.905,1.45l-0.353,0.446l5.991,53.321l-0.999,0.111L95.741,76.34l15.705-1.765L117.619,129.494z M115.823,129.696
			l-12.109,1.361l-5.948-52.918l12.107-1.362L115.823,129.696z M118.421,129.406l-6.218-55.322l-0.448-0.354L95.25,75.585
			l-0.356,0.444l6.22,55.322l-4.5,0.507l-6.218-55.322l-0.446-0.355l-16.506,1.855l-0.356,0.445l6.22,55.321l-4.504,0.505
			l-6.219-55.32l-0.444-0.354l-16.506,1.856l-0.354,0.444l6.219,55.322l-4.404,0.494l-6.938-61.723l69.827-7.849l6.938,61.724
			L118.421,129.406z M46.499,54.625l0.356-0.446l-0.158-1.399l63.825-7.175l0.159,1.4l0.441,0.354l0.499-0.057l1.97,17.508
			l-65.625,7.377l-1.968-17.508L46.499,54.625z M110.229,43.916l0.113,1.001l-63.824,7.174l-0.113-1.002L110.229,43.916z
			 M114.594,66.522l-0.18-1.599l22.507-2.531l0.181,1.6L114.594,66.522z M47.958,73l65.622-7.377l0.102,0.901l-65.622,7.376
			L47.958,73z M47.368,74.079l-22.507,2.53l-0.18-1.6l22.508-2.53L47.368,74.079z M116.684,67.097l21.41-2.407l6.937,61.723
			l-21.407,2.408L116.684,67.097z M114.313,64.021l-1.891-16.808l22.51-2.529l1.889,16.807L114.313,64.021z M111.33,46.526
			l-0.314-2.801l23.512-2.642l0.313,2.8L111.33,46.526z M117.042,42.34l-0.562-5.001l8.803-0.99l0.561,5.002L117.042,42.34z
			 M116.241,42.431l-8.804,0.989l-0.562-5.001l8.804-0.99L116.241,42.431z M106.638,43.509l-8.804,0.99l-0.561-5.002l8.803-0.99
			L106.638,43.509z M97.033,44.589l-8.802,0.99l-0.564-5.003l8.804-0.988L97.033,44.589z M87.432,45.668l-8.805,0.989l-0.562-5.001
			l8.804-0.989L87.432,45.668z M77.927,46.737l-8.804,0.99l-0.562-5.002l8.805-0.99L77.927,46.737z M68.324,47.816l-8.805,0.99
			l-0.562-5.001l8.804-0.989L68.324,47.816z M58.721,48.896l-8.804,0.989l-0.562-5.001l8.804-0.989L58.721,48.896z M49.117,49.975
			l-8.804,0.99l-0.562-5l8.803-0.99L49.117,49.975z M45.198,54.771l1.889,16.808l-22.507,2.53l-1.889-16.807L45.198,54.771z
			 M23.95,77.523l21.407-2.407l6.939,61.721l-21.406,2.408L23.95,77.523z M52.385,137.64l0.338,3l-21.406,2.406l-0.337-3
			L52.385,137.64z M40.109,142.868l0.596,5.302l-8.703,0.977l-0.595-5.301L40.109,142.868z M40.908,142.778l8.804-0.99l0.596,5.301
			l-8.804,0.99L40.908,142.778z M50.512,141.698l8.805-0.988l0.596,5.3l-8.805,0.988L50.512,141.698z M60.116,140.619l8.805-0.99
			l0.595,5.302l-8.803,0.99L60.116,140.619z M69.718,139.538l8.803-0.989l0.598,5.302l-8.805,0.99L69.718,139.538z M79.324,138.461
			l8.804-0.99l0.595,5.301l-8.804,0.989L79.324,138.461z M88.928,137.381l8.804-0.991l0.594,5.302l-8.803,0.99L88.928,137.381z
			 M98.529,136.301l8.804-0.988l0.597,5.301l-8.804,0.989L98.529,136.301z M108.036,135.231l8.804-0.989l0.595,5.301l-8.805,0.989
			L108.036,135.231z M117.636,134.153l8.804-0.99l0.598,5.302l-8.803,0.99L117.636,134.153z M127.243,133.072l8.8-0.988l0.595,5.301
			l-8.801,0.989L127.243,133.072z M136.846,131.992l8.702-0.976l0.598,5.3l-8.706,0.978L136.846,131.992z M124.149,132.61
			l-0.339-3.001l21.412-2.407l0.338,3.001L124.149,132.61z M139.523,61.187l-1.903,0.214l-1.889-16.807l1.9-0.214L139.523,61.187z
			 M138.944,43.422l-3.302,0.371l-0.315-2.801l3.303-0.372L138.944,43.422z M135.849,40.227l-9.202,1.033l-0.563-5.001l7.304-0.82
			l2-0.226L135.849,40.227z M129.548,18.444l-0.397,0.044l-5.002,0.562l-0.415-3.702l5.399-0.607L129.548,18.444z M128.953,20.334
			L23.113,32.232l-0.112-1l105.841-11.898L128.953,20.334z M114.547,20.13l-0.417-3.7l8.8-0.99l0.416,3.702L114.547,20.13z
			 M113.745,20.221l-8.803,0.99l-0.419-3.702l8.807-0.989L113.745,20.221z M104.142,21.301l-8.803,0.989l-0.416-3.701l8.805-0.99
			L104.142,21.301z M94.536,22.379l-8.801,0.99l-0.417-3.702l8.803-0.989L94.536,22.379z M84.934,23.459l-8.803,0.99l-0.417-3.7
			l8.805-0.99L84.934,23.459z M75.43,24.527l-8.804,0.991l-0.416-3.702l8.804-0.99L75.43,24.527z M65.826,25.607l-8.804,0.99
			l-0.416-3.701l8.804-0.989L65.826,25.607z M56.224,26.687l-8.803,0.989l-0.416-3.7l8.804-0.991L56.224,26.687z M46.621,27.766
			l-8.805,0.99L37.4,25.055l8.804-0.989L46.621,27.766z M37.016,28.846l-8.804,0.99l-0.417-3.702l8.804-0.99L37.016,28.846z
			 M22.009,30.533l-0.415-3.701l5.404-0.607l0.416,3.701l-5.003,0.562L22.009,30.533z M22.703,33.089L22.703,33.089l106.641-11.988
			l0,0l1.099-0.123l1.294,11.504L22.897,44.718l-1.292-11.505L22.703,33.089z M22.674,45.452l109.643-12.326l0.399-0.046
			l0.181,1.601L22.454,47.097l-0.18-1.601L22.674,45.452z M20.146,48.167l2-0.225l7.301-0.82l0.562,5.001l-9.202,1.036
			L20.146,48.167z M18.095,54.273l3.3-0.372l0.315,2.802l-3.301,0.372L18.095,54.273z M19.888,57.616l1.902-0.214l1.889,16.807
			l-1.901,0.214L19.888,57.616z M28.578,140.315l1.598-0.18l0.338,3l-1.599,0.179L28.578,140.315z M27.805,144.251l2.799-0.314
			l0.596,5.301l-2.798,0.314L27.805,144.251z M149.735,135.812l-2.803,0.315l-0.597-5.303l2.802-0.312L149.735,135.812z"/>
		<path fill="#FF87AC" d="M25.502,73.295l2.3-0.258l0.354-0.446l-0.079-0.698l1.115,0.887l0.309,0.066l2.702-0.304l0.288-0.133
			l1.156-1.446l1.445,1.154l0.312,0.066l2.7-0.303l0.291-0.134l1.152-1.447l1.45,1.154l0.31,0.066l2.702-0.304l0.287-0.132
			l1.422-1.781l0.066-0.311l-0.54-4.802l-0.134-0.29l-0.556-0.444l0.444-0.557l0.067-0.312l-0.541-4.8l-0.135-0.289l-1.78-1.421
			L42.3,56.009l-2.703,0.304l-0.288,0.132l-1.156,1.447l-1.446-1.154l-0.314-0.066l-2.699,0.303l-0.29,0.134l-1.151,1.446
			l-1.449-1.154l-0.31-0.066l-2.703,0.303l-0.286,0.134l-0.891,1.114l-0.079-0.702l-0.444-0.355l-2.301,0.259l-0.354,0.445
			l1.63,14.505L25.502,73.295z M36.136,60.653l1.899-0.214l0.314,2.8l0.135,0.29l0.556,0.444l-0.443,0.556l-0.089,0.111
			l-1.013-0.899l-0.312-0.065l-1.698,0.19l-0.461-4.101l0.5-0.057l0.056,0.501L36.136,60.653z M39.878,56.99l2.398-0.269
			l1.559,1.244l0.505,4.501l-0.619,0.778l0.058,0.501l0.776,0.622l0.505,4.501l-1.242,1.558l-2.398,0.269l-1.56-1.242l-0.438-3.902
			l-0.068-0.601l0.622-0.778l-0.058-0.5l-0.778-0.621l-0.349-3.101l-0.156-1.4L39.878,56.99z M33.973,57.655l2.402-0.271
			l1.559,1.242l0.113,1l-1.5,0.168l-0.057-0.5l-0.446-0.356l-1.299,0.147l-0.355,0.444l0.551,4.903l0.443,0.355l1.9-0.213
			l1.46,1.253l0.417,3.701l-1.245,1.559l-2.402,0.27l-1.556-1.244l-0.529-4.701l-0.179-1.601l-0.529-4.7L33.973,57.655z
			 M27.447,66.289l0.621-0.778l-0.056-0.5l-0.778-0.621l-0.506-4.502l1.244-1.558l2.399-0.27l1.559,1.244l0.507,4.5l-0.621,0.779
			l0.056,0.502l0.779,0.621l0.505,4.502l-1.244,1.557l-2.4,0.27l-1.559-1.243L27.447,66.289z M24.27,58.745l1.501-0.168
			l1.541,13.704L25.81,72.45L24.27,58.745z"/>
		<path fill="#FF87AC" d="M31.244,70.319l0.355-0.445l-0.393-3.501l-0.447-0.355l-1.298,0.146l-0.355,0.446l0.393,3.5l0.447,0.356
			L31.244,70.319z M29.939,66.82l0.501-0.056l0.314,2.801l-0.5,0.057L29.939,66.82z"/>
		<path fill="#FF87AC" d="M30.523,63.918l0.356-0.445l-0.394-3.502l-0.446-0.354l-1.299,0.146l-0.355,0.445l0.394,3.502l0.446,0.354
			L30.523,63.918z M29.231,60.518l0.499-0.057l0.316,2.802l-0.5,0.055L29.231,60.518z"/>
		<path fill="#FF87AC" d="M43.148,68.982l0.355-0.446l-0.394-3.5l-0.444-0.355l-1.301,0.146l-0.356,0.446l0.393,3.501l0.447,0.355
			L43.148,68.982z M41.845,65.481l0.5-0.056l0.316,2.801l-0.501,0.056L41.845,65.481z"/>
		<path fill="#FF87AC" d="M42.429,62.58l0.354-0.445l-0.394-3.501l-0.444-0.356l-1.301,0.147l-0.357,0.445l0.394,3.501l0.446,0.356
			L42.429,62.58z M41.035,59.19l0.501-0.056l0.314,2.8l-0.5,0.056L41.035,59.19z"/>
		<path fill="#FF87AC" d="M37.148,69.656l0.355-0.446l-0.294-2.6l-0.444-0.356l-1.303,0.146l-0.354,0.445l0.292,2.602l0.445,0.355
			L37.148,69.656z M35.942,67.057l0.5-0.057l0.202,1.801l-0.5,0.057L35.942,67.057z"/>
		<path fill="#FF87AC" d="M118.675,49.652l-0.355,0.446l0.417,3.702l0.445,0.355l1.299-0.146l0.355-0.445l-0.416-3.701l-0.445-0.355
			L118.675,49.652z M119.989,53.251l-0.5,0.056l-0.325-2.9l0.5-0.056L119.989,53.251z"/>
		<path fill="#FF87AC" d="M134.413,47.275l-1.782-1.42l-0.311-0.067l-2.702,0.304l-0.288,0.133l-1.156,1.447l-1.443-1.155
			l-0.312-0.066l-2.701,0.304l-0.29,0.133l-1.15,1.447l-1.45-1.155l-0.31-0.066l-2.701,0.304l-0.288,0.132l-0.8,1.002l-0.077-0.699
			l-0.448-0.356l-2.298,0.258l-0.355,0.445l1.629,14.506l0.448,0.354l2.296-0.259l0.356-0.445l-0.077-0.7l1.112,0.889l0.312,0.065
			l2.701-0.304l0.289-0.133l1.153-1.447l1.447,1.153l0.311,0.067l2.7-0.305l0.29-0.133l1.154-1.447l1.447,1.154l0.311,0.066
			l2.702-0.303l0.287-0.132l1.421-1.782l0.066-0.312l-1.259-11.204L134.413,47.275z M131.041,55.15l1.203-0.135l0.338,3.001
			l-0.502,0.055l-0.056-0.5l-0.444-0.354l-1.9,0.214l-0.811-7.203l1.902-0.214l0.353-0.445l-0.056-0.5l0.499-0.055l0.328,2.9
			l-1.203,0.134l-0.354,0.446l0.26,2.3L131.041,55.15z M125.142,55.814l1.201-0.135l0.337,3.001l-0.502,0.056l-0.055-0.5
			l-0.446-0.356l-1.898,0.214l-0.812-7.202l1.9-0.215l0.354-0.445l-0.056-0.5l0.5-0.055l0.326,2.9l-1.199,0.134l-0.356,0.446
			l0.26,2.3L125.142,55.814z M119.674,58.555l-1.901,0.214l-0.358-3.201l1.002,0.8l0.311,0.065l1.701-0.191l0.337,3.001
			l-0.499,0.057l-0.057-0.5L119.674,58.555z M117.344,62.16l-1.501,0.168l-1.54-13.705l1.501-0.168l0.135,1.199l0.573,5.104
			l0.506,4.501l0.182,1.6L117.344,62.16z M121.849,61.654l-2.403,0.27l-1.556-1.243l-0.115-1l1.502-0.168l0.058,0.5l0.442,0.355
			l1.302-0.146l0.354-0.446l-0.425-3.801l-0.448-0.355l-1.9,0.214l-1.455-1.254l-0.541-4.803l1.243-1.558l2.401-0.27l1.559,1.243
			l0.156,1.4l0.901,8.004l0.157,1.4L121.849,61.654z M127.851,60.979l-2.402,0.269l-1.558-1.242l-0.112-1.001l1.499-0.168
			l0.057,0.501l0.445,0.354l1.303-0.145l0.351-0.446l-0.426-3.801l-0.444-0.355l-1.201,0.135l-0.169-1.501l1.201-0.135l0.354-0.445
			l-0.416-3.701l-0.442-0.355l-1.303,0.146l-0.356,0.445l0.057,0.5l-1.501,0.168l-0.111-1l1.244-1.557l2.402-0.271l1.556,1.243
			l0.157,1.4l0.9,8.004l0.158,1.4L127.851,60.979z M134.995,58.759l-1.244,1.557l-2.4,0.27l-1.556-1.243l-0.113-1l1.5-0.168
			l0.057,0.5l0.442,0.355l1.303-0.146l0.354-0.446l-0.426-3.801l-0.446-0.356l-1.199,0.135l-0.169-1.501l1.201-0.135l0.354-0.445
			l-0.416-3.702l-0.445-0.355l-1.301,0.147l-0.354,0.444l0.057,0.502l-1.5,0.168l-0.112-1l1.241-1.558l2.4-0.271l1.56,1.243
			L134.995,58.759z"/>
	</g>
</g>
</svg>
