<?xml version="1.0" encoding="utf-8"?>
<!-- Generator: Adobe Illustrator 16.0.0, SVG Export Plug-In . SVG Version: 6.00 Build 0)  -->
<!DOCTYPE svg PUBLIC "-//W3C//DTD SVG 1.1//EN" "http://www.w3.org/Graphics/SVG/1.1/DTD/svg11.dtd">
<svg version="1.1" id="Layer_1" xmlns="http://www.w3.org/2000/svg" xmlns:xlink="http://www.w3.org/1999/xlink" x="0px" y="0px"
	 width="410.75px" height="112.75px" viewBox="0 0 410.75 112.75" enable-background="new 0 0 410.75 112.75" xml:space="preserve">
<g>
	<g>
		<path fill="#0047E1" d="M388.734,109.19l-374.69-40.09C7.643,68.415,3.051,62.726,3.736,56.324l4.597-42.969
			C9.019,6.954,14.709,2.363,21.112,3.048l374.691,40.09c6.4,0.684,10.992,6.375,10.308,12.776l-4.598,42.97
			C400.828,105.285,395.041,109.865,388.734,109.19z"/>
	</g>
	<g>
		<path fill="#FF87AC" d="M49.031,31.837l-2.159,20.174l-5.431-0.582L43.6,31.255l-7.177-0.768l0.539-5.043l19.788,2.117
			l-0.54,5.042L49.031,31.837z"/>
		<path fill="#FF87AC" d="M91.093,43.99c-0.176,1.649-0.632,3.169-1.478,4.649c-0.845,1.479-1.864,2.743-3.258,3.87
			c-1.3,1.137-2.859,1.95-4.59,2.55c-1.731,0.6-3.616,0.789-5.654,0.572c-2.037-0.218-3.839-0.803-5.404-1.755
			c-1.565-0.953-2.916-2.077-3.947-3.463c-1.028-1.385-1.855-2.846-2.364-4.471c-0.515-1.625-0.638-3.208-0.461-4.856
			c0.176-1.649,0.632-3.17,1.478-4.649c0.845-1.479,1.862-2.744,3.257-3.87c1.301-1.136,2.859-1.95,4.59-2.55
			c1.731-0.599,3.615-0.79,5.653-0.571c2.037,0.218,3.839,0.803,5.405,1.755c1.565,0.952,2.916,2.078,3.946,3.463
			c1.029,1.386,1.853,2.848,2.365,4.472C91.048,40.747,91.27,42.341,91.093,43.99z M85.373,43.378
			c0.125-1.165,0.043-2.252-0.24-3.264c-0.283-1.012-0.772-1.947-1.38-2.699c-0.605-0.751-1.417-1.427-2.335-2.015
			c-0.917-0.589-1.975-0.801-3.04-0.915c-1.163-0.125-2.154-0.034-3.165,0.251c-1.013,0.283-1.852,0.782-2.709,1.476
			c-0.753,0.605-1.429,1.417-1.919,2.345c-0.491,0.929-0.801,1.974-0.926,3.139c-0.124,1.163-0.042,2.252,0.24,3.263
			c0.284,1.01,0.773,1.945,1.38,2.698c0.604,0.751,1.416,1.427,2.335,2.017c0.929,0.493,1.974,0.798,3.041,0.913
			c1.163,0.124,2.153,0.037,3.165-0.249c1.012-0.286,1.852-0.782,2.709-1.477c0.753-0.607,1.429-1.417,1.92-2.345
			C84.938,45.588,85.248,44.541,85.373,43.378z"/>
		<path fill="#FF87AC" d="M125.245,60.396l-5.044-0.539l-3.084-17.007l-6.615,15.969l-5.042-0.539l-5.074-25.951l5.335,0.57
			l3.194,16.924l6.7-15.865l4.947,0.529l3.192,16.924l6.701-15.865l5.333,0.571L125.245,60.396z"/>
		<path fill="#FF87AC" d="M143.384,62.337l2.688-25.121l16.877,1.806l-0.54,5.044l-11.544-1.235l-0.508,4.752l8.15,0.873
			l-0.54,5.044l-8.15-0.873l-0.581,5.432l11.543,1.234l-0.54,5.045l-16.876-1.807L143.384,62.337z"/>
		<path fill="#FF87AC" d="M187.03,67.007l-5.686-10.123l-1.939-0.208l-1.007,9.408l-5.431-0.581l2.688-25.122l8.343,0.893
			c1.744,0.186,3.168,0.633,4.173,1.33c1.005,0.696,1.804,1.468,2.293,2.404c0.5,0.838,0.892,1.763,0.991,2.657
			c0.1,0.893,0.115,1.679,0.052,2.262c-0.166,1.552-0.698,2.867-1.59,3.852c-0.889,0.984-1.952,1.753-3.082,2.222l6.995,11.636
			l-6.79-0.726L187.03,67.007z M186.164,49.452c0.093-0.873-0.127-1.583-0.646-2.228c-0.531-0.547-1.374-0.932-2.535-1.056
			l-2.427-0.26l-0.633,5.917l2.329,0.249c1.258,0.135,2.262-0.052,2.809-0.582C185.714,50.876,186.081,50.229,186.164,49.452z"/>
		<path fill="#FF87AC" d="M239.698,72.643l1.11-10.378l-10.766-1.151l-1.11,10.377l-5.432-0.581l2.688-25.121l5.432,0.582
			l-1.037,9.699l10.766,1.152l1.038-9.7l5.433,0.582l-2.687,25.121L239.698,72.643z"/>
		<path fill="#FF87AC" d="M284.113,64.642c-0.177,1.649-0.633,3.17-1.479,4.649c-0.845,1.479-1.863,2.742-3.258,3.869
			c-1.3,1.138-2.856,1.951-4.589,2.551c-1.731,0.6-3.617,0.788-5.653,0.571c-2.037-0.218-3.84-0.803-5.404-1.755
			c-1.565-0.953-2.916-2.077-3.946-3.464c-1.028-1.386-1.854-2.846-2.365-4.472c-0.515-1.625-0.639-3.207-0.463-4.856
			c0.177-1.648,0.633-3.17,1.479-4.648c0.845-1.479,1.863-2.744,3.259-3.87c1.3-1.136,2.856-1.951,4.588-2.55
			c1.732-0.599,3.616-0.79,5.654-0.572c2.036,0.218,3.84,0.803,5.404,1.754c1.565,0.953,2.916,2.078,3.946,3.464
			c1.028,1.386,1.853,2.847,2.365,4.471C284.165,61.41,284.29,62.992,284.113,64.642z M278.392,64.029
			c0.126-1.164,0.044-2.252-0.24-3.263c-0.284-1.013-0.773-1.947-1.38-2.698c-0.605-0.752-1.418-1.427-2.335-2.016
			c-0.918-0.589-1.974-0.8-3.04-0.915c-1.165-0.125-2.154-0.034-3.166,0.25c-1.011,0.283-1.851,0.782-2.708,1.476
			c-0.753,0.605-1.43,1.417-1.921,2.346c-0.49,0.928-0.801,1.974-0.925,3.139c-0.125,1.163-0.043,2.251,0.24,3.262
			c0.284,1.012,0.773,1.945,1.381,2.699c0.605,0.751,1.417,1.428,2.335,2.016c0.918,0.589,1.975,0.8,3.041,0.913
			c1.162,0.125,2.153,0.036,3.164-0.25c1.012-0.284,1.851-0.781,2.708-1.476c0.754-0.607,1.43-1.417,1.922-2.346
			C277.957,66.24,278.268,65.193,278.392,64.029z"/>
		<path fill="#FF87AC" d="M317.926,69.535c-0.176,1.647-0.643,3.265-1.379,4.659c-0.739,1.394-1.649,2.571-2.83,3.523
			c-1.182,0.954-2.526,1.593-4.042,2.021c-1.518,0.426-3.199,0.54-4.944,0.354c-1.747-0.188-3.363-0.653-4.756-1.392
			s-2.57-1.647-3.426-2.818c-0.953-1.182-1.595-2.526-2.021-4.044c-0.424-1.518-0.551-3.1-0.364-4.846l1.474-13.773l5.432,0.581
			l-1.483,13.871c-0.125,1.164-0.035,2.154,0.162,3.061c0.199,0.902,0.611,1.633,1.142,2.18c0.518,0.645,1.158,1.106,1.9,1.479
			c0.744,0.375,1.609,0.563,2.481,0.657c0.873,0.094,1.755,0.091,2.562-0.117c0.806-0.207,1.527-0.522,2.172-1.044
			c0.645-0.518,1.203-1.146,1.577-1.889c0.384-0.844,0.683-1.792,0.806-2.957l1.495-13.967l5.432,0.582l-1.484,13.87L317.926,69.535
			z"/>
		<path fill="#FF87AC" d="M345.197,75.984c-0.103,0.971-0.402,1.919-0.894,2.848c-0.492,0.927-1.068,1.75-1.938,2.539
			c-0.764,0.703-1.807,1.28-2.924,1.651c-1.119,0.369-2.411,0.524-3.865,0.369c-1.165-0.125-2.211-0.433-3.14-0.926
			c-0.929-0.49-1.654-1.059-2.27-1.714c-0.616-0.652-1.126-1.395-1.635-2.137c-0.413-0.73-0.717-1.548-1.032-2.269l5.022-2.013
			c0.055,0.399,0.206,0.808,0.253,1.303c0.141,0.506,0.295,0.914,0.651,1.246c0.25,0.421,0.605,0.75,1.069,0.998
			c0.465,0.246,0.928,0.491,1.609,0.564c0.776,0.082,1.485-0.134,2.119-0.556c0.644-0.521,1.008-1.171,1.091-1.944
			c0.073-0.682-0.147-1.391-0.58-1.928c-0.433-0.535-1.069-0.998-1.793-1.566c-0.735-0.47-1.557-1.048-2.388-1.529
			c-0.928-0.492-1.642-1.158-2.356-1.822c-0.713-0.665-1.319-1.417-1.71-2.341c-0.393-0.927-0.569-2.023-0.435-3.284
			c0.104-0.97,0.391-1.822,0.874-2.653c0.479-0.831,1.146-1.545,1.896-2.152c0.751-0.605,1.677-0.997,2.6-1.389
			c1.013-0.284,2.005-0.375,3.169-0.251c1.553,0.167,2.866,0.7,4.143,1.622c1.274,0.921,2.226,2.102,2.945,3.65l-4.731,2.044
			c-0.229-0.613-0.662-1.149-1.104-1.589c-0.444-0.44-1.104-0.707-1.782-0.779s-1.281,0.059-1.71,0.404
			c-0.431,0.347-0.677,0.812-0.729,1.296c-0.062,0.581,0.188,1.001,0.632,1.44c0.442,0.44,1.078,0.902,1.813,1.372
			c0.736,0.471,1.566,0.953,2.496,1.445c0.929,0.49,1.643,1.156,2.452,1.83c0.704,0.764,1.299,1.61,1.69,2.537
			C345.165,73.53,345.333,74.724,345.197,75.984z"/>
		<path fill="#FF87AC" d="M355.996,85.086l2.687-25.121l16.877,1.806l-0.54,5.044l-11.54-1.235l-0.508,4.753l8.145,0.872
			l-0.539,5.044l-8.146-0.871l-0.581,5.431l11.54,1.234l-0.539,5.045L355.996,85.086z"/>
	</g>
</g>
</svg>
