<?xml version="1.0" encoding="utf-8"?>
<!-- Generator: Adobe Illustrator 16.0.0, SVG Export Plug-In . SVG Version: 6.00 Build 0)  -->
<!DOCTYPE svg PUBLIC "-//W3C//DTD SVG 1.1//EN" "http://www.w3.org/Graphics/SVG/1.1/DTD/svg11.dtd">
<svg version="1.1" id="Layer_1" xmlns="http://www.w3.org/2000/svg" xmlns:xlink="http://www.w3.org/1999/xlink" x="0px" y="0px"
	 width="232.25px" height="186.25px" viewBox="0 0 232.25 186.25" enable-background="new 0 0 232.25 186.25" xml:space="preserve">
<g>
	<polygon fill="#0047E1" points="31.564,176.046 42.95,183.177 221.559,141.156 228.569,129.698 200.458,10.21 189.074,3.079 
		10.464,45.1 3.453,56.559 	"/>
	<g>
		<g>
			<polygon fill="#FF87AC" points="128.328,70.257 137.232,108.106 146.139,145.957 164.343,141.673 155.438,103.823 
				146.533,65.975 137.63,28.126 119.424,32.41 			"/>
			<path fill="#FF87AC" d="M176.532,18.974l-5.365,1.263l0,0l-5.08,1.195l-5.077,1.195l0,0l-5.365,1.262l-9.748,15.742l5.072,21.56
				l0.834,3.545l2.976,12.649l7.43,4.927l-4.453,7.721l2.975,12.649l5.907,25.104l15.744,9.746l5.364-1.264l5.078-1.194l5.08-1.194
				l5.365-1.263l9.744-15.742l-5.905-25.104l-2.977-12.649l-7.429-4.925l4.454-7.722l-2.977-12.648l-0.835-3.546l-5.071-21.56
				L176.532,18.974z M188.879,95.956l4.645,19.739l-5.078,1.194l-5.077,1.195l-4.644-19.74l-1.895-8.047l5.078-1.194l5.077-1.195
				L188.879,95.956z M179.141,54.562l0.834,3.545l1.894,8.049l-5.077,1.195l-5.078,1.195l-1.894-8.05l-0.834-3.544l-3.787-16.098
				l5.078-1.194l5.076-1.194L179.141,54.562z"/>
		</g>
		<g>
			<polygon fill="#FF87AC" points="44.014,50.151 38.935,51.346 33.76,52.564 28.394,53.826 18.648,69.567 21.601,82.12 
				39.712,77.859 38.021,70.674 43.196,69.456 48.275,68.261 52.963,88.191 33.504,132.712 42.364,170.371 55.108,167.373 
				60.474,166.11 65.648,164.893 70.728,163.697 70.728,163.697 88.933,159.415 88.933,159.415 84.649,141.21 83.274,135.363 
				65.069,139.646 66.445,145.493 61.366,146.688 56.191,147.905 52.516,132.285 72.071,87.741 65.217,58.611 49.475,48.867 			"/>
			<path fill="#FF87AC" d="M101.122,36.716l-5.366,1.262l-5.079,1.195l-5.078,1.194l-5.366,1.263l-9.746,15.742l5.906,25.106l0,0
				l2.976,12.647l1.488,6.324l1.487,6.323l2.976,12.648l0,0l5.906,25.105l15.743,9.746l5.366-1.264l5.078-1.194l5.079-1.195
				l5.366-1.262l9.745-15.742l-5.907-25.105l-2.976-12.648l-1.487-6.322l-1.487-6.324l-2.977-12.648l-5.906-25.106L101.122,36.716z
				 M104.661,75.826l1.894,8.049l5.095,21.655l1.894,8.05l4.645,19.739l-5.175,1.218l-5.078,1.194l-4.644-19.739l-1.894-8.05
				l-5.095-21.655l-1.894-8.049L89.764,58.5l5.079-1.195l5.077-1.194L104.661,75.826z"/>
		</g>
	</g>
</g>
</svg>
