<?xml version="1.0" encoding="utf-8"?>
<!-- Generator: Adobe Illustrator 16.0.0, SVG Export Plug-In . SVG Version: 6.00 Build 0)  -->
<!DOCTYPE svg PUBLIC "-//W3C//DTD SVG 1.1//EN" "http://www.w3.org/Graphics/SVG/1.1/DTD/svg11.dtd">
<svg version="1.1" id="Layer_1" xmlns="http://www.w3.org/2000/svg" xmlns:xlink="http://www.w3.org/1999/xlink" x="0px" y="0px"
	 width="211.75px" height="139.75px" viewBox="0 0 211.75 139.75" enable-background="new 0 0 211.75 139.75" xml:space="preserve">
<g>
	<path fill="#0047E1" d="M125.129,10.324c56.104,18.439,92.85,59.96,82.077,92.739c-10.771,32.776-64.985,44.404-121.089,25.966
		C30.014,110.59-6.733,69.07,4.039,36.292C14.812,3.513,69.026-8.114,125.129,10.324z"/>
	<g>
		<g>
			<path fill="#FF87AC" d="M88.899,120.564c-51.553-16.943-85.901-53.525-76.68-81.583C21.441,10.92,70.89,1.879,122.347,18.791
				c51.555,16.943,85.9,53.524,76.679,81.584C189.804,128.433,140.356,137.477,88.899,120.564z M121.723,20.692
				C71.215,4.093,22.905,12.561,14.027,39.575c-8.878,27.012,24.992,62.487,75.498,79.085c50.506,16.6,98.817,8.132,107.694-18.879
				C206.099,72.768,172.229,37.292,121.723,20.692z"/>
		</g>
		<g>
			<path fill="#FF87AC" d="M43.634,32.863l15.883,5.22L47.952,73.275l12.935,4.252l11.566-35.192l15.979,5.251l3.438-10.463
				L47.072,22.4L43.634,32.863 M95.612,38.249l-4.659,14.172l-15.979-5.252L63.409,82.362l-16.646-5.472l-0.438,1.332l16.646,5.471
				l1.332,0.438l0.438-1.33l11.161-33.958l14.647,4.813l1.331,0.438l0.438-1.331l4.658-14.172"/>
			<path fill="#FF87AC" d="M135.582,71.195l5.844-17.785l-12.935-4.251L113.455,94.91l12.936,4.251l5.845-17.787l21.4,7.034
				l-5.845,17.785l12.938,4.252l15.036-45.75l-12.938-4.252l-5.845,17.786L135.582,71.195 M141.842,69.146l4.628-14.08l-1.334-0.438
				l-4.626,14.079L141.842,69.146z M148.835,90.833l-14.078-4.626l-5.844,17.786l-16.646-5.47l-0.438,1.333l16.646,5.47l1.332,0.438
				l0.438-1.334l5.438-16.55l12.745,4.189L148.835,90.833z M179.472,65.914l-16.255,49.46l-16.739-5.501l-0.438,1.329l16.74,5.502
				l1.331,0.438l0.438-1.331l16.254-49.46"/>
			<path fill="#FF87AC" d="M100.988,74.477c4.186,1.375,8.641-0.954,9.984-5.044c1.376-4.185-0.955-8.639-5.045-9.983
				c-4.184-1.375-8.638,0.955-9.982,5.044C94.505,68.552,96.805,73.102,100.988,74.477"/>
		</g>
	</g>
</g>
</svg>
