<?xml version="1.0" encoding="utf-8"?>
<!-- Generator: Adobe Illustrator 16.0.0, SVG Export Plug-In . SVG Version: 6.00 Build 0)  -->
<!DOCTYPE svg PUBLIC "-//W3C//DTD SVG 1.1//EN" "http://www.w3.org/Graphics/SVG/1.1/DTD/svg11.dtd">
<svg version="1.1" id="Layer_1" xmlns="http://www.w3.org/2000/svg" xmlns:xlink="http://www.w3.org/1999/xlink" x="0px" y="0px"
	 width="167.25px" height="166.25px" viewBox="0 0 167.25 166.25" enable-background="new 0 0 167.25 166.25" xml:space="preserve">
<g>
	<g>
		<path fill="#0047E1" d="M157.495,115.05c-17.632,40.799-64.999,59.578-105.796,41.945c-40.798-17.633-59.577-65-41.945-105.797
			c17.633-40.797,65-59.576,105.798-41.943C156.35,26.887,175.128,74.254,157.495,115.05"/>
		<path fill="#FF87AC" d="M121.584,98.919l-0.147-12.295l-8.822,8.418L121.584,98.919z M118.998,92.419l0.031,2.662l-1.942-0.84
			L118.998,92.419z"/>
		<path fill="#FF87AC" d="M96.912,112.261l-1.454,1.385l0.145,0.674c0.404,1.932,0.598,3.732,0.588,5.504l-0.004,0.754l0.661,0.357
			c0.814,0.441,1.669,0.896,2.554,1.279c6.244,2.699,13.329,3.125,19.944,1.203l0.913-0.266l-0.134-14.141l-13.515-5.842
			L96.912,112.261z M117.632,110.667l0.102,10.588c-6.414,1.625-13.363,0.832-19.04-2.176c-0.037-1.494-0.201-3.01-0.5-4.598
			l8.932-8.355L117.632,110.667z"/>
		<path fill="#FF87AC" d="M75.153,92.591l1.858,0.557l-2.73-20.438l-1.84,2.557c-3.502,4.862-9.51,4.656-12.279,4.56l-1.591-0.052
			l2.581,12.498l1.203-0.215c2.971-0.531,5.811-0.627,8.646-0.287C72.629,91.997,73.721,92.165,75.153,92.591 M63.118,89.394
			l-1.45-7.02c2.768,0.005,7.338-0.373,10.912-3.538l1.444,10.886c-0.832-0.174-1.664-0.297-2.7-0.439
			C68.602,88.958,65.905,88.993,63.118,89.394"/>
		<path fill="#FF87AC" d="M134.326,113.452c1.724-2.225,3.044-4.416,4.034-6.711c3.767-8.717,3.081-18.826-1.831-27.047
			l-2.064-3.454l-2.65,40.444L134.326,113.452z M134.891,108.099l1.506-22.984c2.574,6.629,2.498,14.062-0.341,20.631
			C135.712,106.54,135.326,107.321,134.891,108.099"/>
		<path fill="#FF87AC" d="M28.92,59.441c-3.488,8.068-3.234,17.187,0.69,25.019l1.206,2.404l19.378-44.836l-2.579,0.77
			C39.223,45.307,32.408,51.369,28.92,59.441 M30.723,80.755c-2.469-6.54-2.314-13.803,0.501-20.317
			c2.817-6.519,8.002-11.607,14.456-14.291L30.723,80.755z"/>
		<path fill="#FF87AC" d="M75.123,110.11c-1.654-1.203-3.311-1.914-5.344-2.305c-3.422-0.59-6.843,0.221-9.611,2.277
			c-1.815,1.289-3.243,3.053-4.129,5.102c-2.756,6.377,0.19,13.809,6.57,16.566c6.379,2.758,13.812-0.189,16.568-6.566
			c0.854-1.977,1.161-4.217,0.889-6.494C79.619,115.22,77.867,112.177,75.123,110.11 M63.604,129.446
			c-5.108-2.209-7.468-8.16-5.261-13.266c0.703-1.627,1.837-3.029,3.298-4.068c2.233-1.656,4.972-2.307,7.69-1.834
			c0.82,0.152,1.584,0.379,2.265,0.674c0.683,0.295,1.369,0.695,2.031,1.18c2.187,1.641,3.591,4.084,3.95,6.867
			c0.22,1.852-0.018,3.598-0.705,5.189C74.666,129.296,68.715,131.655,63.604,129.446"/>
		<path fill="#FF87AC" d="M63.461,64.067c2.209-5.11,0.053-10.974-4.802-13.072l-1.151-0.496l-8.01,18.53l1.152,0.498
			C55.504,71.626,61.252,69.178,63.461,64.067 M58.77,53.905c2.785,1.897,3.863,5.748,2.387,9.166s-5.021,5.271-8.311,4.542
			L58.77,53.905z"/>
		<path fill="#FF87AC" d="M123.852,68.204c-1.093-0.612-2.747-1.282-3.618-1.457l-0.633-0.126l-0.471,0.438
			c-6.214,5.772-14.562,8.506-22.91,7.505c-0.758-0.089-1.506-0.211-2.235-0.367l-1.734-0.372l3.148,23.694l29.935-28.481
			L123.852,68.204z M97.229,92.313l-2.04-15.354c0.247,0.032,0.494,0.065,0.74,0.094c8.84,1.065,17.686-1.73,24.382-7.677
			c0.223,0.075,0.475,0.167,0.738,0.273L97.229,92.313z"/>
		<path fill="#FF87AC" d="M38.298,94.944l0.865,0.582c1.812,1.223,3.508,2.17,5.181,2.893c0.887,0.383,1.805,0.693,2.652,0.969
			l0.889,0.291l0.531-0.77c0.115-0.168,0.449-0.426,0.645-0.547l0.75-0.463l-4.15-19.988L38.298,94.944z M44.818,86.187
			l2.191,10.562c-1.8-0.621-3.623-1.494-5.576-2.732L44.818,86.187z"/>
		<path fill="#FF87AC" d="M92.387,56.461c0.684,0.484,1.433,0.902,2.224,1.244c0.792,0.343,1.61,0.603,2.417,0.763
			c3.573,0.771,7.334-0.12,10.316-2.445l0.01-0.007c1.71-1.359,3.03-3.035,3.812-4.846c2.765-6.396-0.176-13.844-6.556-16.601
			c-6.379-2.757-13.816,0.204-16.582,6.601c-0.815,1.891-1.132,4.008-0.915,6.109C87.463,51.043,89.39,54.395,92.387,56.461
			 M103.613,36.873c5.11,2.209,7.464,8.175,5.248,13.302c-0.619,1.433-1.678,2.77-3.065,3.874c-2.394,1.864-5.397,2.582-8.252,1.964
			c-1.306-0.265-2.605-0.826-3.723-1.608c-2.395-1.651-3.931-4.335-4.211-7.372c-0.177-1.686,0.073-3.368,0.722-4.866
			C92.549,37.039,98.506,34.665,103.613,36.873"/>
		<path fill="#FF87AC" d="M149.253,111.489c0.104-0.24,0.17-0.486,0.271-0.725c0.19-0.463,0.371-0.916,0.489-1.314
			c14.171-35.723-2.512-76.607-38.024-91.955C76.715,2.249,35.831,17.807,19.302,52.119c-0.116,0.223-0.252,0.429-0.364,0.656
			c-0.168,0.331-0.328,0.71-0.49,1.075c-0.141,0.312-0.314,0.598-0.45,0.911c-0.142,0.325-0.233,0.659-0.367,0.985
			c-0.131,0.314-0.276,0.64-0.387,0.943c-0.077,0.208-0.126,0.419-0.2,0.627C3.65,91.849,19,130.979,52.197,147.239
			c0.051,0.029,0.096,0.062,0.146,0.092c0.188,0.082,0.368,0.168,0.553,0.254c0.795,0.379,1.549,0.814,2.363,1.168
			c0.832,0.357,1.68,0.613,2.518,0.938c0.216,0.088,0.398,0.156,0.646,0.26c0.053,0.018,0.105,0.025,0.159,0.041
			C93.995,163.267,134.088,146.577,149.253,111.489 M58.625,147.329c-0.292-0.119-0.583-0.24-0.877-0.355
			c-1.003-0.393-1.994-0.82-2.92-1.262c-0.294-0.139-0.561-0.262-0.831-0.383c-0.237-0.113-0.47-0.232-0.705-0.35
			c-12.601-7.254-17.742-22.756-11.877-36.326l0.39-1.197l-1.152-0.498c-18.861-8.152-28.088-29.463-21.258-48.763
			c0.203-0.523,0.369-1.053,0.586-1.573c0.125-0.296,0.236-0.588,0.365-0.886c0.112-0.261,0.236-0.514,0.352-0.777
			c0.267-0.591,0.576-1.149,0.854-1.729c9.388-18.112,31.187-25.943,50.125-17.759l1.151,0.498l0.498-1.151
			c3.021-6.989,8.611-12.411,15.745-15.271c7.114-2.822,14.891-2.709,21.894,0.318c14.486,6.261,21.17,23.154,14.901,37.659
			l-0.393,1.197l1.152,0.498c19.031,8.226,28.272,29.863,21.031,49.367c-0.028,0.072-0.052,0.146-0.082,0.221
			c-0.174,0.539-0.407,1.098-0.642,1.639c-0.256,0.592-0.496,1.156-0.854,1.785c-9.196,18.619-31.321,26.754-50.37,18.521
			l-1.334-0.367l-0.498,1.152c-5.789,13.395-20.604,20.271-34.399,16.109C59.193,147.54,58.909,147.44,58.625,147.329
			 M152.271,89.624c-1.786-13.656-10.338-26.041-23.632-32.248c3.938-10.193,2.108-21.294-3.952-29.608
			C144.101,42.173,154.508,65.796,152.271,89.624 M95.781,15.282c-2.584,0.329-5.151,0.95-7.641,1.937
			c-7.367,2.951-13.221,8.42-16.604,15.474c-13.549-5.437-28.395-3.219-39.574,4.774C47.781,19.596,72.048,11.032,95.781,15.282
			 M14.986,76.522c1.785,13.668,10.342,26.064,23.648,32.277c-3.957,10.053-2.354,21.061,3.607,29.43
			C23.01,123.782,12.721,100.249,14.986,76.522 M71.927,151.036c10.122-1.418,19.221-7.791,23.823-17.549
			c13.621,5.465,28.568,3.176,39.76-4.939C119.799,146.466,95.622,155.114,71.927,151.036"/>
	</g>
</g>
</svg>
