<?xml version="1.0" encoding="utf-8"?>
<!-- Generator: Adobe Illustrator 22.1.0, SVG Export Plug-In . SVG Version: 6.00 Build 0)  -->
<svg version="1.1" id="Layer_1" xmlns="http://www.w3.org/2000/svg" xmlns:xlink="http://www.w3.org/1999/xlink" x="0px" y="0px"
	 viewBox="0 0 1087.5 906.7" style="enable-background:new 0 0 1087.5 906.7;" xml:space="preserve">
<style type="text/css">
	.st0{fill:#D0D0CE;}
	.st1{clip-path:url(#SVGID_2_);fill:none;stroke:#0047E1;stroke-width:12;stroke-miterlimit:10;}
	.st2{clip-path:url(#SVGID_4_);fill:#0047E1;}
	.st3{clip-path:url(#SVGID_6_);fill:none;stroke:#0047E1;stroke-width:12;stroke-miterlimit:10;}
	.st4{clip-path:url(#SVGID_8_);fill:none;stroke:#0047E1;stroke-width:12;stroke-miterlimit:10;}
	.st5{fill:none;stroke:#FFFFFF;stroke-width:2.765;stroke-miterlimit:10;}
	.st6{clip-path:url(#SVGID_10_);fill:none;stroke:#FFFFFF;stroke-width:8.296;stroke-miterlimit:10;}
	.st7{fill:none;stroke:#FFFFFF;stroke-width:8.296;stroke-miterlimit:10;}
	.st8{clip-path:url(#SVGID_12_);fill:none;stroke:#FFFFFF;stroke-width:2.765;stroke-miterlimit:10;}
	.st9{clip-path:url(#SVGID_14_);fill:none;stroke:#FFFFFF;stroke-width:2.765;stroke-miterlimit:10;}
	.st10{clip-path:url(#SVGID_16_);fill:none;stroke:#FFFFFF;stroke-width:2.765;stroke-miterlimit:10;}
	.st11{clip-path:url(#SVGID_18_);fill:none;stroke:#FFFFFF;stroke-width:2.765;stroke-miterlimit:10;}
	.st12{clip-path:url(#SVGID_20_);fill:none;stroke:#FFFFFF;stroke-width:2.765;stroke-miterlimit:10;}
	.st13{clip-path:url(#SVGID_22_);fill:none;stroke:#FFFFFF;stroke-width:2.765;stroke-miterlimit:10;}
	.st14{clip-path:url(#SVGID_24_);fill:none;stroke:#FFFFFF;stroke-width:2.765;stroke-miterlimit:10;}
	.st15{clip-path:url(#SVGID_26_);fill:none;stroke:#FFFFFF;stroke-width:2.765;stroke-miterlimit:10;}
	.st16{clip-path:url(#SVGID_28_);fill:none;stroke:#FFFFFF;stroke-width:2.765;stroke-miterlimit:10;}
	.st17{clip-path:url(#SVGID_30_);fill:none;stroke:#FFFFFF;stroke-width:8.296;stroke-miterlimit:10;}
	.st18{clip-path:url(#SVGID_32_);fill:none;stroke:#FFFFFF;stroke-width:2.765;stroke-miterlimit:10;}
	.st19{clip-path:url(#SVGID_34_);fill:none;stroke:#FFFFFF;stroke-width:2.765;stroke-miterlimit:10;}
	.st20{clip-path:url(#SVGID_36_);fill:none;stroke:#FFFFFF;stroke-width:2.765;stroke-miterlimit:10;}
	.st21{clip-path:url(#SVGID_38_);fill:none;stroke:#FFFFFF;stroke-width:2.765;stroke-miterlimit:10;}
	.st22{clip-path:url(#SVGID_40_);fill:none;stroke:#FFFFFF;stroke-width:2.765;stroke-miterlimit:10;}
	.st23{clip-path:url(#SVGID_42_);fill:none;stroke:#FFFFFF;stroke-width:2.765;stroke-miterlimit:10;}
	.st24{clip-path:url(#SVGID_44_);fill:none;stroke:#FFFFFF;stroke-width:2.765;stroke-miterlimit:10;}
	.st25{clip-path:url(#SVGID_46_);fill:none;stroke:#FFFFFF;stroke-width:8.296;stroke-miterlimit:10;}
	.st26{clip-path:url(#SVGID_48_);fill:none;stroke:#FFFFFF;stroke-width:2.765;stroke-miterlimit:10;}
	.st27{clip-path:url(#SVGID_50_);fill:none;stroke:#FFFFFF;stroke-width:8.296;stroke-miterlimit:10;}
	.st28{clip-path:url(#SVGID_52_);fill:none;stroke:#FFFFFF;stroke-width:2.765;stroke-miterlimit:10;}
	.st29{clip-path:url(#SVGID_54_);fill:none;stroke:#FFFFFF;stroke-width:2.765;stroke-miterlimit:10;}
	.st30{clip-path:url(#SVGID_56_);fill:none;stroke:#FFFFFF;stroke-width:2.765;stroke-miterlimit:10;}
	.st31{clip-path:url(#SVGID_58_);fill:none;stroke:#FFFFFF;stroke-width:2.765;stroke-miterlimit:10;}
	.st32{clip-path:url(#SVGID_60_);fill:none;stroke:#FFFFFF;stroke-width:8.296;stroke-miterlimit:10;}
	.st33{clip-path:url(#SVGID_62_);fill:none;stroke:#FFFFFF;stroke-width:2.765;stroke-miterlimit:10;}
	.st34{clip-path:url(#SVGID_64_);fill:none;stroke:#FFFFFF;stroke-width:2.765;stroke-miterlimit:10;}
	.st35{clip-path:url(#SVGID_66_);fill:none;stroke:#FFFFFF;stroke-width:2.765;stroke-miterlimit:10;}
	.st36{clip-path:url(#SVGID_68_);fill:none;stroke:#FFFFFF;stroke-width:2.765;stroke-miterlimit:10;}
	.st37{clip-path:url(#SVGID_70_);fill:none;stroke:#FFFFFF;stroke-width:2.765;stroke-miterlimit:10;}
	.st38{clip-path:url(#SVGID_72_);fill:none;stroke:#FFFFFF;stroke-width:2.765;stroke-miterlimit:10;}
	.st39{clip-path:url(#SVGID_74_);fill:none;stroke:#FFFFFF;stroke-width:2.765;stroke-miterlimit:10;}
	.st40{clip-path:url(#SVGID_76_);fill:none;stroke:#FFFFFF;stroke-width:2.765;stroke-miterlimit:10;}
	.st41{fill:#FFFFFF;}
	.st42{clip-path:url(#SVGID_78_);fill:#0047E1;}
	.st43{clip-path:url(#SVGID_80_);fill:#FF87AC;}
	.st44{clip-path:url(#SVGID_82_);fill:#FF87AC;}
	.st45{clip-path:url(#SVGID_84_);fill:#FF87AC;}
	.st46{clip-path:url(#SVGID_86_);fill:#FF87AC;}
	.st47{clip-path:url(#SVGID_88_);fill:#FFFFFF;}
	.st48{clip-path:url(#SVGID_90_);}
	.st49{clip-path:url(#SVGID_92_);}
	.st50{clip-path:url(#SVGID_94_);}
	.st51{clip-path:url(#SVGID_96_);}
</style>
<rect class="st0" width="1087.5" height="906.7"/>
<g>
	<g>
		<defs>
			<rect id="SVGID_1_" width="1087.5" height="906.7"/>
		</defs>
		<clipPath id="SVGID_2_">
			<use xlink:href="#SVGID_1_"  style="overflow:visible;"/>
		</clipPath>
		<polyline class="st1" points="556.7,482 604.9,505.7 797.4,794.6 797.4,931.1 		"/>
	</g>
	<g>
		<defs>
			<rect id="SVGID_3_" width="1087.5" height="906.7"/>
		</defs>
		<clipPath id="SVGID_4_">
			<use xlink:href="#SVGID_3_"  style="overflow:visible;"/>
		</clipPath>
		<path class="st2" d="M469.9,264.3c0.4,1.9,0.8,3.7,1.3,5.6l1.4,5.5l1.4,5.5c0.2,0.9,0.4,1.9,0.7,2.8l0.6,1.3
			c0.2,0.4,0.3,0.9,0.4,1.4l5.7,22.1l5.7,22.1c1.9,7.3,3.8,14.7,5.6,22.1l-11.6,3c-2.4-7.2-4.5-14.5-6.5-21.9c-1-3.7-2-7.3-2.9-11
			l-1.4-5.5l-1.3-5.5c-1.8-7.4-3.4-14.8-5-22.2c0-0.2-0.1-0.5-0.1-0.7c0-0.2,0.1-0.5,0.4-0.8c0.5-0.6,1.3-1.3,1.7-1.9
			c0.4-0.6,0.1-1,0-1.5l-0.4-1.4c-0.5-1.8-1.1-3.6-1.8-5.4c-0.7-1.8-1.5-3.5-2.4-5.3c-0.9-1.7-1.9-3.4-3.1-5.1L469.9,264.3z"/>
	</g>
	<g>
		<defs>
			<rect id="SVGID_5_" width="1087.5" height="906.7"/>
		</defs>
		<clipPath id="SVGID_6_">
			<use xlink:href="#SVGID_5_"  style="overflow:visible;"/>
		</clipPath>
		<line class="st3" x1="414.5" y1="242" x2="467.6" y2="267.5"/>
	</g>
	<g>
		<defs>
			<rect id="SVGID_7_" width="1087.5" height="906.7"/>
		</defs>
		<clipPath id="SVGID_8_">
			<use xlink:href="#SVGID_7_"  style="overflow:visible;"/>
		</clipPath>
		<polyline class="st4" points="151.6,924.1 137.3,839 216.2,724.6 360.4,685.5 338.7,556.2 290.6,488.1 415.6,306.8 415.6,221.7 
			238.2,-29.5 		"/>
	</g>
</g>
<line class="st5" x1="464" y1="201.8" x2="341.5" y2="28.1"/>
<g>
	<g>
		<defs>
			<rect id="SVGID_9_" width="1087.5" height="906.7"/>
		</defs>
		<clipPath id="SVGID_10_">
			<use xlink:href="#SVGID_9_"  style="overflow:visible;"/>
		</clipPath>
		<polyline class="st6" points="190.4,-29.5 190.4,106.2 328.6,244.4 328.6,297.4 		"/>
	</g>
</g>
<line class="st7" x1="250.6" y1="280.3" x2="273.8" y2="189.7"/>
<line class="st5" x1="575.1" y1="420.2" x2="541.8" y2="297.4"/>
<g>
	<g>
		<defs>
			<rect id="SVGID_11_" width="1087.5" height="906.7"/>
		</defs>
		<clipPath id="SVGID_12_">
			<use xlink:href="#SVGID_11_"  style="overflow:visible;"/>
		</clipPath>
		<line class="st8" x1="1106" y1="1063.3" x2="935.2" y2="434.1"/>
	</g>
</g>
<line class="st5" x1="939.1" y1="773.9" x2="909" y2="663.3"/>
<g>
	<g>
		<defs>
			<rect id="SVGID_13_" width="1087.5" height="906.7"/>
		</defs>
		<clipPath id="SVGID_14_">
			<use xlink:href="#SVGID_13_"  style="overflow:visible;"/>
		</clipPath>
		<line class="st9" x1="1013.2" y1="913.5" x2="942.8" y2="654.1"/>
	</g>
</g>
<polyline class="st5" points="876.8,672 906.8,782.6 972.8,764.7 "/>
<g>
	<g>
		<defs>
			<rect id="SVGID_15_" width="1087.5" height="906.7"/>
		</defs>
		<clipPath id="SVGID_16_">
			<use xlink:href="#SVGID_15_"  style="overflow:visible;"/>
		</clipPath>
		<line class="st10" x1="-28.9" y1="444.4" x2="234.8" y2="372.8"/>
	</g>
</g>
<line class="st5" x1="674.1" y1="548.7" x2="688.1" y2="498.2"/>
<line class="st5" x1="642.3" y1="475.5" x2="654.1" y2="432.9"/>
<line class="st5" x1="679.5" y1="436.9" x2="686.5" y2="411.3"/>
<g>
	<g>
		<defs>
			<rect id="SVGID_17_" width="1087.5" height="906.7"/>
		</defs>
		<clipPath id="SVGID_18_">
			<use xlink:href="#SVGID_17_"  style="overflow:visible;"/>
		</clipPath>
		<line class="st11" x1="692.3" y1="954.5" x2="559.1" y2="464"/>
	</g>
</g>
<line class="st5" x1="592" y1="585.1" x2="494.7" y2="537.2"/>
<line class="st5" x1="548.7" y1="534.8" x2="501.1" y2="511.4"/>
<polyline class="st5" points="608.4,645.6 511.1,597.7 523,551.2 "/>
<polyline class="st5" points="733.3,299.4 752.7,373.1 736.6,435.9 "/>
<line class="st5" x1="717.3" y1="470.3" x2="728" y2="431.7"/>
<polyline class="st5" points="548.7,322.8 490.9,339.6 465.8,246.9 "/>
<polyline class="st5" points="649.7,284.4 621.8,291.9 617.7,276.8 483.7,313.2 "/>
<polyline class="st5" points="675.8,406 689.3,353.3 675.8,303.8 552.6,337.2 "/>
<line class="st5" x1="310.3" y1="481.8" x2="329.7" y2="509.1"/>
<line class="st5" x1="295.4" y1="460.7" x2="310.3" y2="481.8"/>
<line class="st5" x1="295.4" y1="460.7" x2="273.9" y2="430.2"/>
<line class="st5" x1="285.3" y1="475" x2="263.8" y2="444.5"/>
<line class="st5" x1="286.2" y1="412.1" x2="307.8" y2="442.8"/>
<line class="st5" x1="322.7" y1="463.9" x2="341.6" y2="490.6"/>
<polyline class="st5" points="307.8,442.8 327.2,414.6 305.6,384 "/>
<line class="st5" x1="295.4" y1="460.7" x2="307.8" y2="442.8"/>
<line class="st5" x1="322.7" y1="463.9" x2="310.3" y2="481.8"/>
<polyline class="st5" points="322.7,463.9 342.1,435.7 352.6,450.6 "/>
<polyline class="st5" points="315,296.7 315,370.4 243.1,474.7 21.6,534.8 "/>
<g>
	<g>
		<defs>
			<rect id="SVGID_19_" width="1087.5" height="906.7"/>
		</defs>
		<clipPath id="SVGID_20_">
			<use xlink:href="#SVGID_19_"  style="overflow:visible;"/>
		</clipPath>
		<line class="st12" x1="631.2" y1="-48.8" x2="462.4" y2="195.9"/>
	</g>
</g>
<line class="st5" x1="248.1" y1="334.1" x2="315" y2="334.1"/>
<line class="st5" x1="686.3" y1="342.3" x2="563" y2="375.8"/>
<line class="st5" x1="558.4" y1="358.5" x2="535" y2="364.8"/>
<line class="st5" x1="507" y1="264.8" x2="473.1" y2="274"/>
<g>
	<g>
		<defs>
			<rect id="SVGID_21_" width="1087.5" height="906.7"/>
		</defs>
		<clipPath id="SVGID_22_">
			<use xlink:href="#SVGID_21_"  style="overflow:visible;"/>
		</clipPath>
		<polyline class="st13" points="578.5,535.6 586.3,533.5 728,746 728,917.6 		"/>
	</g>
	<g>
		<defs>
			<rect id="SVGID_23_" width="1087.5" height="906.7"/>
		</defs>
		<clipPath id="SVGID_24_">
			<use xlink:href="#SVGID_23_"  style="overflow:visible;"/>
		</clipPath>
		<polyline class="st14" points="348.8,179.2 217.4,-6.8 148.2,-6.8 		"/>
	</g>
</g>
<polyline class="st5" points="264.7,129.8 281.5,153.6 272.4,189 "/>
<line class="st5" x1="342.1" y1="139.8" x2="331.7" y2="155"/>
<line class="st5" x1="326" y1="117" x2="315.6" y2="132.1"/>
<line class="st5" x1="307.7" y1="91" x2="297.3" y2="106.1"/>
<line class="st5" x1="292" y1="68.8" x2="281.5" y2="84"/>
<polyline class="st5" points="497.7,525.5 480.6,517.1 498,449.8 "/>
<line class="st5" x1="530.8" y1="233.8" x2="518.5" y2="188.7"/>
<polyline class="st5" points="646.2,62 670.2,150.3 612.2,166 573,222.8 "/>
<polyline class="st5" points="554.5,62 602.5,129.9 612.2,166 "/>
<polyline class="st5" points="517.3,116.3 560.8,177.8 573,222.8 492.2,244.7 416.3,207.4 "/>
<line class="st5" x1="546.9" y1="158.3" x2="535.2" y2="175.3"/>
<polyline class="st5" points="700.3,22.4 732.9,142.5 688.6,206.7 688.6,206.7 593,232.7 573,222.8 "/>
<g>
	<g>
		<defs>
			<rect id="SVGID_25_" width="1087.5" height="906.7"/>
		</defs>
		<clipPath id="SVGID_26_">
			<use xlink:href="#SVGID_25_"  style="overflow:visible;"/>
		</clipPath>
		<polyline class="st15" points="599.3,-2.6 633.1,121.8 602.5,130.1 		"/>
	</g>
</g>
<polyline class="st5" points="394.7,103.4 370.8,138.4 312.6,56 "/>
<polyline class="st5" points="384,88.2 367.9,111.4 378.7,126.7 "/>
<line class="st5" x1="459.5" y1="7.9" x2="526.7" y2="103.1"/>
<line class="st5" x1="446.2" y1="136.6" x2="422.7" y2="143"/>
<line class="st5" x1="794.4" y1="62.5" x2="717" y2="83.5"/>
<polyline class="st5" points="789.4,574.3 715.8,538.1 728.7,491.2 757.8,505.5 "/>
<polyline class="st5" points="781.2,329.6 777,314.5 739.7,324.6 "/>
<g>
	<g>
		<defs>
			<rect id="SVGID_27_" width="1087.5" height="906.7"/>
		</defs>
		<clipPath id="SVGID_28_">
			<use xlink:href="#SVGID_27_"  style="overflow:visible;"/>
		</clipPath>
		<polyline class="st16" points="1164.2,371.8 804.6,469.4 658.6,397.6 550.6,426.9 543.1,456.1 		"/>
	</g>
	<g>
		<defs>
			<rect id="SVGID_29_" width="1087.5" height="906.7"/>
		</defs>
		<clipPath id="SVGID_30_">
			<use xlink:href="#SVGID_29_"  style="overflow:visible;"/>
		</clipPath>
		<polyline class="st17" points="1074.9,618.3 775.5,699.5 647.6,507.6 501.6,435.7 482.8,366.5 397.7,366.5 397.7,297.4 
			273.1,297.4 -50.8,55.5 		"/>
	</g>
	<g>
		<defs>
			<rect id="SVGID_31_" width="1087.5" height="906.7"/>
		</defs>
		<clipPath id="SVGID_32_">
			<use xlink:href="#SVGID_31_"  style="overflow:visible;"/>
		</clipPath>
		<line class="st18" x1="1127.8" y1="528.9" x2="733" y2="636"/>
	</g>
</g>
<polyline class="st5" points="1034,554.3 1026.1,524.6 964.5,541.3 "/>
<line class="st5" x1="934" y1="194.5" x2="751.6" y2="244"/>
<g>
	<g>
		<defs>
			<rect id="SVGID_33_" width="1087.5" height="906.7"/>
		</defs>
		<clipPath id="SVGID_34_">
			<use xlink:href="#SVGID_33_"  style="overflow:visible;"/>
		</clipPath>
		<line class="st19" x1="1130.7" y1="192.6" x2="948.2" y2="242.1"/>
	</g>
	<g>
		<defs>
			<rect id="SVGID_35_" width="1087.5" height="906.7"/>
		</defs>
		<clipPath id="SVGID_36_">
			<use xlink:href="#SVGID_35_"  style="overflow:visible;"/>
		</clipPath>
		<line class="st20" x1="1087.4" y1="34" x2="904.9" y2="83.5"/>
	</g>
	<g>
		<defs>
			<rect id="SVGID_37_" width="1087.5" height="906.7"/>
		</defs>
		<clipPath id="SVGID_38_">
			<use xlink:href="#SVGID_37_"  style="overflow:visible;"/>
		</clipPath>
		<line class="st21" x1="891.5" y1="-29.5" x2="554.5" y2="62"/>
	</g>
</g>
<polyline class="st5" points="574.9,471.8 613.2,461.4 815.9,561.2 1019.9,505.8 904.9,83.4 752.7,8.5 "/>
<g>
	<g>
		<defs>
			<rect id="SVGID_39_" width="1087.5" height="906.7"/>
		</defs>
		<clipPath id="SVGID_40_">
			<use xlink:href="#SVGID_39_"  style="overflow:visible;"/>
		</clipPath>
		<line class="st22" x1="923.4" y1="-13.6" x2="946.7" y2="72.1"/>
	</g>
	<g>
		<defs>
			<rect id="SVGID_41_" width="1087.5" height="906.7"/>
		</defs>
		<clipPath id="SVGID_42_">
			<use xlink:href="#SVGID_41_"  style="overflow:visible;"/>
		</clipPath>
		<polyline class="st23" points="931.4,76 960.8,184.2 1143.3,134.7 		"/>
	</g>
	<g>
		<defs>
			<rect id="SVGID_43_" width="1087.5" height="906.7"/>
		</defs>
		<clipPath id="SVGID_44_">
			<use xlink:href="#SVGID_43_"  style="overflow:visible;"/>
		</clipPath>
		<line class="st24" x1="1044" y1="45.8" x2="853.6" y2="-48"/>
	</g>
</g>
<polyline class="st5" points="811.6,37.5 772.4,94.3 785.9,144.1 "/>
<g>
	<g>
		<defs>
			<rect id="SVGID_45_" width="1087.5" height="906.7"/>
		</defs>
		<clipPath id="SVGID_46_">
			<use xlink:href="#SVGID_45_"  style="overflow:visible;"/>
		</clipPath>
		<polyline class="st25" points="482.8,366.5 464,297.3 464,201.8 427,66 368.8,-16.3 		"/>
	</g>
	<g>
		<defs>
			<rect id="SVGID_47_" width="1087.5" height="906.7"/>
		</defs>
		<clipPath id="SVGID_48_">
			<use xlink:href="#SVGID_47_"  style="overflow:visible;"/>
		</clipPath>
		<line class="st26" x1="558.4" y1="-19" x2="397.7" y2="24.6"/>
	</g>
</g>
<polyline class="st5" points="91.5,161.1 117.6,123.1 155.6,151.8 129.5,189.7 "/>
<line class="st5" x1="79.6" y1="94.5" x2="53.4" y2="132.5"/>
<line class="st5" x1="41.6" y1="65.9" x2="15.4" y2="103.8"/>
<line class="st5" x1="176" y1="290" x2="240" y2="272.6"/>
<g>
	<g>
		<defs>
			<rect id="SVGID_49_" width="1087.5" height="906.7"/>
		</defs>
		<clipPath id="SVGID_50_">
			<use xlink:href="#SVGID_49_"  style="overflow:visible;"/>
		</clipPath>
		<polyline class="st27" points="355.6,963.5 427,685.5 397.7,512.2 397.7,366.5 		"/>
	</g>
</g>
<line class="st5" x1="453.2" y1="698.4" x2="518.6" y2="444"/>
<polyline class="st5" points="427,685.5 489.3,716.2 627.6,716.2 "/>
<polyline class="st5" points="110.1,862.1 176,622.8 176,290.1 205.7,247 "/>
<polyline class="st5" points="157.3,690.3 208.2,715.3 231.1,632.4 231.1,373.8 "/>
<polyline class="st5" points="89.1,784.9 136.1,615 136.1,399.6 "/>
<polyline class="st5" points="68.5,709 91.1,627.2 91.1,411.8 "/>
<g>
	<g>
		<defs>
			<rect id="SVGID_51_" width="1087.5" height="906.7"/>
		</defs>
		<clipPath id="SVGID_52_">
			<use xlink:href="#SVGID_51_"  style="overflow:visible;"/>
		</clipPath>
		<polyline class="st28" points="822.1,686.8 882.5,909.2 1084.8,1008.9 		"/>
	</g>
</g>
<line class="st5" x1="873.1" y1="875.8" x2="994" y2="843"/>
<g>
	<g>
		<defs>
			<rect id="SVGID_53_" width="1087.5" height="906.7"/>
		</defs>
		<clipPath id="SVGID_54_">
			<use xlink:href="#SVGID_53_"  style="overflow:visible;"/>
		</clipPath>
		<line class="st29" x1="934.5" y1="934.8" x2="1061.8" y2="900.3"/>
	</g>
</g>
<line class="st5" x1="404.3" y1="770.3" x2="523.6" y2="828.8"/>
<line class="st5" x1="637" y1="750.8" x2="410.2" y2="750.8"/>
<line class="st5" x1="523.6" y1="751" x2="523.6" y2="828.8"/>
<polyline class="st5" points="523.6,828.8 535.4,872.5 581.9,895.4 736.8,895.4 "/>
<g>
	<g>
		<defs>
			<rect id="SVGID_55_" width="1087.5" height="906.7"/>
		</defs>
		<clipPath id="SVGID_56_">
			<use xlink:href="#SVGID_55_"  style="overflow:visible;"/>
		</clipPath>
		<polyline class="st30" points="690.5,924.1 690.5,770.3 728,770.3 		"/>
	</g>
</g>
<line class="st5" x1="511.2" y1="881" x2="535.4" y2="872.5"/>
<g>
	<g>
		<defs>
			<rect id="SVGID_57_" width="1087.5" height="906.7"/>
		</defs>
		<clipPath id="SVGID_58_">
			<use xlink:href="#SVGID_57_"  style="overflow:visible;"/>
		</clipPath>
		<polyline class="st31" points="580.5,985.9 534,963 511.2,881 322.7,788.5 253.5,807.3 253.5,872.2 		"/>
	</g>
	<g>
		<defs>
			<rect id="SVGID_59_" width="1087.5" height="906.7"/>
		</defs>
		<clipPath id="SVGID_60_">
			<use xlink:href="#SVGID_59_"  style="overflow:visible;"/>
		</clipPath>
		<line class="st32" x1="-46.8" y1="872.5" x2="378.4" y2="872.5"/>
	</g>
</g>
<line class="st5" x1="216.5" y1="837.3" x2="216.5" y2="872.5"/>
<line class="st5" x1="168.3" y1="837.3" x2="168.3" y2="872.5"/>
<g>
	<g>
		<defs>
			<rect id="SVGID_61_" width="1087.5" height="906.7"/>
		</defs>
		<clipPath id="SVGID_62_">
			<use xlink:href="#SVGID_61_"  style="overflow:visible;"/>
		</clipPath>
		<polyline class="st33" points="112.9,872.5 -5.1,437.9 -5.1,91 		"/>
	</g>
</g>
<polyline class="st5" points="11,872.5 11,847.5 106.1,847.5 "/>
<g>
	<g>
		<defs>
			<rect id="SVGID_63_" width="1087.5" height="906.7"/>
		</defs>
		<clipPath id="SVGID_64_">
			<use xlink:href="#SVGID_63_"  style="overflow:visible;"/>
		</clipPath>
		<path class="st34" d="M-16.4,804.3c36.6-0.1,111.5,0.2,111.5,0.2"/>
	</g>
	<g>
		<defs>
			<rect id="SVGID_65_" width="1087.5" height="906.7"/>
		</defs>
		<clipPath id="SVGID_66_">
			<use xlink:href="#SVGID_65_"  style="overflow:visible;"/>
		</clipPath>
		<path class="st35" d="M-26.3,743.2c41.8,0,104.5-0.5,104.5-0.5"/>
	</g>
	<g>
		<defs>
			<rect id="SVGID_67_" width="1087.5" height="906.7"/>
		</defs>
		<clipPath id="SVGID_68_">
			<use xlink:href="#SVGID_67_"  style="overflow:visible;"/>
		</clipPath>
		<polyline class="st36" points="-5.1,290 75.8,290 75.8,184.1 7.5,132.9 23.6,111.1 		"/>
	</g>
	<g>
		<defs>
			<rect id="SVGID_69_" width="1087.5" height="906.7"/>
		</defs>
		<clipPath id="SVGID_70_">
			<use xlink:href="#SVGID_69_"  style="overflow:visible;"/>
		</clipPath>
		<line class="st37" x1="120" y1="342.3" x2="176" y2="342.3"/>
	</g>
	<g>
		<defs>
			<rect id="SVGID_71_" width="1087.5" height="906.7"/>
		</defs>
		<clipPath id="SVGID_72_">
			<use xlink:href="#SVGID_71_"  style="overflow:visible;"/>
		</clipPath>
		<polyline class="st38" points="176,310.8 120,310.8 120,239.4 		"/>
	</g>
	<g>
		<defs>
			<rect id="SVGID_73_" width="1087.5" height="906.7"/>
		</defs>
		<clipPath id="SVGID_74_">
			<use xlink:href="#SVGID_73_"  style="overflow:visible;"/>
		</clipPath>
		<polyline class="st39" points="91.1,411.8 70,334.1 -5.1,334.1 		"/>
	</g>
	<g>
		<defs>
			<rect id="SVGID_75_" width="1087.5" height="906.7"/>
		</defs>
		<clipPath id="SVGID_76_">
			<use xlink:href="#SVGID_75_"  style="overflow:visible;"/>
		</clipPath>
		<polyline class="st40" points="253.5,807.3 253.5,774.4 322.7,755.6 322.7,788.5 		"/>
	</g>
</g>
<polygon class="st41" points="372.3,210.6 377.2,210.6 377.2,208.5 372.3,208.5 365.5,205.5 360.9,205.5 367.8,208.5 357.9,208.5 
	357.9,210.6 367.8,210.6 362.7,212.8 357.9,212.8 357.9,214.9 362.7,214.9 369.5,217.8 374.1,217.8 367.3,214.9 377.2,214.9 
	377.2,212.8 367.3,212.8 "/>
<g>
	<g>
		<defs>
			<rect id="SVGID_77_" width="1087.5" height="906.7"/>
		</defs>
		<clipPath id="SVGID_78_">
			<use xlink:href="#SVGID_77_"  style="overflow:visible;"/>
		</clipPath>
		<path class="st42" d="M539.9,418.1c-6.2,5.7-19.2,1.8-29-8.7c-9.8-10.6-12.8-23.8-6.6-29.5c6.2-5.7,19.2-1.8,29,8.7
			C543.1,399.2,546.1,412.4,539.9,418.1"/>
	</g>
	<g>
		<defs>
			<rect id="SVGID_79_" width="1087.5" height="906.7"/>
		</defs>
		<clipPath id="SVGID_80_">
			<use xlink:href="#SVGID_79_"  style="overflow:visible;"/>
		</clipPath>
		<path class="st43" d="M503.1,387.4c0.2-2.5,1-4.6,2.6-6c5.3-4.9,17-1,26.1,8.7c4.4,4.7,7.5,10,8.8,15c1.3,5.1,0.6,9.2-2,11.6
			c-2.6,2.4-6.8,2.8-11.7,1.1c-4.9-1.7-10-5.2-14.3-9.8C506.1,401.1,502.7,393.2,503.1,387.4 M540.5,410.6c0.1-1.6-0.1-3.4-0.6-5.4
			c-1.3-4.9-4.3-10.1-8.6-14.8c-8.8-9.5-20.1-13.4-25.2-8.7c-5.1,4.7-2,16.3,6.8,25.7c4.3,4.6,9.3,8.1,14.1,9.7
			c4.7,1.6,8.7,1.2,11.1-1C539.5,414.9,540.3,412.9,540.5,410.6"/>
	</g>
	<g>
		<defs>
			<rect id="SVGID_81_" width="1087.5" height="906.7"/>
		</defs>
		<clipPath id="SVGID_82_">
			<use xlink:href="#SVGID_81_"  style="overflow:visible;"/>
		</clipPath>
		<path class="st44" d="M513.2,383.8l2.8,3l-6.6,6.2l2.3,2.4l6.6-6.2l2.8,3l2-1.8l-7.9-8.4L513.2,383.8z M523.6,391.1l-2.7,2.5
			l-2.8-3l-6.6,6.2l-2.9-3.1l-0.2,0.2l2.9,3.1l0.2,0.2l0.2-0.2l6.4-5.9l2.6,2.8l0.2,0.2l0.2-0.2l2.7-2.5"/>
	</g>
	<g>
		<defs>
			<rect id="SVGID_83_" width="1087.5" height="906.7"/>
		</defs>
		<clipPath id="SVGID_84_">
			<use xlink:href="#SVGID_83_"  style="overflow:visible;"/>
		</clipPath>
		<path class="st45" d="M528.3,402.9l3.4-3.1l-2.3-2.4l-8.6,8l2.3,2.4l3.4-3.1l3.8,4l-3.4,3.1l2.3,2.4l8.6-8l-2.3-2.4l-3.4,3.1
			L528.3,402.9z M529.9,403.2l2.7-2.5l-0.2-0.2l-2.7,2.5L529.9,403.2z M528.8,408.6l-2.5-2.6l-3.4,3.1l-2.9-3.1l-0.2,0.2l2.9,3.1
			l0.2,0.2l0.2-0.2l3.1-2.9l2.2,2.4L528.8,408.6z M538.4,406.9l-9.3,8.7l-2.9-3.2l-0.2,0.2l2.9,3.2l0.2,0.2l0.2-0.2l9.3-8.7"/>
	</g>
	<g>
		<defs>
			<rect id="SVGID_85_" width="1087.5" height="906.7"/>
		</defs>
		<clipPath id="SVGID_86_">
			<use xlink:href="#SVGID_85_"  style="overflow:visible;"/>
		</clipPath>
		<path class="st46" d="M520.5,399.5c0.7,0.8,2,0.8,2.8,0.1c0.8-0.7,0.8-2,0.1-2.7c-0.7-0.8-2-0.8-2.7-0.1
			C519.8,397.5,519.8,398.7,520.5,399.5"/>
	</g>
	<g>
		<defs>
			<rect id="SVGID_87_" width="1087.5" height="906.7"/>
		</defs>
		<clipPath id="SVGID_88_">
			<use xlink:href="#SVGID_87_"  style="overflow:visible;"/>
		</clipPath>
		<path class="st47" d="M391.5,250.5h-2c-0.7-3.3-3.7-5.8-7.2-5.8s-6.5,2.5-7.2,5.8h-2v3.1h2c0.7,3.3,3.7,5.8,7.2,5.8
			s6.5-2.5,7.2-5.8h2V250.5z M382.3,247.3c2.1,0,3.9,1.3,4.5,3.2h-9C378.5,248.6,380.3,247.3,382.3,247.3 M382.3,256.8
			c-2.1,0-3.9-1.3-4.5-3.2h9C386.2,255.4,384.4,256.8,382.3,256.8"/>
	</g>
</g>
<rect x="599.3" y="404.4" transform="matrix(0.9654 -0.2607 0.2607 0.9654 -85.3151 175.6634)" class="st0" width="40.3" height="10.1"/>
<g>
	<path d="M486.2,372.5l0.1,0.4l-3.6,1l0.6,2.1l-0.4,0.1l-0.7-2.6L486.2,372.5z"/>
	<path d="M483.4,377.8c-0.2-0.8,0.2-1.4,1-1.7c0.8-0.2,1.5,0.1,1.8,0.9c0.2,0.8-0.2,1.4-1,1.6l-0.6-2l-0.1,0c-0.7,0.2-1,0.6-0.8,1.1
		c0.2,0.5,0.6,0.6,1,0.6l0.1,0.4C484.3,378.9,483.6,378.6,483.4,377.8z M484.8,376.6l0.4,1.6c0.4-0.1,0.8-0.5,0.6-1
		C485.7,376.7,485.4,376.5,484.8,376.6z"/>
	<path d="M486.5,380.8l-2.2-0.2l-0.1-0.3l2.4-1.8l0.1,0.4l-1.9,1.3l2.3,0.2l0.1,0.2l-1.8,1.4l2.2,0.1l0.1,0.4l-2.9-0.2l-0.1-0.3
		L486.5,380.8z"/>
	<path d="M485.2,384l2.6-0.8l0.1,0.4l-2.6,0.8L485.2,384z M488.6,383l0.5-0.1l0.1,0.5l-0.5,0.1L488.6,383z"/>
	<path d="M487.9,386.2c0.3-0.2,0.3-0.5,0.3-0.8c-0.1-0.3-0.3-0.5-0.5-0.4c-0.6,0.2,0.2,1.7-0.8,2c-0.5,0.1-0.9-0.2-1-0.8
		c-0.1-0.5-0.1-1,0.3-1.3l0.3,0.2c-0.3,0.3-0.4,0.6-0.3,0.9c0.1,0.3,0.3,0.5,0.6,0.5c0.7-0.2-0.2-1.7,0.8-2c0.5-0.1,0.8,0.2,1,0.7
		c0.1,0.4,0.1,0.9-0.3,1.2L487.9,386.2z"/>
	<path d="M486.3,387.8l4-1.1l0.1,0.4l-2.1,0.6c0.6-0.1,1,0.2,1.1,0.7c0.1,0.5-0.1,0.9-0.7,1.1l-1.8,0.5l-0.1-0.4l1.6-0.5
		c0.5-0.1,0.7-0.4,0.6-0.8c-0.1-0.5-0.6-0.6-1-0.5l-1.5,0.4L486.3,387.8z"/>
	<path d="M487.3,391.4c-0.1-0.4,0.1-0.8,0.5-0.9c0.9-0.3,1,1,1.5,1.4l0.1,0c0.3-0.1,0.5-0.4,0.4-0.8c-0.1-0.4-0.4-0.6-0.8-0.5l0-0.4
		c0.6,0,0.9,0.3,1.1,0.9c0.2,0.7,0,1.1-0.6,1.2l-1.5,0.4l0.1,0.4l-0.3,0.1l-0.2-0.9l0.3-0.1l0.4-0.1l-0.6-0.2
		C487.5,391.9,487.4,391.7,487.3,391.4z M488.5,392.2l0.7-0.2c-0.6-0.3-0.7-1.2-1.3-1c-0.3,0.1-0.4,0.3-0.3,0.6
		C487.7,391.9,488,392.1,488.5,392.2z"/>
	<path d="M488.1,394.3l-0.1-0.4l2.6-0.8l0.1,0.4l-0.8,0.2c0.5-0.1,0.9,0.2,1.1,0.7c0.1,0.5-0.1,0.9-0.6,1.1c0.6-0.1,1,0.2,1.1,0.7
		c0.1,0.5-0.1,0.9-0.6,1.1l-1.8,0.5l-0.1-0.4l1.7-0.5c0.4-0.1,0.6-0.4,0.5-0.8c-0.1-0.5-0.6-0.6-1-0.5l-1.6,0.5l-0.1-0.4l1.7-0.5
		c0.4-0.1,0.6-0.4,0.5-0.8c-0.1-0.5-0.6-0.6-1-0.5L488.1,394.3z"/>
	<path d="M492.3,401.9l-0.6-2.2l-1.9,0.5l-0.1-0.4l4-1.1l0.1,0.4l-1.7,0.5l0.6,2.2l1.7-0.5l0.1,0.4l-4,1.1l-0.1-0.4L492.3,401.9z"/>
	<path d="M490.9,403.8l2.6-0.8l0.1,0.4l-2.6,0.8L490.9,403.8z M494.2,402.8l0.5-0.1l0.1,0.5l-0.5,0.1L494.2,402.8z"/>
	<path d="M490.1,406.5c-0.2-0.8-0.1-1.3,0.4-1.4c0.1,0,0.3,0,0.4,0l0.3,0.4c-0.1-0.4,0.1-0.6,0.4-0.7c0.3-0.1,0.5,0.1,0.7,0.4
		c0.1-0.4,0.3-0.6,0.7-0.7c0.5-0.1,1,0.1,1.2,0.8c0.1,0.4,0,0.8-0.3,1.1l0.4,0c0.2,0.1,0.3,0.2,0.3,0.5l-0.4,0.1c0,0,0-0.1,0-0.1
		c-0.1-0.2-0.2-0.3-0.4-0.4c-0.1,0.1-0.2,0.1-0.3,0.1c-0.5,0.1-1-0.1-1.2-0.7c0-0.1-0.1-0.3-0.1-0.4c-0.1-0.3-0.3-0.4-0.5-0.3
		c-0.2,0.1-0.3,0.2-0.2,0.5l0.2,0.9c0.2,0.7-0.1,1-0.5,1.1C490.9,407.8,490.4,407.4,490.1,406.5z M490.5,406.5
		c0.2,0.6,0.4,0.8,0.8,0.7c0.3-0.1,0.4-0.3,0.3-0.7l-0.3-0.9c-0.2-0.2-0.4-0.3-0.5-0.3c-0.4,0.1-0.4,0.4-0.3,1L490.5,406.5z
		 M492.7,405.7c0.1,0.3,0.4,0.5,0.8,0.4c0.4-0.1,0.6-0.5,0.5-0.8c-0.1-0.3-0.4-0.6-0.8-0.4C492.7,405,492.6,405.4,492.7,405.7z"/>
	<path d="M492.1,408.1l4-1.1l0.1,0.4L494,408c0.6-0.1,1,0.2,1.1,0.7c0.1,0.5-0.1,0.9-0.7,1.1l-1.8,0.5l-0.1-0.4l1.6-0.5
		c0.5-0.1,0.7-0.4,0.6-0.8c-0.1-0.5-0.6-0.6-1-0.5l-1.5,0.4L492.1,408.1z"/>
	<path d="M494.3,411.9l0.2,0.4c-0.5,0.2-0.7,0.8-0.5,1.3s0.5,0.8,0.9,0.7c1.1-0.3-0.1-2.4,1.3-2.8c0.6-0.2,1.2,0.2,1.4,1
		c0.2,0.6,0,1.3-0.7,1.6l-0.3-0.3c0.6-0.2,0.7-0.7,0.6-1.2c-0.2-0.5-0.5-0.8-0.9-0.7c-1.1,0.3,0.1,2.4-1.3,2.8
		c-0.6,0.2-1.2-0.2-1.4-1.1C493.4,413,493.6,412.3,494.3,411.9z"/>
	<path d="M496.6,415.3l-0.1-0.5l0.3-0.1l0.1,0.5l0.7-0.2l0.1,0.4l-0.7,0.2l0.2,0.6l-0.3,0.1l-0.2-0.6l-1.7,0.5
		c-0.2,0.1-0.3,0.2-0.2,0.4l0.1,0.3l-0.3,0.1l-0.1-0.5c-0.1-0.3,0-0.5,0.4-0.6L496.6,415.3z"/>
	<path d="M494.8,417.6l2.6-0.8l0.1,0.4l-0.8,0.2l0.7,0c0.3,0.1,0.4,0.4,0.4,0.8l-0.4,0.1c-0.1-0.6-0.3-0.9-1.1-0.8l-1.5,0.4
		L494.8,417.6z"/>
	<path d="M495.6,420.7c-0.2-0.8,0.2-1.4,1-1.7c0.8-0.2,1.5,0.1,1.8,0.9c0.2,0.8-0.2,1.4-1,1.6l-0.6-2l-0.1,0c-0.7,0.2-1,0.6-0.8,1.1
		c0.2,0.5,0.6,0.6,1,0.6l0.1,0.4C496.6,421.7,495.8,421.5,495.6,420.7z M497,419.4l0.4,1.6c0.4-0.1,0.8-0.5,0.6-1
		C497.9,419.5,497.6,419.3,497,419.4z"/>
	<path d="M496.5,423.7c-0.2-0.8,0.2-1.4,1-1.7c0.8-0.2,1.5,0.1,1.8,0.9c0.2,0.8-0.2,1.4-1,1.6l-0.6-2l-0.1,0c-0.7,0.2-1,0.6-0.8,1.1
		c0.2,0.5,0.6,0.6,1,0.6l0.1,0.4C497.4,424.7,496.7,424.5,496.5,423.7z M497.9,422.5l0.4,1.6c0.4-0.1,0.8-0.5,0.6-1
		C498.8,422.6,498.4,422.4,497.9,422.5z"/>
	<path d="M499.4,425.1l-0.1-0.5l0.3-0.1l0.1,0.5l0.7-0.2l0.1,0.4l-0.7,0.2l0.2,0.6l-0.3,0.1l-0.2-0.6l-1.7,0.5
		c-0.2,0.1-0.3,0.2-0.2,0.4l0.1,0.3l-0.3,0.1l-0.1-0.5c-0.1-0.3,0-0.5,0.4-0.6L499.4,425.1z"/>
</g>
<g>
	<path d="M395.2,797.9l0.1-0.4l3.6,0.9l0.5-2.1l0.4,0.1l-0.7,2.6L395.2,797.9z"/>
	<path d="M400.3,794.7c-0.2,0.8-0.9,1.1-1.7,0.9c-0.8-0.2-1.3-0.9-1.1-1.6c0.2-0.8,0.8-1.1,1.7-0.9l-0.5,2l0.1,0
		c0.7,0.2,1.1,0,1.3-0.6c0.1-0.5-0.2-0.8-0.6-1l0.1-0.4C400.1,793.4,400.6,793.9,400.3,794.7z M398.5,795.1l0.4-1.6
		c-0.4-0.1-0.9,0-1.1,0.6C397.8,794.5,398,794.9,398.5,795.1z"/>
	<path d="M399.2,790.6l1.8,1.3l-0.1,0.3l-2.9,0.3l0.1-0.4l2.3-0.2l-1.9-1.3l0.1-0.2l2.3-0.3l-1.9-1.2l0.1-0.4l2.4,1.7l-0.1,0.3
		L399.2,790.6z"/>
	<path d="M398.5,787.7l-0.5-0.1l0.1-0.5l0.5,0.1L398.5,787.7z M401.9,788.5l-2.7-0.7l0.1-0.4l2.7,0.7L401.9,788.5z"/>
	<path d="M400.6,785.2c-0.3,0.1-0.6,0.3-0.6,0.6c-0.1,0.3,0,0.6,0.3,0.7c0.6,0.2,0.7-1.6,1.7-1.3c0.5,0.1,0.7,0.6,0.5,1.2
		c-0.1,0.5-0.4,0.9-0.9,0.9l-0.1-0.3c0.4-0.1,0.6-0.4,0.7-0.7c0.1-0.3,0-0.6-0.3-0.7c-0.7-0.2-0.7,1.6-1.7,1.3
		c-0.5-0.1-0.6-0.6-0.5-1.1c0.1-0.4,0.4-0.8,0.9-0.9L400.6,785.2z"/>
	<path d="M402.9,784.7l-4-1l0.1-0.4l2.2,0.6c-0.5-0.2-0.8-0.7-0.6-1.2c0.1-0.5,0.5-0.8,1.2-0.6l1.8,0.5l-0.1,0.4l-1.6-0.4
		c-0.5-0.1-0.8,0-0.9,0.4c-0.1,0.5,0.2,0.9,0.6,1l1.6,0.4L402.9,784.7z"/>
	<path d="M403.8,781c-0.1,0.4-0.5,0.7-0.9,0.5c-0.9-0.2-0.3-1.4-0.6-2l-0.1,0c-0.4-0.1-0.6,0-0.7,0.5c-0.1,0.4,0,0.7,0.4,0.9
		l-0.2,0.3c-0.5-0.3-0.7-0.7-0.5-1.3c0.2-0.7,0.5-0.9,1.1-0.8l1.5,0.4l0.1-0.4l0.3,0.1L404,780l-0.3-0.1l-0.4-0.1l0.4,0.5
		C403.9,780.5,403.9,780.8,403.8,781z M403.1,779.8l-0.7-0.2c0.4,0.5,0,1.4,0.6,1.5c0.3,0.1,0.5-0.1,0.6-0.3
		C403.7,780.4,403.6,780.1,403.1,779.8z"/>
	<path d="M404.5,778.1l-0.1,0.4l-2.7-0.7l0.1-0.4l0.8,0.2c-0.5-0.2-0.7-0.6-0.6-1.1c0.1-0.5,0.5-0.8,1.1-0.6
		c-0.5-0.2-0.7-0.7-0.6-1.2c0.1-0.5,0.5-0.8,1.1-0.6l1.8,0.5l-0.1,0.4l-1.7-0.4c-0.4-0.1-0.7,0-0.8,0.4c-0.1,0.5,0.2,0.9,0.6,1
		l1.6,0.4l-0.1,0.4l-1.7-0.4c-0.4-0.1-0.7,0-0.8,0.4c-0.1,0.5,0.2,0.9,0.6,1L404.5,778.1z"/>
	<path d="M404.8,769.4l-0.6,2.2l1.9,0.5l-0.1,0.4l-4-1l0.1-0.4l1.7,0.4l0.6-2.2l-1.7-0.4l0.1-0.4l4,1l-0.1,0.4L404.8,769.4z"/>
	<path d="M403.6,767.8l-0.5-0.1l0.1-0.5l0.5,0.1L403.6,767.8z M407,768.6l-2.7-0.7l0.1-0.4l2.7,0.7L407,768.6z"/>
	<path d="M409,766.6c-0.2,0.8-0.5,1.2-1,1c-0.1,0-0.3-0.1-0.3-0.2l-0.1-0.5c-0.1,0.4-0.4,0.5-0.7,0.4c-0.3-0.1-0.4-0.3-0.4-0.7
		c-0.2,0.3-0.6,0.4-0.9,0.3c-0.5-0.1-0.8-0.6-0.7-1.3c0.1-0.4,0.4-0.7,0.8-0.8l-0.4-0.2c-0.1-0.2-0.1-0.3,0-0.6l0.4,0.1
		c0,0,0,0.1,0,0.1c0,0.2,0,0.4,0.2,0.5c0.1,0,0.2,0,0.3,0c0.5,0.1,0.8,0.6,0.7,1.2c0,0.1-0.1,0.3-0.2,0.4c0,0.3,0.1,0.5,0.3,0.5
		c0.2,0.1,0.3-0.1,0.4-0.4l0.2-0.9c0.2-0.7,0.6-0.8,1-0.7C409,765.1,409.2,765.6,409,766.6z M406.4,766c0.1-0.3-0.1-0.7-0.5-0.8
		c-0.4-0.1-0.7,0.1-0.8,0.5c-0.1,0.3,0.1,0.7,0.5,0.8C406,766.5,406.3,766.3,406.4,766z M408.7,766.4c0.2-0.6,0-0.9-0.3-1
		c-0.3-0.1-0.5,0-0.6,0.4l-0.2,0.9c0,0.3,0.1,0.5,0.3,0.5c0.4,0.1,0.6-0.1,0.7-0.7L408.7,766.4z"/>
	<path d="M408.1,764.2l-4-1l0.1-0.4l2.2,0.6c-0.5-0.2-0.8-0.7-0.6-1.2c0.1-0.5,0.5-0.8,1.2-0.6l1.8,0.5l-0.1,0.4l-1.6-0.4
		c-0.5-0.1-0.8,0-0.9,0.4c-0.1,0.5,0.2,0.9,0.6,1l1.6,0.4L408.1,764.2z"/>
	<path d="M408.1,759.8l0-0.4c0.5,0.1,1-0.3,1.1-0.9c0.1-0.6,0-1-0.4-1.1c-1.1-0.3-1.1,2.1-2.6,1.8c-0.6-0.2-0.9-0.8-0.7-1.6
		c0.2-0.6,0.6-1.1,1.4-1.1l0.1,0.4c-0.6-0.1-1,0.3-1.1,0.8c-0.1,0.5,0.1,0.9,0.4,1c1.1,0.3,1.1-2.2,2.6-1.8c0.6,0.1,0.9,0.8,0.7,1.7
		C409.4,759.3,408.9,759.8,408.1,759.8z"/>
	<path d="M407.8,755.7l-0.1,0.5l-0.3-0.1l0.1-0.5l-0.7-0.2l0.1-0.4l0.7,0.2l0.2-0.6l0.3,0.1l-0.2,0.6l1.7,0.4c0.2,0,0.3,0,0.4-0.2
		l0.1-0.3l0.3,0.1l-0.1,0.5c-0.1,0.3-0.3,0.5-0.6,0.4L407.8,755.7z"/>
	<path d="M410.5,754.6l-2.7-0.7l0.1-0.4l0.8,0.2l-0.6-0.4c-0.2-0.2-0.1-0.5,0-0.9l0.4,0.1c-0.3,0.6-0.2,1,0.6,1.3l1.5,0.4
		L410.5,754.6z"/>
	<path d="M411.4,751.5c-0.2,0.8-0.9,1.1-1.7,0.9c-0.8-0.2-1.3-0.9-1.1-1.6c0.2-0.8,0.8-1.1,1.7-0.9l-0.5,2l0.1,0
		c0.7,0.2,1.1,0,1.3-0.6c0.1-0.5-0.2-0.8-0.6-1l0.1-0.4C411.1,750.2,411.6,750.7,411.4,751.5z M409.6,751.9l0.4-1.6
		c-0.4-0.1-0.9,0-1.1,0.6C408.8,751.4,409,751.7,409.6,751.9z"/>
	<path d="M412.2,748.5c-0.2,0.8-0.9,1.1-1.7,0.9c-0.8-0.2-1.3-0.9-1.1-1.6c0.2-0.8,0.8-1.1,1.7-0.9l-0.5,2l0.1,0
		c0.7,0.2,1.1,0,1.3-0.6c0.1-0.5-0.2-0.9-0.6-1l0.1-0.4C411.9,747.1,412.4,747.7,412.2,748.5z M410.3,748.9l0.4-1.6
		c-0.4-0.1-0.9,0-1.1,0.6C409.6,748.3,409.8,748.7,410.3,748.9z"/>
	<path d="M410.3,745.8l-0.1,0.5l-0.3-0.1l0.1-0.5l-0.7-0.2l0.1-0.4l0.7,0.2l0.2-0.6l0.3,0.1l-0.2,0.6l1.7,0.4c0.2,0.1,0.3,0,0.4-0.2
		l0.1-0.3l0.3,0.1l-0.1,0.5c-0.1,0.3-0.3,0.5-0.6,0.4L410.3,745.8z"/>
</g>
<g>
	<g>
		<defs>
			<rect id="SVGID_89_" width="1087.5" height="906.7"/>
		</defs>
		<clipPath id="SVGID_90_">
			<use xlink:href="#SVGID_89_"  style="overflow:visible;"/>
		</clipPath>
		<g class="st48">
			<path class="st41" d="M345.5,408.2l1.6,1.1l-0.3,0.4l-3.4-2.3l0.7-1.1c0.5-0.8,1.1-1,1.7-0.6c0.6,0.4,0.6,0.9,0.2,1.6
				c0.8-0.7,2,0.1,2.4,0l0.1,0l-0.3,0.5c-0.8-0.4-1.8-0.7-2.4,0.1L345.5,408.2z M344,407.2l1.2,0.8l0.5-0.8c0.3-0.5,0.3-0.9-0.1-1.2
				c-0.4-0.3-0.7-0.2-1.1,0.4L344,407.2z"/>
			<path class="st41" d="M349.3,406.2c-0.2,0.4-0.7,0.5-1,0.2c-0.8-0.5,0.2-1.4,0.1-2.1l-0.1-0.1c-0.3-0.2-0.6-0.2-0.8,0.2
				c-0.3,0.4-0.2,0.6,0.1,1l-0.3,0.2c-0.4-0.4-0.4-0.9,0-1.4c0.4-0.6,0.8-0.7,1.3-0.4l1.3,0.9l0.3-0.4l0.3,0.2l-0.5,0.7l-0.3-0.2
				l-0.3-0.2l0.2,0.6C349.5,405.8,349.5,406,349.3,406.2z M349.1,404.8l-0.6-0.4c0.2,0.6-0.5,1.3,0,1.7c0.3,0.2,0.5,0.1,0.7-0.1
				C349.3,405.6,349.4,405.3,349.1,404.8z"/>
			<path class="st41" d="M351.1,403.6l-2.9-0.6l0.3-0.4l2.3,0.5l-1.3-2l0.2-0.3l1.6,2.5L351.1,403.6z"/>
			<path class="st41" d="M352.9,401c-0.5,0.7-1.2,0.7-1.9,0.3c-0.7-0.5-0.9-1.3-0.5-1.9c0.5-0.7,1.1-0.7,1.9-0.3l-1.2,1.7l0.1,0
				c0.6,0.4,1.1,0.4,1.4-0.1c0.3-0.5,0.1-0.9-0.2-1.1l0.2-0.4C353.1,399.6,353.4,400.3,352.9,401z M351.1,400.7l0.9-1.3
				c-0.4-0.3-0.9-0.3-1.2,0.2C350.5,399.9,350.6,400.4,351.1,400.7z"/>
			<path class="st41" d="M354,399.3l-2.3-1.6l0.2-0.3l0.7,0.5c-0.4-0.4-0.5-0.9-0.2-1.3c0.3-0.4,0.8-0.5,1.3-0.2l1.5,1l-0.2,0.3
				l-1.4-1c-0.4-0.3-0.8-0.3-1,0.1c-0.3,0.4-0.1,0.9,0.2,1.1l1.3,0.9L354,399.3z"/>
			<path class="st41" d="M355,394.3c-0.3-0.1-0.6,0.1-0.8,0.3c-0.2,0.3-0.2,0.6,0,0.7c0.5,0.4,1.2-1.2,2-0.6
				c0.4,0.3,0.4,0.8,0.1,1.3c-0.3,0.4-0.7,0.7-1.2,0.6l0-0.4c0.4,0,0.7-0.1,0.9-0.4c0.2-0.3,0.2-0.6,0-0.8c-0.6-0.4-1.2,1.2-2.1,0.6
				c-0.4-0.3-0.4-0.8-0.1-1.2c0.2-0.4,0.7-0.6,1.1-0.5L355,394.3z"/>
			<path class="st41" d="M356.8,393.7l0.7,0.5l-0.2,0.3l-3.4-2.3l0.2-0.3l1.8,1.3c-0.4-0.4-0.5-0.9-0.2-1.4c0.3-0.5,1-0.7,1.8-0.1
				c0.8,0.6,0.9,1.3,0.5,1.8C357.8,393.8,357.3,394,356.8,393.7z M355.9,392.1c-0.3,0.4-0.2,0.9,0.4,1.3c0.6,0.4,1.1,0.4,1.4-0.1
				c0.3-0.4,0.2-0.9-0.5-1.3C356.7,391.6,356.2,391.7,355.9,392.1z"/>
			<path class="st41" d="M359.4,389c0.7,0.5,0.8,1.3,0.4,1.9c-0.4,0.6-1.2,0.8-1.9,0.3c-0.7-0.5-0.8-1.3-0.4-1.9
				C357.9,388.7,358.7,388.5,359.4,389z M358.2,390.8c0.6,0.4,1.1,0.3,1.4-0.1c0.3-0.4,0.1-1-0.4-1.4c-0.6-0.4-1.1-0.4-1.4,0.1
				C357.4,389.9,357.6,390.4,358.2,390.8z"/>
			<path class="st41" d="M360,385.7l2.3,1.6l-0.2,0.3l-0.7-0.5c0.4,0.4,0.5,0.9,0.2,1.3c-0.3,0.4-0.8,0.5-1.3,0.2l-1.5-1l0.2-0.3
				l1.4,1c0.4,0.3,0.8,0.3,1-0.1c0.3-0.4,0.1-0.9-0.2-1.1l-1.3-0.9L360,385.7z"/>
			<path class="st41" d="M362.8,386.5l-2.3-1.6l0.2-0.3l0.7,0.5l-0.4-0.6c-0.1-0.3,0.1-0.5,0.3-0.8l0.3,0.2
				c-0.4,0.5-0.5,0.8,0.1,1.4l1.2,0.9L362.8,386.5z"/>
			<path class="st41" d="M364,384.8l-2.3-1.6l0.2-0.3l0.7,0.5c-0.4-0.4-0.5-0.9-0.2-1.3c0.3-0.4,0.8-0.5,1.3-0.2l1.5,1l-0.2,0.3
				l-1.4-1c-0.4-0.3-0.8-0.3-1,0.1c-0.3,0.4-0.1,0.9,0.2,1.1l1.3,0.9L364,384.8z"/>
			<path class="st41" d="M366.4,381.3c-0.5,0.7-1.2,0.7-1.9,0.3c-0.7-0.5-0.9-1.3-0.5-1.9c0.5-0.7,1.1-0.7,1.9-0.3l-1.2,1.7l0.1,0
				c0.6,0.4,1.1,0.4,1.4-0.1c0.3-0.5,0.1-0.9-0.2-1.1l0.2-0.4C366.6,379.9,366.9,380.6,366.4,381.3z M364.6,381l0.9-1.3
				c-0.4-0.3-0.9-0.3-1.2,0.2C364.1,380.2,364.1,380.6,364.6,381z"/>
			<path class="st41" d="M366.9,377.1l1.6,1.1l-0.3,0.4l-3.4-2.3l0.7-1.1c0.5-0.8,1.1-1,1.7-0.6c0.6,0.4,0.6,0.9,0.2,1.6
				c0.8-0.7,2,0.1,2.4,0l0.1,0l-0.3,0.5c-0.8-0.4-1.8-0.7-2.4,0.1L366.9,377.1z M365.4,376.1l1.2,0.8l0.5-0.8
				c0.3-0.5,0.3-0.9-0.1-1.2c-0.4-0.3-0.7-0.2-1.1,0.4L365.4,376.1z"/>
			<path class="st41" d="M367.4,373.7l-0.4-0.3l0.3-0.4l0.4,0.3L367.4,373.7z M370.3,375.6L368,374l0.2-0.3l2.3,1.6L370.3,375.6z"/>
			<path class="st41" d="M371.5,373.9l-2.9-0.6l0.3-0.4l2.3,0.5l-1.3-2l0.2-0.3l1.6,2.5L371.5,373.9z"/>
			<path class="st41" d="M373.3,371.4c-0.5,0.7-1.2,0.7-1.9,0.3c-0.7-0.5-0.9-1.3-0.5-1.9c0.5-0.7,1.1-0.7,1.9-0.3l-1.2,1.7l0.1,0
				c0.6,0.4,1.1,0.4,1.4-0.1c0.3-0.5,0.1-0.9-0.2-1.1l0.2-0.4C373.5,370,373.7,370.7,373.3,371.4z M371.4,371.1l0.9-1.3
				c-0.4-0.3-0.9-0.3-1.2,0.2C370.9,370.3,371,370.7,371.4,371.1z"/>
			<path class="st41" d="M374.3,369.7l-2.3-1.6l0.2-0.3l0.7,0.5l-0.4-0.6c-0.1-0.3,0.1-0.5,0.3-0.8l0.3,0.2
				c-0.4,0.5-0.5,0.8,0.1,1.4l1.2,0.9L374.3,369.7z"/>
		</g>
	</g>
	<g>
		<defs>
			<rect id="SVGID_91_" width="1087.5" height="906.7"/>
		</defs>
		<clipPath id="SVGID_92_">
			<use xlink:href="#SVGID_91_"  style="overflow:visible;"/>
		</clipPath>
		<g class="st49">
			<path class="st41" d="M641.4,564.6c0.3-0.3,0.3-0.5,0.3-0.9c-0.4-0.8-0.2-1.8,0.7-2.4c0.9-0.7,2-0.5,2.6,0.4
				c0.6,0.8,0.4,1.9-0.5,2.6c-0.9,0.7-2,0.5-2.6-0.3l0.1,0.3c0,0.3-0.1,0.5-0.3,0.7L641.4,564.6z M642.6,561.7
				c-0.8,0.5-0.9,1.4-0.5,2c0.5,0.7,1.3,0.8,2.1,0.2c0.7-0.5,0.9-1.4,0.5-2C644.2,561.2,643.3,561.1,642.6,561.7z"/>
			<path class="st41" d="M646.5,566.1l-2,1.4l-0.2-0.3l0.6-0.4c-0.5,0.2-0.9,0.1-1.2-0.3c-0.3-0.4-0.2-0.8,0.3-1.2l1.4-1l0.2,0.3
				l-1.3,0.9c-0.4,0.3-0.5,0.6-0.2,0.9c0.3,0.4,0.7,0.4,1.1,0.2l1.2-0.8L646.5,566.1z"/>
			<path class="st41" d="M645.2,568.8c-0.2-0.3-0.2-0.7,0.2-1c0.7-0.5,1.1,0.6,1.8,0.8l0.1-0.1c0.3-0.2,0.3-0.5,0.1-0.8
				c-0.2-0.3-0.5-0.4-0.9-0.2l-0.1-0.3c0.5-0.2,0.9,0,1.2,0.4c0.4,0.5,0.3,0.9-0.1,1.2l-1.2,0.8l0.2,0.3l-0.3,0.2l-0.5-0.7l0.3-0.2
				l0.3-0.2l-0.6,0C645.5,569.1,645.4,568.9,645.2,568.8z M646.5,569l0.6-0.4c-0.6,0-0.9-0.8-1.4-0.5c-0.2,0.2-0.3,0.4-0.1,0.6
				C645.7,569,646,569.1,646.5,569z"/>
			<path class="st41" d="M646.1,572.2c-0.4-0.6-0.5-1.1-0.1-1.3c0.1-0.1,0.2-0.1,0.3-0.1l0.4,0.2c-0.2-0.3-0.1-0.5,0.1-0.7
				c0.2-0.1,0.5-0.1,0.8,0.2c-0.1-0.3,0.1-0.6,0.4-0.8c0.4-0.3,0.9-0.2,1.3,0.3c0.2,0.3,0.2,0.7,0.1,1l0.3-0.1
				c0.2,0,0.3,0.1,0.4,0.3l-0.3,0.2c0,0,0,0,0-0.1c-0.1-0.2-0.2-0.2-0.5-0.2c-0.1,0.1-0.1,0.1-0.2,0.2c-0.4,0.3-0.9,0.2-1.2-0.3
				c-0.1-0.1-0.1-0.2-0.2-0.3c-0.2-0.2-0.4-0.2-0.5-0.1c-0.2,0.1-0.2,0.3,0,0.5l0.5,0.7c0.4,0.5,0.3,0.9-0.1,1.1
				C647.1,573.1,646.7,573,646.1,572.2z M646.4,572.1c0.3,0.5,0.6,0.6,0.9,0.4c0.2-0.1,0.3-0.4,0-0.7l-0.5-0.7
				c-0.2-0.1-0.4-0.2-0.6-0.1c-0.3,0.2-0.3,0.5,0,0.9L646.4,572.1z M648.1,570.8c0.2,0.3,0.5,0.3,0.8,0.1c0.3-0.2,0.3-0.6,0.2-0.8
				c-0.2-0.3-0.5-0.3-0.8-0.1C647.9,570.2,647.9,570.5,648.1,570.8z"/>
			<path class="st41" d="M647.8,574.6c-0.4-0.6-0.5-1.1-0.1-1.3c0.1-0.1,0.2-0.1,0.3-0.1l0.4,0.2c-0.2-0.3-0.1-0.5,0.1-0.7
				c0.2-0.1,0.5-0.1,0.8,0.2c-0.1-0.3,0.1-0.6,0.4-0.8c0.4-0.3,0.9-0.2,1.3,0.3c0.2,0.3,0.2,0.7,0.1,1l0.3-0.1
				c0.2,0,0.3,0.1,0.4,0.3l-0.3,0.2c0,0,0,0,0-0.1c-0.1-0.2-0.2-0.2-0.5-0.2c-0.1,0.1-0.1,0.1-0.2,0.2c-0.4,0.3-0.9,0.2-1.2-0.3
				c-0.1-0.1-0.1-0.2-0.2-0.3c-0.2-0.2-0.4-0.2-0.5-0.1c-0.2,0.1-0.2,0.3,0,0.5l0.5,0.7c0.4,0.5,0.3,0.9-0.1,1.1
				C648.8,575.4,648.3,575.3,647.8,574.6z M648.1,574.5c0.3,0.5,0.6,0.6,0.9,0.4c0.2-0.1,0.3-0.4,0-0.7l-0.5-0.7
				c-0.2-0.1-0.4-0.2-0.6-0.1c-0.3,0.2-0.3,0.5,0,0.9L648.1,574.5z M649.7,573.1c0.2,0.3,0.5,0.3,0.8,0.1s0.3-0.6,0.2-0.8
				c-0.2-0.3-0.5-0.3-0.8-0.1C649.5,572.5,649.5,572.9,649.7,573.1z"/>
			<path class="st41" d="M648.9,576l0.3-0.2l0.2,0.3c0.1,0.1,0.2,0.1,0.4,0.1l0.7-0.2l1.4-2.4l0.3,0.4l-1.2,1.9l2.1-0.6l0.2,0.3
				l-3.5,0.9c-0.2,0.1-0.4,0-0.5-0.2L648.9,576z"/>
		</g>
	</g>
	<g>
		<defs>
			<rect id="SVGID_93_" width="1087.5" height="906.7"/>
		</defs>
		<clipPath id="SVGID_94_">
			<use xlink:href="#SVGID_93_"  style="overflow:visible;"/>
		</clipPath>
		<g class="st50">
			<path class="st41" d="M652.9,578.2l-1.5,1l-0.2-0.3l3.1-2.2l0.7,1c0.5,0.7,0.6,1.2,0,1.6c-0.5,0.4-1,0.2-1.4-0.3
				c0.4,1-0.7,1.7-0.8,2l-0.1,0l-0.3-0.4c0.6-0.6,1.2-1.3,0.7-2.1L652.9,578.2z M654.2,577.3l-1.1,0.8l0.5,0.7
				c0.3,0.5,0.7,0.5,1,0.3c0.4-0.3,0.4-0.6,0-1.1L654.2,577.3z"/>
			<path class="st41" d="M653.1,581.6l2-1.4l0.2,0.3l-2,1.4L653.1,581.6z M655.7,579.7l0.4-0.3l0.3,0.4l-0.4,0.3L655.7,579.7z"/>
			<path class="st41" d="M654.2,583.1l1.5-2.3l0.2,0.3l-1.2,1.8l2.1-0.5l0.2,0.3l-2.7,0.6L654.2,583.1z"/>
			<path class="st41" d="M655.8,585.5c-0.5-0.6-0.2-1.3,0.4-1.7c0.6-0.5,1.4-0.4,1.8,0.2c0.4,0.6,0.3,1.2-0.4,1.7l-1.1-1.6l-0.1,0
				c-0.5,0.4-0.7,0.8-0.4,1.2c0.3,0.4,0.7,0.4,1,0.2l0.2,0.3C656.9,586.1,656.2,586.1,655.8,585.5z M656.6,584l0.9,1.2
				c0.3-0.2,0.5-0.6,0.2-1.1C657.4,583.8,657.1,583.7,656.6,584z"/>
			<path class="st41" d="M656.8,586.9l2-1.4l0.2,0.3l-0.6,0.4l0.6-0.2c0.3,0,0.4,0.2,0.6,0.5l-0.3,0.2c-0.3-0.5-0.6-0.7-1.2-0.3
				l-1.1,0.8L656.8,586.9z"/>
		</g>
	</g>
</g>
<g>
	<path d="M557.4,460.6l0.4,0.2l-1.6,3.4l2,1l-0.2,0.4l-2.4-1.2L557.4,460.6z"/>
	<path d="M559.5,466.2c-0.8-0.4-0.9-1.1-0.6-1.8c0.4-0.8,1.1-1.1,1.8-0.7c0.7,0.4,0.9,1,0.5,1.8l-1.9-0.9l0,0.1
		c-0.3,0.6-0.2,1.1,0.3,1.4c0.5,0.2,0.9,0,1.1-0.4l0.4,0.2C560.9,466.2,560.2,466.6,559.5,466.2z M559.5,464.4l1.5,0.7
		c0.2-0.4,0.2-0.9-0.3-1.1C560.2,463.7,559.8,463.9,559.5,464.4z"/>
	<path d="M562.3,467.6c-0.8-0.4-0.9-1.1-0.6-1.8c0.4-0.8,1.1-1.1,1.8-0.7c0.7,0.4,0.9,1,0.5,1.8l-1.9-0.9l0,0.1
		c-0.3,0.6-0.2,1.1,0.3,1.4c0.5,0.2,0.9,0,1.1-0.4l0.4,0.2C563.7,467.6,563.1,468,562.3,467.6z M562.3,465.7l1.5,0.7
		c0.2-0.4,0.2-0.9-0.3-1.1C563,465.1,562.6,465.2,562.3,465.7z"/>
	<path d="M568.6,468.4l-2-1l-0.8,1.7l-0.4-0.2l1.8-3.7l0.4,0.2l-0.8,1.6l2,1l0.8-1.6l0.4,0.2l-1.8,3.7l-0.4-0.2L568.6,468.4z"/>
	<path d="M568.9,470.8l1.2-2.5l0.4,0.2l-1.2,2.5L568.9,470.8z M570.4,467.6l0.2-0.4l0.4,0.2l-0.2,0.4L570.4,467.6z"/>
	<path d="M570.5,473.1c-0.7-0.4-1-0.8-0.8-1.2c0.1-0.1,0.2-0.2,0.3-0.3l0.5,0c-0.3-0.2-0.4-0.5-0.3-0.7c0.1-0.3,0.4-0.3,0.8-0.2
		c-0.2-0.3-0.2-0.6-0.1-1c0.2-0.5,0.7-0.7,1.4-0.4c0.4,0.2,0.6,0.6,0.6,0.9l0.2-0.3c0.2-0.1,0.4,0,0.5,0.1l-0.2,0.3c0,0,0,0-0.1,0
		c-0.2-0.1-0.4-0.1-0.6,0.1c0,0.1,0,0.2-0.1,0.3c-0.2,0.5-0.8,0.7-1.3,0.4c-0.1-0.1-0.3-0.1-0.3-0.2c-0.3-0.1-0.5,0-0.5,0.2
		c-0.1,0.2,0,0.3,0.3,0.5l0.8,0.4c0.6,0.3,0.7,0.7,0.5,1.1C571.9,473.4,571.4,473.5,570.5,473.1z M570.8,472.9
		c0.6,0.3,0.9,0.2,1.1-0.1c0.1-0.2,0-0.5-0.3-0.7l-0.9-0.4c-0.3,0-0.5,0.1-0.6,0.2c-0.2,0.3,0,0.6,0.5,0.9L570.8,472.9z
		 M571.6,470.7c0.3,0.2,0.7,0.1,0.9-0.3c0.2-0.4,0-0.7-0.3-0.9c-0.3-0.2-0.7,0-0.9,0.3C571.1,470.2,571.3,470.6,571.6,470.7z"/>
	<path d="M573,472.7l1.8-3.7l0.4,0.2l-1,2c0.3-0.5,0.8-0.6,1.3-0.4c0.5,0.2,0.6,0.7,0.4,1.3l-0.8,1.6l-0.4-0.2l0.7-1.5
		c0.2-0.4,0.1-0.8-0.2-1c-0.5-0.2-0.9,0-1.1,0.4l-0.7,1.4L573,472.7z"/>
	<path d="M578.2,473.1l-0.8,1.8l-0.4-0.2l1.8-3.7l1.2,0.6c0.9,0.4,1.2,0.9,0.9,1.6c-0.3,0.6-0.8,0.7-1.5,0.4c0.9,0.7,0.2,2,0.3,2.3
		l0,0.1l-0.5-0.2c0.2-0.9,0.5-1.9-0.5-2.4L578.2,473.1z M579,471.5l-0.6,1.3l0.9,0.4c0.6,0.3,0.9,0.1,1.1-0.3
		c0.2-0.4,0.1-0.8-0.5-1.1L579,471.5z"/>
	<path d="M583,476.1c-0.4,0.8-1.2,1-1.8,0.7c-0.7-0.3-1-1.1-0.6-1.9c0.4-0.8,1.2-1,1.8-0.7C583.1,474.5,583.4,475.3,583,476.1z
		 M581,475.1c-0.3,0.6-0.2,1.2,0.3,1.4c0.5,0.2,1,0,1.3-0.6c0.3-0.7,0.2-1.2-0.3-1.4C581.9,474.2,581.4,474.4,581,475.1z"/>
	<path d="M583.7,477.9c-0.4-0.2-0.6-0.6-0.3-1c0.4-0.8,1.4,0,2.1-0.2l0.1-0.1c0.2-0.3,0.1-0.6-0.3-0.8c-0.4-0.2-0.7-0.1-0.9,0.2
		l-0.3-0.3c0.4-0.4,0.8-0.5,1.4-0.2c0.6,0.3,0.8,0.7,0.5,1.2l-0.7,1.4l0.4,0.2l-0.1,0.3l-0.8-0.4l0.2-0.3l0.2-0.3l-0.6,0.3
		C584.1,478.1,583.9,478,583.7,477.9z M585.1,477.5l0.3-0.7c-0.6,0.2-1.4-0.3-1.6,0.3c-0.1,0.3,0,0.5,0.2,0.6
		C584.3,477.9,584.6,477.8,585.1,477.5z"/>
	<path d="M588.1,479.1c-0.4,0.5-0.9,0.6-1.3,0.4c-0.5-0.3-0.8-0.9-0.4-1.8c0.4-0.9,1.1-1,1.6-0.8c0.5,0.2,0.7,0.7,0.5,1.3l1-2
		l0.4,0.2l-1.8,3.7l-0.4-0.2L588.1,479.1z M587,479.2c0.5,0.2,0.9,0,1.3-0.7c0.3-0.7,0.2-1.2-0.3-1.4c-0.4-0.2-0.9,0-1.3,0.6
		C586.5,478.5,586.6,479,587,479.2z"/>
</g>
<g>
	<path d="M183,226.7l0.4,0.3l-2.2,3l1.8,1.3l-0.2,0.3l-2.1-1.6L183,226.7z"/>
	<path d="M186,232.3c-0.5,0.7-1.3,0.8-1.9,0.3c-0.6-0.4-0.7-1.3-0.2-2s1.3-0.8,1.9-0.3C186.3,230.8,186.5,231.6,186,232.3z
		 M184.2,231c-0.4,0.6-0.4,1.1,0,1.4c0.4,0.3,1,0.2,1.4-0.4c0.4-0.6,0.4-1.1,0-1.4C185.2,230.3,184.6,230.4,184.2,231z"/>
	<path d="M186.2,234.3c-0.3-0.3-0.4-0.7-0.2-1.1c0.6-0.7,1.4,0.2,2.1,0.2l0.1-0.1c0.2-0.3,0.2-0.6-0.2-0.9c-0.4-0.3-0.6-0.2-1,0.1
		l-0.2-0.3c0.4-0.4,0.9-0.4,1.4,0c0.6,0.4,0.7,0.8,0.3,1.3l-0.9,1.3l0.4,0.3l-0.2,0.3l-0.7-0.5l0.2-0.3l0.2-0.3l-0.6,0.2
		C186.7,234.5,186.4,234.4,186.2,234.3z M187.7,234.1l0.5-0.6c-0.6,0.1-1.3-0.6-1.7,0c-0.2,0.3-0.1,0.5,0.1,0.7
		C186.9,234.3,187.2,234.3,187.7,234.1z"/>
	<path d="M188.7,236l-0.3-0.2l1.6-2.2l0.3,0.2l-0.5,0.6c0.4-0.4,0.9-0.4,1.3-0.1c0.4,0.3,0.5,0.8,0.2,1.2c0.4-0.4,0.9-0.4,1.3-0.1
		c0.4,0.3,0.5,0.8,0.2,1.2l-1.1,1.5l-0.3-0.2l1-1.4c0.3-0.4,0.3-0.7-0.1-0.9c-0.4-0.3-0.9-0.1-1.1,0.2l-1,1.3l-0.3-0.2l1-1.4
		c0.3-0.4,0.3-0.7-0.1-0.9c-0.4-0.3-0.9-0.1-1.1,0.2L188.7,236z"/>
	<path d="M193.1,238.2l-1.3,1.8l-0.3-0.2l2.5-3.3l0.3,0.2l-0.5,0.7c0.5-0.4,0.9-0.4,1.4-0.1c0.5,0.4,0.7,1.1,0.1,1.8
		c-0.6,0.8-1.3,0.8-1.8,0.5C193,239.3,192.9,238.8,193.1,238.2z M194.8,237.4c-0.4-0.3-0.9-0.2-1.3,0.4c-0.4,0.6-0.4,1.1,0,1.4
		c0.4,0.3,0.9,0.2,1.3-0.4C195.3,238.2,195.2,237.7,194.8,237.4z"/>
	<path d="M194.9,240.6l1.6-2.2l0.3,0.2l-1.6,2.2L194.9,240.6z M197,237.8l0.3-0.4l0.4,0.3l-0.3,0.4L197,237.8z"/>
	<path d="M197.6,239.6l-0.4-0.3l0.2-0.3l0.4,0.3l0.4-0.6l0.3,0.2l-0.4,0.6l0.5,0.4l-0.2,0.3l-0.5-0.4l-1,1.4c-0.1,0.2-0.1,0.3,0,0.4
		l0.3,0.2l-0.2,0.3l-0.4-0.3c-0.3-0.2-0.3-0.4-0.1-0.7L197.6,239.6z"/>
	<path d="M199.5,244l1.2-4.2l0.4,0.3l-1,3.7l3.2-2.1l0.4,0.3l-3.7,2.4L199.5,244z"/>
	<path d="M201.8,245.8c-0.3-0.3-0.4-0.7-0.2-1.1c0.6-0.7,1.4,0.2,2.1,0.2l0.1-0.1c0.2-0.3,0.2-0.6-0.2-0.9c-0.4-0.3-0.6-0.2-1,0.1
		l-0.2-0.3c0.4-0.4,0.9-0.4,1.4,0c0.6,0.4,0.7,0.8,0.3,1.3l-0.9,1.3l0.4,0.3l-0.2,0.3l-0.7-0.5l0.2-0.3l0.2-0.3l-0.6,0.2
		C202.2,246,202,245.9,201.8,245.8z M203.2,245.6l0.5-0.6c-0.6,0.1-1.3-0.6-1.7,0c-0.2,0.3-0.1,0.5,0.1,0.7
		C202.4,245.8,202.8,245.9,203.2,245.6z"/>
	<path d="M203.9,247.3l2.5-3.3l0.3,0.2l-2.5,3.3L203.9,247.3z"/>
	<path d="M205.8,248.8c-0.7-0.5-0.7-1.3-0.2-1.9c0.5-0.7,1.3-0.9,1.9-0.4c0.7,0.5,0.7,1.2,0.2,1.9l-1.7-1.3l0,0.1
		c-0.4,0.5-0.4,1.1,0,1.4c0.5,0.3,0.9,0.2,1.2-0.2l0.4,0.3C207.2,249,206.5,249.3,205.8,248.8z M206.1,246.9l1.3,1
		c0.3-0.4,0.4-0.8-0.1-1.2C207,246.4,206.6,246.5,206.1,246.9z"/>
</g>
<g>
	<path d="M423.2,366.4v2h-0.4v-4.1h1.3c1,0,1.5,0.3,1.5,1c0,0.7-0.4,1-1.2,1.1c1.1,0.3,1.1,1.7,1.3,1.9v0.1h-0.6
		c-0.2-0.9-0.4-1.9-1.5-1.9L423.2,366.4z M423.2,364.6v1.5h1c0.6,0,0.9-0.3,0.9-0.7c0-0.5-0.3-0.7-0.9-0.7H423.2z"/>
	<path d="M427.4,368.4c-0.9,0-1.3-0.6-1.3-1.4c0-0.9,0.5-1.5,1.3-1.5c0.8,0,1.3,0.5,1.3,1.4h-2.1v0.1c0,0.7,0.3,1.1,0.9,1.1
		c0.6,0,0.8-0.4,0.8-0.8h0.4C428.7,367.8,428.3,368.4,427.4,368.4z M426.6,366.8h1.6c0-0.4-0.2-0.9-0.8-0.9
		C427,365.9,426.7,366.2,426.6,366.8z"/>
	<path d="M429.4,368.4v-2.7h0.4v0.9c0.1-0.6,0.5-0.9,1-0.9c0.5,0,0.9,0.3,0.9,1v1.8h-0.4v-1.7c0-0.5-0.2-0.8-0.6-0.8
		c-0.5,0-0.8,0.4-0.8,0.9v1.6L429.4,368.4L429.4,368.4z"/>
	<path d="M432.6,368.4v-2.7h0.4v0.9c0.1-0.6,0.5-0.9,1-0.9c0.5,0,0.9,0.3,0.9,1v1.8h-0.4v-1.7c0-0.5-0.2-0.8-0.6-0.8
		c-0.5,0-0.8,0.4-0.8,0.9v1.6L432.6,368.4L432.6,368.4z"/>
	<path d="M436.9,368.4c-0.9,0-1.3-0.6-1.3-1.4c0-0.9,0.5-1.5,1.3-1.5c0.8,0,1.3,0.5,1.3,1.4H436v0.1c0,0.7,0.3,1.1,0.9,1.1
		c0.6,0,0.8-0.4,0.8-0.8h0.4C438.1,367.8,437.7,368.4,436.9,368.4z M436,366.8h1.6c0-0.4-0.2-0.9-0.8-0.9
		C436.4,365.9,436.1,366.2,436,366.8z"/>
	<path d="M438.8,368.4v-4.1h0.4v4.1H438.8z"/>
	<path d="M440.1,368.4v-4.1h0.4v4.1H440.1z"/>
	<path d="M442.6,367.3l0.4-0.1c0.1,0.5,0.5,0.8,1.1,0.8s0.9-0.3,0.9-0.7c0-1.1-2.4-0.6-2.4-2.1c0-0.7,0.5-1.1,1.3-1.1
		c0.7,0,1.2,0.3,1.4,1.1l-0.4,0.2c-0.1-0.6-0.5-0.9-1-0.9c-0.6,0-0.9,0.3-0.9,0.7c0,1.1,2.4,0.5,2.4,2.1c0,0.6-0.5,1.1-1.4,1.1
		C443.4,368.4,442.7,368.1,442.6,367.3z"/>
	<path d="M446.5,366H446v-0.3h0.5v-0.7h0.4v0.7h0.6v0.3h-0.6v1.7c0,0.2,0.1,0.3,0.3,0.3h0.3v0.4H447c-0.3,0-0.5-0.2-0.5-0.5V366z"/>
	<path d="M448.2,368.4v-2.7h0.4v0.8l0.2-0.7c0.2-0.2,0.5-0.2,0.9-0.2v0.4c-0.6-0.1-1,0.1-1.1,0.9v1.5L448.2,368.4L448.2,368.4z"/>
	<path d="M451.4,368.4c-0.9,0-1.3-0.6-1.3-1.4c0-0.9,0.5-1.5,1.3-1.5c0.8,0,1.3,0.5,1.3,1.4h-2.1v0.1c0,0.7,0.3,1.1,0.9,1.1
		c0.6,0,0.8-0.4,0.8-0.8h0.4C452.6,367.8,452.2,368.4,451.4,368.4z M450.6,366.8h1.6c0-0.4-0.2-0.9-0.8-0.9
		C450.9,365.9,450.6,366.2,450.6,366.8z"/>
	<path d="M454.5,368.4c-0.9,0-1.3-0.6-1.3-1.4c0-0.9,0.5-1.5,1.3-1.5c0.8,0,1.3,0.5,1.3,1.4h-2.1v0.1c0,0.7,0.3,1.1,0.9,1.1
		c0.6,0,0.8-0.4,0.8-0.8h0.4C455.8,367.8,455.4,368.4,454.5,368.4z M453.7,366.8h1.6c0-0.4-0.2-0.9-0.8-0.9
		C454.1,365.9,453.8,366.2,453.7,366.8z"/>
	<path d="M456.7,366h-0.5v-0.3h0.5v-0.7h0.4v0.7h0.6v0.3h-0.6v1.7c0,0.2,0.1,0.3,0.3,0.3h0.3v0.4h-0.5c-0.3,0-0.5-0.2-0.5-0.5V366z"
		/>
</g>
<g>
	<path d="M345.2,223.3h0.4v3.7h2.2v0.4h-2.7V223.3z"/>
	<path d="M349.6,227.4c-0.9,0-1.3-0.6-1.3-1.4c0-0.9,0.5-1.4,1.3-1.4c0.8,0,1.3,0.5,1.3,1.4h-2.1v0.1c0,0.7,0.3,1.1,0.9,1.1
		c0.6,0,0.8-0.4,0.8-0.8h0.4C350.8,226.8,350.4,227.4,349.6,227.4z M348.7,225.8h1.6c0-0.4-0.2-0.9-0.8-0.9
		C349.1,224.9,348.8,225.2,348.7,225.8z"/>
	<path d="M353.3,225.3l-0.8,2h-0.3l-1-2.7h0.5l0.8,2.2l0.8-2.2h0.2l0.8,2.1l0.7-2.1h0.4l-1,2.7h-0.3L353.3,225.3z"/>
	<path d="M355.9,223.9v-0.5h0.5v0.5H355.9z M356,227.4v-2.7h0.4v2.7H356z"/>
	<path d="M358.8,225.4c-0.1-0.3-0.4-0.5-0.7-0.5c-0.3,0-0.6,0.2-0.6,0.4c0,0.6,1.7,0.3,1.7,1.3c0,0.5-0.4,0.8-1,0.8
		c-0.5,0-0.9-0.2-1.1-0.6l0.3-0.2c0.2,0.3,0.5,0.5,0.8,0.5c0.4,0,0.6-0.2,0.6-0.4c0-0.7-1.7-0.3-1.7-1.3c0-0.5,0.4-0.8,1-0.8
		c0.4,0,0.9,0.2,1,0.6L358.8,225.4z"/>
	<path d="M359.9,227.4v-4.1h0.4v2.2c0.1-0.6,0.5-0.9,1-0.9c0.5,0,0.9,0.3,0.9,1v1.8h-0.4v-1.7c0-0.5-0.2-0.8-0.6-0.8
		c-0.5,0-0.8,0.4-0.8,0.9v1.6L359.9,227.4L359.9,227.4z"/>
	<path d="M363.7,227.4c-0.4,0-0.8-0.3-0.8-0.8c0-0.9,1.3-0.6,1.8-1.1v-0.1c0-0.4-0.2-0.6-0.6-0.6c-0.5,0-0.6,0.2-0.7,0.6l-0.4-0.1
		c0.1-0.6,0.5-0.8,1.1-0.8c0.7,0,1,0.3,1,0.9v1.6h0.5v0.3h-0.9l0-0.3v-0.4l-0.4,0.5C364.2,227.4,364,227.4,363.7,227.4z
		 M364.8,226.4v-0.8c-0.4,0.5-1.4,0.3-1.4,0.9c0,0.3,0.2,0.5,0.5,0.5C364.2,227.1,364.5,226.9,364.8,226.4z"/>
	<path d="M366.7,227.4h-0.4v-2.7h0.4v0.8c0.1-0.5,0.5-0.8,1-0.8c0.5,0,0.9,0.3,0.9,0.9c0.1-0.6,0.5-0.9,1-0.9c0.5,0,0.9,0.3,0.9,0.9
		v1.9h-0.4v-1.7c0-0.4-0.2-0.7-0.6-0.7c-0.5,0-0.8,0.4-0.8,0.8v1.7h-0.4v-1.7c0-0.4-0.2-0.7-0.6-0.7c-0.5,0-0.8,0.4-0.8,0.8
		L366.7,227.4L366.7,227.4z"/>
	<path d="M372.3,226.3l0.4-0.1c0.1,0.5,0.5,0.8,1.1,0.8s0.9-0.3,0.9-0.7c0-1.1-2.4-0.6-2.4-2.1c0-0.7,0.5-1.1,1.3-1.1
		c0.7,0,1.2,0.3,1.4,1.1l-0.4,0.2c-0.1-0.6-0.5-0.9-1-0.9c-0.6,0-0.9,0.3-0.9,0.7c0,1.1,2.4,0.5,2.4,2.1c0,0.6-0.5,1.1-1.4,1.1
		C373.2,227.4,372.5,227.1,372.3,226.3z"/>
	<path d="M376.2,225h-0.5v-0.3h0.5v-0.7h0.4v0.7h0.6v0.3h-0.6v1.7c0,0.2,0.1,0.3,0.3,0.3h0.3v0.4h-0.5c-0.3,0-0.5-0.2-0.5-0.5V225z"
		/>
	<path d="M378.6,227.4c-0.4,0-0.8-0.3-0.8-0.8c0-0.9,1.3-0.6,1.8-1.1v-0.1c0-0.4-0.2-0.6-0.6-0.6c-0.5,0-0.6,0.2-0.7,0.6l-0.4-0.1
		c0.1-0.6,0.5-0.8,1.1-0.8c0.7,0,1,0.3,1,0.9v1.6h0.5v0.3h-0.9l0-0.3v-0.4l-0.4,0.5C379.1,227.4,378.9,227.4,378.6,227.4z
		 M379.7,226.4v-0.8c-0.4,0.5-1.4,0.3-1.4,0.9c0,0.3,0.2,0.5,0.5,0.5C379.2,227.1,379.5,226.9,379.7,226.4z"/>
	<path d="M381.3,225h-0.5v-0.3h0.5v-0.7h0.4v0.7h0.6v0.3h-0.6v1.7c0,0.2,0.1,0.3,0.3,0.3h0.3v0.4h-0.5c-0.3,0-0.5-0.2-0.5-0.5V225z"
		/>
	<path d="M383,223.9v-0.5h0.5v0.5H383z M383,227.4v-2.7h0.4v2.7H383z"/>
	<path d="M386.9,226c0,0.8-0.6,1.4-1.3,1.4c-0.7,0-1.4-0.6-1.4-1.4c0-0.8,0.6-1.4,1.4-1.4S386.9,225.2,386.9,226z M384.7,226
		c0,0.7,0.4,1.1,0.9,1.1c0.5,0,0.9-0.5,0.9-1.1c0-0.7-0.3-1.1-0.9-1.1C385,224.9,384.7,225.3,384.7,226z"/>
	<path d="M387.6,227.4v-2.7h0.4v0.9c0.1-0.6,0.5-0.9,1-0.9c0.5,0,0.9,0.3,0.9,1v1.8h-0.4v-1.7c0-0.5-0.2-0.8-0.6-0.8
		c-0.5,0-0.8,0.4-0.8,0.9v1.6L387.6,227.4L387.6,227.4z"/>
</g>
<g>
	<path d="M363.7,264.1h0.4v3.7h2.2v0.4h-2.7V264.1z"/>
	<path d="M368,268.3c-0.9,0-1.3-0.6-1.3-1.4c0-0.9,0.5-1.5,1.3-1.5c0.8,0,1.3,0.5,1.3,1.4h-2.1v0.1c0,0.7,0.3,1.1,0.9,1.1
		c0.6,0,0.8-0.4,0.8-0.8h0.4C369.3,267.7,368.9,268.3,368,268.3z M367.2,266.6h1.6c0-0.4-0.2-0.9-0.8-0.9
		C367.6,265.7,367.3,266,367.2,266.6z"/>
	<path d="M371.8,266.2l-0.8,2h-0.3l-1-2.7h0.5l0.8,2.2l0.8-2.2h0.2l0.8,2.1l0.7-2.1h0.4l-1,2.7h-0.3L371.8,266.2z"/>
	<path d="M374.4,264.7v-0.5h0.5v0.5H374.4z M374.4,268.2v-2.7h0.4v2.7H374.4z"/>
	<path d="M377.3,266.2c-0.1-0.3-0.4-0.5-0.7-0.5c-0.3,0-0.6,0.2-0.6,0.4c0,0.6,1.7,0.3,1.7,1.3c0,0.5-0.4,0.8-1,0.8
		c-0.5,0-0.9-0.2-1.1-0.6l0.3-0.2c0.2,0.3,0.5,0.5,0.8,0.5c0.4,0,0.6-0.2,0.6-0.4c0-0.7-1.7-0.3-1.7-1.3c0-0.5,0.4-0.8,1-0.8
		c0.4,0,0.9,0.2,1,0.6L377.3,266.2z"/>
	<path d="M378.4,268.2v-4.1h0.4v2.2c0.1-0.6,0.5-0.9,1-0.9c0.5,0,0.9,0.3,0.9,1v1.8h-0.4v-1.7c0-0.5-0.2-0.8-0.6-0.8
		c-0.5,0-0.8,0.4-0.8,0.9v1.6H378.4z"/>
	<path d="M382.2,268.3c-0.4,0-0.8-0.3-0.8-0.8c0-0.9,1.3-0.6,1.8-1.1v-0.1c0-0.4-0.2-0.6-0.6-0.6c-0.5,0-0.6,0.2-0.7,0.6l-0.4-0.1
		c0.1-0.6,0.5-0.8,1.1-0.8c0.7,0,1,0.3,1,0.9v1.6h0.5v0.3h-0.9l0-0.3v-0.4l-0.4,0.5C382.7,268.2,382.4,268.3,382.2,268.3z
		 M383.2,267.3v-0.8c-0.4,0.5-1.4,0.3-1.4,1c0,0.3,0.2,0.5,0.5,0.5C382.7,268,383,267.8,383.2,267.3z"/>
	<path d="M385.1,268.2h-0.4v-2.7h0.4v0.8c0.1-0.5,0.5-0.8,1-0.8c0.5,0,0.9,0.3,0.9,0.9c0.1-0.6,0.5-0.9,1-0.9c0.5,0,0.9,0.3,0.9,0.9
		v1.9h-0.4v-1.7c0-0.5-0.2-0.7-0.6-0.7c-0.5,0-0.8,0.4-0.8,0.8v1.7h-0.4v-1.7c0-0.5-0.2-0.7-0.6-0.7c-0.5,0-0.8,0.4-0.8,0.8
		L385.1,268.2L385.1,268.2z"/>
	<path d="M392.1,264.1c1.6,0,2,1,2,2c0,0.9-0.4,2.1-2,2.1H391v-4.1H392.1z M393.7,266.1c0-1-0.5-1.6-1.5-1.6h-0.8v3.3h0.8
		C393.3,267.8,393.7,267.1,393.7,266.1z"/>
	<path d="M395,264.1h0.4v3.7h2.2v0.4H395V264.1z"/>
	<path d="M398.7,266.3v2h-0.4v-4.1h1.3c1,0,1.5,0.3,1.5,1c0,0.7-0.4,1-1.2,1.1c1.1,0.3,1.1,1.7,1.3,1.9v0.1h-0.6
		c-0.2-0.9-0.4-1.9-1.5-1.9L398.7,266.3z M398.7,264.5v1.5h1c0.6,0,0.9-0.3,0.9-0.7c0-0.5-0.3-0.7-0.9-0.7H398.7z"/>
</g>
<g>
	<path d="M288.3,201.5l-1-1l-2.6,2.6l-0.3-0.3l2.6-2.6l-1-1l0.3-0.3l2.4,2.4L288.3,201.5z"/>
	<path d="M286.1,204.5l2.9-2.9l0.3,0.3l-1.6,1.6c0.5-0.3,1-0.3,1.3,0c0.4,0.4,0.4,0.8-0.1,1.3l-1.3,1.3l-0.3-0.3l1.2-1.2
		c0.3-0.3,0.4-0.7,0.1-1c-0.4-0.4-0.9-0.3-1.2,0l-1.1,1.1L286.1,204.5z"/>
	<path d="M291.8,206.4l-1.9,2l-0.3-0.3l0.6-0.6c-0.5,0.3-1,0.3-1.3,0c-0.4-0.4-0.4-0.8,0.1-1.3l1.3-1.3l0.3,0.3l-1.2,1.2
		c-0.3,0.3-0.4,0.7-0.1,1c0.4,0.4,0.9,0.3,1.2,0l1.1-1.1L291.8,206.4z"/>
	<path d="M290.5,208.9l1.9-2l0.3,0.3l-0.6,0.6l0.6-0.3c0.3,0,0.5,0.2,0.7,0.5l-0.3,0.3c-0.4-0.5-0.7-0.6-1.4-0.1l-1.1,1.1
		L290.5,208.9z"/>
	<path d="M294.5,210c0.1-0.3,0-0.6-0.2-0.8c-0.2-0.2-0.5-0.3-0.7-0.1c-0.4,0.4,1,1.4,0.3,2.1c-0.3,0.3-0.9,0.3-1.3-0.1
		c-0.4-0.4-0.5-0.8-0.4-1.3l0.4,0.1c-0.1,0.4,0,0.7,0.2,0.9c0.3,0.3,0.6,0.3,0.7,0.1c0.5-0.5-1-1.4-0.2-2.1c0.3-0.3,0.8-0.2,1.2,0.1
		c0.3,0.3,0.5,0.8,0.3,1.2L294.5,210z"/>
	<path d="M295.7,210.6l-0.3-0.3l0.2-0.2l0.3,0.3l0.5-0.5l0.3,0.3l-0.5,0.5l0.5,0.4l-0.2,0.2l-0.5-0.4l-1.2,1.2
		c-0.1,0.1-0.1,0.3,0,0.4l0.2,0.2l-0.2,0.2l-0.4-0.4c-0.2-0.2-0.3-0.5,0-0.7L295.7,210.6z"/>
	<path d="M298,214.4c-0.6,0.6-1.4,0.6-2,0.1c-0.5-0.5-0.5-1.4,0-2s1.4-0.6,2-0.1C298.6,212.9,298.6,213.8,298,214.4z M296.4,212.8
		c-0.5,0.5-0.5,1.1-0.2,1.4c0.4,0.4,0.9,0.3,1.4-0.2c0.5-0.5,0.6-1.1,0.2-1.4C297.5,212.3,296.9,212.3,296.4,212.8z"/>
	<path d="M297.5,215.9l1.9-2l0.3,0.3l-0.6,0.6c0.5-0.3,1-0.3,1.3,0c0.4,0.4,0.4,0.8-0.1,1.3l-1.3,1.3l-0.3-0.3l1.2-1.2
		c0.3-0.3,0.4-0.7,0.1-1c-0.4-0.4-0.9-0.3-1.2,0l-1.1,1.1L297.5,215.9z"/>
	<path d="M302.4,217.9l-1.4,1.4l-0.3-0.3l2.9-2.9l0.9,0.9c0.7,0.7,0.8,1.2,0.3,1.8c-0.5,0.5-1,0.4-1.6-0.1c0.6,1-0.4,2-0.4,2.3
		l-0.1,0.1l-0.4-0.4c0.5-0.7,1-1.6,0.3-2.4L302.4,217.9z M303.6,216.6l-1,1l0.7,0.7c0.4,0.4,0.8,0.4,1.2,0.1
		c0.3-0.4,0.3-0.7-0.2-1.2L303.6,216.6z"/>
	<path d="M306,222.3c-0.6,0.6-1.4,0.6-2,0.1c-0.5-0.5-0.5-1.4,0-2s1.4-0.6,2-0.1C306.5,220.8,306.6,221.7,306,222.3z M304.4,220.7
		c-0.5,0.5-0.5,1.1-0.2,1.4c0.4,0.4,0.9,0.3,1.4-0.2c0.5-0.5,0.6-1.1,0.2-1.4C305.4,220.2,304.9,220.2,304.4,220.7z"/>
	<path d="M305.9,224.3c-0.3-0.3-0.3-0.7,0-1.1c0.7-0.7,1.3,0.4,2,0.5l0.1-0.1c0.3-0.3,0.3-0.6,0-0.9c-0.3-0.3-0.6-0.3-1-0.1
		l-0.2-0.4c0.5-0.3,1-0.2,1.4,0.2c0.5,0.5,0.5,0.9,0.1,1.4l-1.1,1.1l0.3,0.3l-0.2,0.2l-0.6-0.6l0.3-0.2l0.3-0.3l-0.6,0.1
		C306.3,224.6,306.1,224.4,305.9,224.3z M307.4,224.3l0.5-0.5c-0.6,0.1-1.2-0.7-1.6-0.3c-0.2,0.2-0.2,0.5,0,0.7
		C306.5,224.4,306.9,224.5,307.4,224.3z"/>
	<path d="M309.8,226.8c-0.5,0.3-1,0.3-1.4-0.1c-0.4-0.4-0.5-1.1,0.2-1.8c0.7-0.7,1.4-0.6,1.8-0.2c0.4,0.4,0.4,0.9,0.1,1.4l1.6-1.6
		l0.3,0.3l-2.9,2.9l-0.3-0.3L309.8,226.8z M308.7,226.6c0.4,0.4,0.9,0.3,1.4-0.2c0.5-0.5,0.5-1,0.2-1.4c-0.3-0.3-0.9-0.3-1.4,0.2
		C308.4,225.7,308.4,226.3,308.7,226.6z"/>
</g>
<g>
	<path d="M396.1,450.1h3.5v0.4h-4.1v-0.7l3.4-1.4l-3.4-1.4v-0.6h4.1v0.4h-3.5l3.5,1.4v0.3L396.1,450.1z"/>
	<path d="M398.2,443.1c0.8,0,1.4,0.6,1.4,1.3c0,0.7-0.6,1.4-1.4,1.4s-1.4-0.6-1.4-1.4S397.3,443.1,398.2,443.1z M398.2,445.3
		c0.7,0,1.1-0.4,1.1-0.9c0-0.5-0.5-0.9-1.1-0.9c-0.7,0-1.1,0.3-1.1,0.9C397,444.9,397.4,445.3,398.2,445.3z"/>
	<path d="M399.5,442.3h-4.1v-0.4h4.1V442.3z"/>
	<path d="M399.6,439.9c0,0.9-0.6,1.3-1.4,1.3c-0.9,0-1.5-0.5-1.5-1.3c0-0.8,0.5-1.3,1.4-1.3v2.1h0.1c0.7,0,1.1-0.3,1.1-0.9
		c0-0.6-0.4-0.8-0.8-0.8v-0.4C399,438.6,399.6,439,399.6,439.9z M397.9,440.7v-1.6c-0.4,0-0.9,0.2-0.9,0.8
		C397,440.3,397.3,440.6,397.9,440.7z"/>
	<path d="M397.5,436.3c-0.3,0.1-0.5,0.4-0.5,0.7c0,0.3,0.2,0.6,0.4,0.6c0.6,0,0.3-1.7,1.3-1.7c0.5,0,0.8,0.4,0.8,1
		c0,0.5-0.2,0.9-0.6,1.1l-0.2-0.3c0.3-0.2,0.5-0.5,0.5-0.8c0-0.4-0.2-0.6-0.4-0.6c-0.7,0-0.3,1.7-1.3,1.7c-0.5,0-0.8-0.4-0.8-1
		c0-0.4,0.2-0.9,0.6-1L397.5,436.3z"/>
	<path d="M397.5,433.5l2,0.8v0.3l-2.7,1v-0.5l2.2-0.8l-2.2-0.8v-0.2l2.1-0.8l-2.1-0.7v-0.4l2.7,1v0.3L397.5,433.5z"/>
	<path d="M398.2,428.3c0.8,0,1.4,0.6,1.4,1.3c0,0.7-0.6,1.4-1.4,1.4s-1.4-0.6-1.4-1.4S397.3,428.3,398.2,428.3z M398.2,430.5
		c0.7,0,1.1-0.4,1.1-0.9c0-0.5-0.5-0.9-1.1-0.9c-0.7,0-1.1,0.3-1.1,0.9C397,430.2,397.4,430.5,398.2,430.5z"/>
	<path d="M399.5,427.6h-2.7v-0.4h0.8l-0.7-0.2c-0.2-0.2-0.2-0.5-0.2-0.9h0.4c-0.1,0.6,0.1,1,0.9,1.1h1.5L399.5,427.6L399.5,427.6z"
		/>
	<path d="M397.1,425.3v0.5h-0.3v-0.5h-0.7v-0.4h0.7v-0.6h0.3v0.6h1.7c0.2,0,0.3-0.1,0.3-0.3v-0.3h0.4v0.5c0,0.3-0.2,0.5-0.5,0.5
		H397.1z"/>
	<path d="M399.5,423.5h-4.1v-0.4h2.2c-0.6-0.1-0.9-0.5-0.9-1c0-0.5,0.3-0.9,1-0.9h1.8v0.4h-1.7c-0.5,0-0.8,0.2-0.8,0.6
		c0,0.5,0.4,0.8,0.9,0.8h1.6V423.5z"/>
	<path d="M398.5,419.2l-0.1-0.4c0.5-0.1,0.8-0.5,0.8-1.1c0-0.6-0.3-0.9-0.7-0.9c-1.1,0-0.6,2.4-2.1,2.4c-0.7,0-1.1-0.5-1.1-1.3
		c0-0.7,0.3-1.2,1.1-1.4l0.2,0.4c-0.6,0.1-0.9,0.5-0.9,1c0,0.6,0.3,0.9,0.7,0.9c1.1,0,0.5-2.4,2.1-2.4c0.6,0,1.1,0.5,1.1,1.4
		C399.6,418.4,399.2,419.1,398.5,419.2z"/>
	<path d="M397.1,415.3v0.5h-0.3v-0.5h-0.7v-0.4h0.7v-0.6h0.3v0.6h1.7c0.2,0,0.3-0.1,0.3-0.3v-0.3h0.4v0.5c0,0.3-0.2,0.5-0.5,0.5
		H397.1z"/>
	<path d="M399.5,413.6h-2.7v-0.4h0.8l-0.7-0.2c-0.2-0.2-0.2-0.5-0.2-0.9h0.4c-0.1,0.6,0.1,1,0.9,1.1h1.5L399.5,413.6L399.5,413.6z"
		/>
	<path d="M399.6,410.4c0,0.9-0.6,1.3-1.4,1.3c-0.9,0-1.5-0.5-1.5-1.3c0-0.8,0.5-1.3,1.4-1.3v2.1h0.1c0.7,0,1.1-0.3,1.1-0.9
		c0-0.6-0.4-0.8-0.8-0.8v-0.4C399,409.2,399.6,409.6,399.6,410.4z M397.9,411.3v-1.6c-0.4,0-0.9,0.2-0.9,0.8
		C397,410.9,397.3,411.2,397.9,411.3z"/>
	<path d="M399.6,407.3c0,0.9-0.6,1.3-1.4,1.3c-0.9,0-1.5-0.5-1.5-1.3c0-0.8,0.5-1.3,1.4-1.3v2.1h0.1c0.7,0,1.1-0.3,1.1-0.9
		c0-0.6-0.4-0.8-0.8-0.8V406C399,406,399.6,406.4,399.6,407.3z M397.9,408.1v-1.6c-0.4,0-0.9,0.2-0.9,0.8
		C397,407.7,397.3,408,397.9,408.1z"/>
	<path d="M397.1,405.1v0.5h-0.3v-0.5h-0.7v-0.4h0.7v-0.6h0.3v0.6h1.7c0.2,0,0.3-0.1,0.3-0.3v-0.3h0.4v0.5c0,0.3-0.2,0.5-0.5,0.5
		H397.1z"/>
</g>
<g>
	<path d="M604.2,409.7l1.2-0.3c0.8-0.2,1.4-0.1,1.6,0.6c0.1,0.4,0,0.8-0.4,1.1c0.6,0,0.9,0.3,1.1,0.8c0.2,0.7-0.2,1.3-1.1,1.5
		l-1.3,0.3L604.2,409.7z M604.8,410l0.4,1.3l0.9-0.3c0.4-0.1,0.7-0.5,0.6-0.9c-0.1-0.4-0.4-0.6-1-0.4L604.8,410z M605.2,411.6
		l0.4,1.6l0.9-0.2c0.6-0.2,0.9-0.5,0.7-1c-0.1-0.5-0.5-0.7-1.1-0.5L605.2,411.6z"/>
	<path d="M609.9,412.5c-0.8,0.2-1.4-0.2-1.6-1c-0.2-0.8,0.1-1.5,0.9-1.7c0.8-0.2,1.4,0.2,1.6,1l-2,0.6l0,0.1c0.2,0.7,0.6,1,1.1,0.8
		c0.5-0.1,0.7-0.6,0.6-1l0.4-0.1C610.9,411.6,610.7,412.3,609.9,412.5z M608.6,411.1l1.6-0.4c-0.1-0.4-0.4-0.8-1-0.6
		C608.8,410.2,608.5,410.5,608.6,411.1z"/>
	<path d="M611.8,412l-1.1-4l0.4-0.1l1.1,4L611.8,412z"/>
	<path d="M613.4,411.5l-0.4,0.1l-0.7-2.7l0.4-0.1l0.2,0.8c0-0.5,0.2-0.9,0.7-1.1c0.5-0.1,0.9,0.1,1.1,0.6c-0.1-0.6,0.2-1,0.7-1.1
		c0.5-0.1,0.9,0.1,1.1,0.6l0.5,1.8l-0.4,0.1l-0.5-1.7c-0.1-0.4-0.4-0.6-0.8-0.5c-0.5,0.1-0.7,0.6-0.6,1l0.4,1.6l-0.4,0.1l-0.5-1.7
		c-0.1-0.4-0.4-0.6-0.8-0.5c-0.5,0.1-0.7,0.6-0.6,1L613.4,411.5z"/>
	<path d="M619.9,408.3c0.2,0.8-0.2,1.5-0.9,1.7c-0.7,0.2-1.5-0.2-1.7-1c-0.2-0.8,0.2-1.5,0.9-1.7
		C618.9,407.1,619.7,407.5,619.9,408.3z M617.7,408.9c0.2,0.7,0.7,1,1.2,0.9c0.5-0.1,0.7-0.7,0.5-1.3c-0.2-0.7-0.6-1-1.1-0.9
		C617.8,407.7,617.5,408.2,617.7,408.9z"/>
	<path d="M620.9,409.5l-0.7-2.7l0.4-0.1l0.2,0.8c-0.1-0.6,0.2-1,0.7-1.1c0.5-0.1,0.9,0.1,1.1,0.7l0.5,1.8l-0.4,0.1l-0.4-1.6
		c-0.1-0.5-0.4-0.7-0.8-0.6c-0.5,0.1-0.7,0.6-0.6,1l0.4,1.6L620.9,409.5z"/>
	<path d="M623.5,406.3l-0.5,0.1l-0.1-0.3l0.5-0.1l-0.2-0.7l0.4-0.1l0.2,0.7l0.6-0.2l0.1,0.3l-0.6,0.2l0.5,1.7
		c0.1,0.2,0.2,0.3,0.4,0.2l0.3-0.1l0.1,0.3l-0.5,0.1c-0.3,0.1-0.5,0-0.6-0.4L623.5,406.3z"/>
	<path d="M629.2,405.2l-2.2,0.6l0.5,1.9l-0.4,0.1l-1.1-4l0.4-0.1l0.5,1.7l2.2-0.6l-0.5-1.7l0.4-0.1l1.1,4l-0.4,0.1L629.2,405.2z"/>
	<path d="M630.1,403.4l-0.1-0.5l0.5-0.1l0.1,0.5L630.1,403.4z M631,406.8l-0.7-2.7l0.4-0.1l0.7,2.7L631,406.8z"/>
	<path d="M632.3,406.4l-1.1-4l0.4-0.1l1.1,4L632.3,406.4z"/>
	<path d="M633.5,406.1l-1.1-4l0.4-0.1l1.1,4L633.5,406.1z"/>
</g>
<rect x="818.2" y="603.3" transform="matrix(0.9654 -0.2607 0.2607 0.9654 -129.6062 239.6117)" class="st0" width="40.3" height="10.1"/>
<g>
	<path d="M821.4,609.1l1.2-0.3c0.8-0.2,1.4-0.1,1.6,0.6c0.1,0.4,0,0.8-0.4,1.1c0.6,0,0.9,0.3,1.1,0.8c0.2,0.7-0.2,1.3-1.1,1.5
		l-1.3,0.3L821.4,609.1z M822,609.4l0.4,1.3l0.9-0.3c0.4-0.1,0.7-0.5,0.6-0.9c-0.1-0.4-0.4-0.6-1-0.4L822,609.4z M822.4,611.1
		l0.4,1.6l0.9-0.2c0.6-0.2,0.9-0.5,0.7-1c-0.1-0.5-0.5-0.7-1.1-0.5L822.4,611.1z"/>
	<path d="M827,611.9c-0.8,0.2-1.4-0.2-1.6-1c-0.2-0.8,0.1-1.5,0.9-1.7c0.8-0.2,1.4,0.2,1.6,1l-2,0.6l0,0.1c0.2,0.7,0.6,1,1.1,0.8
		c0.5-0.1,0.7-0.6,0.6-1l0.4-0.1C828.1,611,827.9,611.7,827,611.9z M825.8,610.6l1.6-0.4c-0.1-0.4-0.4-0.8-1-0.6
		C825.9,609.6,825.7,610,825.8,610.6z"/>
	<path d="M829,611.4l-1.1-4l0.4-0.1l1.1,4L829,611.4z"/>
	<path d="M830.6,610.9l-0.4,0.1l-0.7-2.7l0.4-0.1l0.2,0.8c0-0.5,0.2-0.9,0.7-1.1c0.5-0.1,0.9,0.1,1.1,0.6c-0.1-0.6,0.2-1,0.7-1.1
		c0.5-0.1,0.9,0.1,1.1,0.6l0.5,1.8l-0.4,0.1l-0.5-1.7c-0.1-0.4-0.4-0.6-0.8-0.5c-0.5,0.1-0.7,0.6-0.6,1l0.4,1.6l-0.4,0.1l-0.5-1.7
		c-0.1-0.4-0.4-0.6-0.8-0.5c-0.5,0.1-0.7,0.6-0.6,1L830.6,610.9z"/>
	<path d="M837.1,607.8c0.2,0.8-0.2,1.5-0.9,1.7c-0.7,0.2-1.5-0.2-1.7-1c-0.2-0.8,0.2-1.5,0.9-1.7
		C836.1,606.5,836.8,606.9,837.1,607.8z M834.9,608.3c0.2,0.7,0.7,1,1.2,0.9c0.5-0.1,0.7-0.7,0.5-1.3c-0.2-0.7-0.6-1-1.1-0.9
		C835,607.1,834.7,607.6,834.9,608.3z"/>
	<path d="M838.1,608.9l-0.7-2.7l0.4-0.1l0.2,0.8c-0.1-0.6,0.2-1,0.7-1.1c0.5-0.1,0.9,0.1,1.1,0.7l0.5,1.8l-0.4,0.1l-0.4-1.6
		c-0.1-0.5-0.4-0.7-0.8-0.6c-0.5,0.1-0.7,0.6-0.6,1l0.4,1.6L838.1,608.9z"/>
	<path d="M840.7,605.7l-0.5,0.1l-0.1-0.3l0.5-0.1l-0.2-0.7l0.4-0.1l0.2,0.7l0.6-0.2l0.1,0.3l-0.6,0.2l0.5,1.7
		c0.1,0.2,0.2,0.3,0.4,0.2l0.3-0.1l0.1,0.3l-0.5,0.1c-0.3,0.1-0.5,0-0.6-0.4L840.7,605.7z"/>
	<path d="M844.2,605.3l0.5,1.8l-0.4,0.1l-1.1-4l0.3-0.1l0,0l1-0.3c0.9-0.2,1.5-0.1,1.7,0.7c0.2,0.8-0.3,1.3-1.1,1.5L844.2,605.3z
		 M843.7,603.5l0.4,1.5l0.8-0.2c0.7-0.2,0.9-0.5,0.8-1c-0.1-0.6-0.5-0.7-1.1-0.5L843.7,603.5z"/>
	<path d="M848.1,606.2c-0.4,0.1-0.8-0.1-0.9-0.5c-0.2-0.9,1-0.9,1.5-1.5l0-0.1c-0.1-0.3-0.3-0.5-0.8-0.4c-0.4,0.1-0.6,0.4-0.5,0.8
		l-0.4,0c0-0.6,0.3-0.9,0.9-1.1c0.7-0.2,1.1,0,1.2,0.6l0.4,1.5l0.4-0.1l0.1,0.3l-0.9,0.2l-0.1-0.3l-0.1-0.4l-0.2,0.6
		C848.6,606.1,848.3,606.2,848.1,606.2z M848.8,605l-0.2-0.7c-0.3,0.6-1.2,0.7-1.1,1.3c0.1,0.3,0.3,0.4,0.6,0.4
		C848.5,605.8,848.8,605.5,848.8,605z"/>
	<path d="M850.5,605.5l-0.7-2.7l0.4-0.1l0.2,0.8l0.1-0.7c0.1-0.3,0.4-0.4,0.8-0.4l0.1,0.4c-0.6,0.1-0.9,0.3-0.8,1.1l0.4,1.5
		L850.5,605.5z"/>
	<path d="M853,603.5l-0.3,0.5l0.2,0.8l-0.4,0.1l-1.1-4l0.4-0.1l0.7,2.7l0.8-1.7l0.5-0.1l-0.7,1.4l1.5,1.3l-0.5,0.1L853,603.5z"/>
</g>
<rect x="610.8" y="215.8" transform="matrix(0.9654 -0.2607 0.2607 0.9654 -35.4042 172.6497)" class="st0" width="44.5" height="7.9"/>
<g>
	<path d="M620.6,225.5c0,0.7-0.4,1.2-1.2,1.4c-1.1,0.3-2.1-0.3-2.4-1.6c-0.3-1.2,0.2-2.2,1.4-2.5c1-0.3,2,0.2,2.2,1.2l-0.5,0.1
		c-0.2-0.7-0.8-1.2-1.7-0.9c-1,0.3-1.3,1.1-1,2c0.3,1.1,1.1,1.5,1.9,1.3c0.8-0.2,1.1-0.9,1-1.7l0.5-0.1l0.4,1.6l-0.5,0.1l0,0
		C620.7,226.3,620.7,226,620.6,225.5z"/>
	<path d="M622.1,226.2l-0.7-2.7l0.4-0.1l0.2,0.8l0.1-0.7c0.1-0.3,0.4-0.4,0.8-0.4l0.1,0.4c-0.6,0.1-0.9,0.3-0.8,1.1l0.4,1.5
		L622.1,226.2z"/>
	<path d="M624.6,225.6c-0.4,0.1-0.8-0.1-0.9-0.5c-0.2-0.9,1-0.9,1.5-1.5l0-0.1c-0.1-0.4-0.3-0.5-0.8-0.4c-0.4,0.1-0.6,0.4-0.5,0.8
		l-0.4,0c0-0.6,0.3-0.9,0.9-1.1c0.7-0.2,1.1,0,1.2,0.6l0.4,1.5l0.4-0.1l0.1,0.3l-0.9,0.2l-0.1-0.3l-0.1-0.4l-0.2,0.6
		C625.1,225.4,624.9,225.5,624.6,225.6z M625.4,224.3l-0.2-0.7c-0.3,0.6-1.2,0.7-1.1,1.3c0.1,0.3,0.3,0.4,0.6,0.4
		C625.1,225.1,625.3,224.9,625.4,224.3z"/>
	<path d="M627.1,224.9l-0.7-2.7l0.4-0.1l0.2,0.8c-0.1-0.6,0.2-1,0.7-1.1c0.5-0.1,0.9,0.1,1.1,0.7l0.5,1.8l-0.4,0.1l-0.4-1.6
		c-0.1-0.5-0.4-0.7-0.8-0.6c-0.5,0.1-0.7,0.6-0.6,1l0.4,1.6L627.1,224.9z"/>
	<path d="M630.8,223.8l-1.8-2.4l0.4-0.1l1.4,1.9l0.3-2.4l0.4-0.1l-0.4,3L630.8,223.8z"/>
	<path d="M631.9,220l-0.1-0.5l0.5-0.1l0.1,0.5L631.9,220z M632.8,223.3l-0.7-2.7l0.4-0.1l0.7,2.7L632.8,223.3z"/>
	<path d="M634.1,223l-1.1-4l0.4-0.1l1.1,4L634.1,223z"/>
	<path d="M635.3,222.6l-1.1-4l0.4-0.1l1.1,4L635.3,222.6z"/>
	<path d="M637.7,222c-0.8,0.2-1.4-0.2-1.6-1c-0.2-0.8,0.1-1.5,0.9-1.7c0.8-0.2,1.4,0.2,1.6,1l-2,0.6l0,0.1c0.2,0.7,0.6,1,1.1,0.8
		c0.5-0.1,0.7-0.6,0.6-1l0.4-0.1C638.7,221.1,638.5,221.8,637.7,222z M636.5,220.6l1.6-0.4c-0.1-0.4-0.4-0.8-1-0.6
		C636.6,219.7,636.4,220.1,636.5,220.6z"/>
	<path d="M640.8,219.2l0.5,1.8l-0.4,0.1l-1.1-4l0.3-0.1l0,0l1-0.3c0.9-0.2,1.5-0.1,1.7,0.7c0.2,0.8-0.3,1.3-1.1,1.5L640.8,219.2z
		 M640.3,217.4l0.4,1.5l0.8-0.2c0.7-0.2,0.9-0.5,0.8-1c-0.1-0.6-0.5-0.7-1.1-0.5L640.3,217.4z"/>
	<path d="M644.7,220.1c-0.4,0.1-0.8-0.1-0.9-0.5c-0.2-0.9,1-0.9,1.5-1.5l0-0.1c-0.1-0.4-0.3-0.5-0.8-0.4c-0.4,0.1-0.6,0.4-0.5,0.8
		l-0.4,0c0-0.6,0.3-0.9,0.9-1.1c0.7-0.2,1.1,0,1.2,0.6l0.4,1.5l0.4-0.1l0.1,0.3l-0.9,0.2l-0.1-0.3l-0.1-0.4l-0.2,0.6
		C645.1,220,644.9,220.1,644.7,220.1z M645.4,218.9l-0.2-0.7c-0.3,0.6-1.2,0.7-1.1,1.3c0.1,0.3,0.3,0.4,0.6,0.4
		C645.1,219.7,645.3,219.4,645.4,218.9z"/>
	<path d="M647.1,219.4l-0.7-2.7l0.4-0.1l0.2,0.8l0.1-0.7c0.1-0.3,0.4-0.4,0.8-0.4l0.1,0.4c-0.6,0.1-0.9,0.3-0.8,1.1l0.4,1.5
		L647.1,219.4z"/>
	<path d="M649.6,217.4l-0.3,0.5l0.2,0.8l-0.4,0.1l-1.1-4l0.4-0.1l0.7,2.7l0.9-1.7l0.5-0.1l-0.7,1.4l1.5,1.3l-0.5,0.1L649.6,217.4z"
		/>
</g>
<rect x="470.3" y="144" transform="matrix(0.5697 -0.8219 0.8219 0.5697 90.7851 469.3012)" class="st0" width="46.5" height="7.9"/>
<g>
	<path d="M483.5,161.2l0.3-0.4l3.1,2.1l1.3-1.8l0.3,0.2l-1.5,2.2L483.5,161.2z"/>
	<path d="M489.4,160c-0.5,0.7-1.2,0.7-1.9,0.3c-0.7-0.5-0.9-1.3-0.4-1.9c0.5-0.7,1.2-0.7,1.9-0.3l-1.2,1.7l0.1,0
		c0.6,0.4,1.1,0.4,1.4-0.1c0.3-0.5,0.1-0.9-0.2-1.1l0.2-0.4C489.6,158.6,489.9,159.3,489.4,160z M487.5,159.7l0.9-1.3
		c-0.4-0.3-0.9-0.3-1.2,0.2C487,158.9,487.1,159.3,487.5,159.7z"/>
	<path d="M489.8,155.8l1.2,1.8l-0.2,0.3l-2.9-0.7l0.3-0.4l2.2,0.6l-1.3-1.9l0.1-0.2l2.2,0.5l-1.3-1.8l0.2-0.3l1.7,2.4l-0.2,0.2
		L489.8,155.8z"/>
	<path d="M490.1,152.8l-0.4-0.3l0.3-0.4l0.4,0.3L490.1,152.8z M493,154.7l-2.3-1.6l0.2-0.3l2.3,1.6L493,154.7z"/>
	<path d="M492.9,151.2c-0.3-0.1-0.6,0.1-0.8,0.3c-0.2,0.3-0.2,0.6,0,0.7c0.5,0.4,1.2-1.2,2-0.6c0.4,0.3,0.4,0.8,0.1,1.3
		c-0.3,0.4-0.7,0.7-1.2,0.6l0-0.4c0.4,0,0.7-0.1,0.9-0.4c0.2-0.3,0.2-0.6,0-0.8c-0.6-0.4-1.2,1.2-2.1,0.6c-0.4-0.3-0.4-0.8-0.1-1.2
		c0.3-0.4,0.7-0.6,1.1-0.5L492.9,151.2z"/>
	<path d="M495.2,151.5l-3.4-2.3l0.2-0.3l1.8,1.3c-0.4-0.4-0.5-0.9-0.2-1.3c0.3-0.4,0.8-0.5,1.3-0.2l1.5,1l-0.2,0.3l-1.4-1
		c-0.4-0.3-0.8-0.3-1,0.1c-0.3,0.4-0.1,0.9,0.2,1.1l1.3,0.9L495.2,151.5z"/>
	<path d="M497.4,148.4c-0.2,0.4-0.7,0.5-1,0.2c-0.8-0.5,0.2-1.4,0.1-2.1l-0.1-0.1c-0.3-0.2-0.6-0.2-0.8,0.2c-0.3,0.4-0.2,0.6,0.1,1
		l-0.3,0.2c-0.4-0.4-0.4-0.9,0-1.4c0.4-0.6,0.8-0.7,1.3-0.3l1.3,0.9l0.3-0.4l0.3,0.2l-0.5,0.7l-0.3-0.2l-0.3-0.2l0.2,0.6
		C497.6,147.9,497.6,148.2,497.4,148.4z M497.2,146.9l-0.6-0.4c0.2,0.6-0.5,1.3,0,1.7c0.3,0.2,0.5,0.1,0.7-0.1
		C497.5,147.8,497.5,147.4,497.2,146.9z"/>
	<path d="M499.1,145.9l-0.2,0.3l-2.3-1.6l0.2-0.3l0.6,0.4c-0.4-0.4-0.4-0.9-0.1-1.3c0.3-0.4,0.7-0.5,1.2-0.2
		c-0.4-0.4-0.5-0.9-0.2-1.3c0.3-0.4,0.7-0.5,1.2-0.2l1.6,1.1l-0.2,0.3l-1.4-1c-0.4-0.3-0.7-0.2-0.9,0.1c-0.3,0.4-0.1,0.9,0.2,1.1
		l1.4,1l-0.2,0.3l-1.4-1c-0.4-0.3-0.7-0.2-0.9,0.1c-0.3,0.4-0.1,0.9,0.2,1.1L499.1,145.9z"/>
	<path d="M502.3,137.8l-1.3,1.8l1.6,1.1l-0.3,0.4l-3.4-2.3l0.3-0.4l1.5,1l1.3-1.8l-1.5-1l0.3-0.4l3.4,2.3l-0.3,0.4L502.3,137.8z"/>
	<path d="M501.8,135.9l-0.4-0.3l0.3-0.4l0.4,0.3L501.8,135.9z M504.7,137.8l-2.3-1.6l0.2-0.3l2.3,1.6L504.7,137.8z"/>
	<path d="M505.4,136.7l-3.4-2.3l0.2-0.3l3.4,2.3L505.4,136.7z"/>
	<path d="M506.2,135.7l-3.4-2.3l0.2-0.3l3.4,2.3L506.2,135.7z"/>
</g>
<g>
	<g>
		<defs>
			<rect id="SVGID_95_" width="1087.5" height="906.7"/>
		</defs>
		<clipPath id="SVGID_96_">
			<use xlink:href="#SVGID_95_"  style="overflow:visible;"/>
		</clipPath>
		<g class="st51">
			<path d="M439.8,104.8l0.1,0.4l-3.6,1l0.6,2.1l-0.4,0.1l-0.7-2.6L439.8,104.8z"/>
			<path d="M436.9,110c-0.2-0.8,0.2-1.4,1-1.6c0.8-0.2,1.5,0.1,1.7,0.9c0.2,0.8-0.2,1.4-1,1.6l-0.6-2l-0.1,0c-0.7,0.2-1,0.6-0.8,1.1
				c0.1,0.5,0.6,0.7,1,0.6l0.1,0.4C437.9,111.1,437.2,110.9,436.9,110z M438.3,108.8l0.4,1.6c0.4-0.1,0.8-0.4,0.6-1
				C439.3,108.9,438.9,108.7,438.3,108.8z"/>
			<path d="M439.9,113.1l-2.2-0.2l-0.1-0.3l2.4-1.7l0.1,0.4l-1.9,1.3l2.3,0.2l0.1,0.2l-1.8,1.4l2.2,0.2l0.1,0.4l-2.9-0.3l-0.1-0.3
				L439.9,113.1z"/>
			<path d="M438.7,116.2l2.6-0.7l0.1,0.4l-2.6,0.7L438.7,116.2z M442,115.2l0.5-0.1l0.1,0.5l-0.5,0.1L442,115.2z"/>
			<path d="M441.4,118.4c0.3-0.2,0.3-0.5,0.3-0.8c-0.1-0.3-0.3-0.5-0.5-0.4c-0.6,0.2,0.2,1.7-0.8,2c-0.5,0.1-0.9-0.2-1-0.8
				c-0.1-0.5-0.1-1,0.3-1.3l0.3,0.3c-0.3,0.3-0.4,0.6-0.3,0.9c0.1,0.3,0.3,0.6,0.6,0.5c0.7-0.2-0.2-1.7,0.9-2c0.5-0.1,0.8,0.2,1,0.7
				c0.1,0.4,0,0.9-0.3,1.2L441.4,118.4z"/>
			<path d="M439.7,120l4-1.1l0.1,0.4l-2.1,0.6c0.6-0.1,1,0.2,1.1,0.7c0.1,0.5-0.1,0.9-0.7,1.1l-1.8,0.5l-0.1-0.4l1.6-0.4
				c0.5-0.1,0.7-0.4,0.6-0.8c-0.1-0.5-0.6-0.7-1-0.5l-1.6,0.4L439.7,120z"/>
			<path d="M440.7,123.7c-0.1-0.4,0.1-0.8,0.5-0.9c0.9-0.2,1,1,1.5,1.4l0.1,0c0.4-0.1,0.5-0.3,0.4-0.8c-0.1-0.4-0.4-0.6-0.8-0.5
				l0-0.4c0.6,0,0.9,0.3,1.1,0.9c0.2,0.7,0,1.1-0.6,1.2l-1.5,0.4l0.1,0.4l-0.3,0.1l-0.2-0.9l0.3-0.1l0.4-0.1l-0.6-0.2
				C440.9,124.1,440.8,123.9,440.7,123.7z M441.9,124.4l0.7-0.2c-0.6-0.3-0.7-1.2-1.3-1.1c-0.3,0.1-0.4,0.3-0.4,0.6
				C441.1,124.1,441.4,124.3,441.9,124.4z"/>
			<path d="M441.5,126.5l-0.1-0.4l2.6-0.7l0.1,0.4l-0.8,0.2c0.5,0,0.9,0.2,1.1,0.7c0.1,0.5-0.1,0.9-0.6,1.1c0.6-0.1,1,0.2,1.1,0.7
				c0.1,0.5-0.1,0.9-0.6,1.1l-1.8,0.5l-0.1-0.4l1.7-0.5c0.4-0.1,0.6-0.4,0.5-0.8c-0.1-0.5-0.6-0.7-1-0.5l-1.6,0.4l-0.1-0.4l1.7-0.5
				c0.4-0.1,0.6-0.4,0.5-0.8c-0.1-0.5-0.6-0.7-1-0.5L441.5,126.5z"/>
			<path d="M445.1,132l-1.9,0.5l-0.1-0.4l4-1.1l0.3,1.3c0.3,0.9,0.1,1.5-0.6,1.7c-0.7,0.2-1.1-0.1-1.4-0.9c0,1.1-1.4,1.5-1.5,1.8
				l-0.1,0l-0.1-0.5c0.8-0.4,1.7-0.9,1.5-1.9L445.1,132z M446.8,131.6l-1.4,0.4l0.3,0.9c0.2,0.6,0.5,0.8,1,0.7
				c0.5-0.1,0.6-0.4,0.4-1.1L446.8,131.6z"/>
			<path d="M446,137.6c-0.8,0.2-1.5-0.2-1.7-0.9c-0.2-0.7,0.2-1.5,1-1.7c0.8-0.2,1.5,0.2,1.7,0.9C447.2,136.7,446.8,137.4,446,137.6
				z M445.4,135.5c-0.7,0.2-1,0.7-0.9,1.2c0.1,0.5,0.7,0.7,1.3,0.5c0.7-0.2,1-0.6,0.9-1.1C446.6,135.5,446.1,135.3,445.4,135.5z"/>
			<path d="M445,139.3c-0.1-0.4,0.1-0.8,0.5-0.9c0.9-0.2,1,1,1.5,1.4l0.1,0c0.4-0.1,0.5-0.3,0.4-0.8c-0.1-0.4-0.4-0.6-0.8-0.5l0-0.4
				c0.6,0,0.9,0.3,1.1,0.9c0.2,0.7,0,1.1-0.6,1.2l-1.5,0.4l0.1,0.4l-0.3,0.1l-0.2-0.9l0.3-0.1l0.4-0.1l-0.6-0.2
				C445.2,139.8,445.1,139.6,445,139.3z M446.3,140.1l0.7-0.2c-0.6-0.3-0.7-1.2-1.3-1.1c-0.3,0.1-0.4,0.3-0.4,0.6
				C445.5,139.8,445.7,140,446.3,140.1z"/>
			<path d="M447.1,143.4c-0.6,0-1-0.2-1.2-0.7c-0.2-0.6,0.1-1.2,1.1-1.5c0.9-0.3,1.5,0.2,1.7,0.7c0.1,0.5-0.1,0.9-0.6,1.2l2.1-0.6
				l0.1,0.4l-4,1.1l-0.1-0.4L447.1,143.4z M446.2,142.7c0.1,0.5,0.6,0.7,1.3,0.5c0.7-0.2,1-0.6,0.9-1.1c-0.1-0.4-0.6-0.7-1.3-0.5
				C446.4,141.8,446.1,142.3,446.2,142.7z"/>
		</g>
	</g>
</g>
<rect x="596.3" y="588.7" transform="matrix(0.9654 -0.2607 0.2607 0.9654 -139.2432 177.7213)" class="st0" width="7.9" height="50.2"/>
<g>
	<path d="M595.4,597.9l-0.1,0.5c-0.8-0.1-1.4-0.6-1.6-1.4c-0.3-1.2,0.4-2.2,1.6-2.5c1.2-0.3,2.2,0.2,2.5,1.4c0.2,0.8-0.1,1.5-0.7,2
		l-0.3-0.4c0.6-0.4,0.8-0.9,0.6-1.5c-0.2-0.9-1-1.3-2-1c-1,0.3-1.5,1.1-1.3,1.9C594.2,597.5,594.7,597.9,595.4,597.9z"/>
	<path d="M594.4,599.5l4-1.1l0.1,0.4l-4,1.1L594.4,599.5z"/>
	<path d="M594.9,601.4c-0.1-0.4,0.1-0.8,0.5-0.9c0.9-0.2,0.9,1,1.5,1.5l0.1,0c0.3-0.1,0.5-0.3,0.4-0.8c-0.1-0.4-0.4-0.6-0.8-0.5
		l0-0.4c0.6,0,0.9,0.3,1.1,0.9c0.2,0.7,0,1.1-0.6,1.2l-1.5,0.4l0.1,0.4l-0.3,0.1l-0.2-0.9l0.3-0.1l0.4-0.1l-0.6-0.2
		C595.1,601.9,594.9,601.7,594.9,601.4z M596.1,602.2l0.7-0.2c-0.6-0.3-0.7-1.2-1.3-1.1c-0.3,0.1-0.4,0.3-0.4,0.6
		C595.3,601.8,595.6,602.1,596.1,602.2z"/>
	<path d="M595.6,603.9l2.7-0.7l0.1,0.4l-0.8,0.2l0.7,0.1c0.3,0.1,0.4,0.4,0.4,0.8l-0.4,0.1c-0.1-0.6-0.3-0.9-1.1-0.8l-1.5,0.4
		L595.6,603.9z"/>
	<path d="M596.3,606.9c-0.2-0.8,0.2-1.4,1-1.6c0.8-0.2,1.5,0.1,1.7,0.9c0.2,0.8-0.2,1.4-1,1.6l-0.6-2l-0.1,0c-0.7,0.2-1,0.6-0.8,1.1
		c0.1,0.5,0.6,0.7,1,0.6l0.1,0.4C597.3,608,596.6,607.7,596.3,606.9z M597.7,605.7l0.4,1.6c0.4-0.1,0.8-0.4,0.6-1
		C598.7,605.8,598.3,605.6,597.7,605.7z"/>
	<path d="M596.9,608.8l2.7-0.7l0.1,0.4l-0.8,0.2c0.6-0.1,1,0.2,1.1,0.7c0.1,0.5-0.1,0.9-0.7,1.1l-1.8,0.5l-0.1-0.4l1.6-0.4
		c0.5-0.1,0.7-0.4,0.6-0.8c-0.1-0.5-0.6-0.7-1-0.6l-1.6,0.4L596.9,608.8z"/>
	<path d="M599.1,613.6c-0.6,0-1-0.3-1.2-0.7c-0.2-0.6,0.2-1.2,1.1-1.5c0.9-0.3,1.5,0.2,1.7,0.7c0.1,0.5-0.1,0.9-0.6,1.2l2.1-0.6
		l0.1,0.4l-4,1.1l-0.1-0.4L599.1,613.6z M598.3,612.9c0.1,0.5,0.6,0.7,1.3,0.5c0.7-0.2,1-0.6,0.9-1.1c-0.1-0.4-0.6-0.7-1.3-0.5
		C598.4,612,598.2,612.5,598.3,612.9z"/>
	<path d="M600.6,617.2c-0.8,0.2-1.5-0.2-1.7-0.9c-0.2-0.7,0.2-1.5,1-1.7c0.8-0.2,1.5,0.2,1.7,0.9
		C601.8,616.2,601.4,616.9,600.6,617.2z M600,615c-0.7,0.2-1,0.7-0.9,1.2c0.1,0.5,0.7,0.7,1.3,0.5c0.7-0.2,1-0.6,0.9-1.1
		C601.2,615.1,600.7,614.8,600,615z"/>
	<path d="M599.5,618.2l2.7-0.7l0.1,0.4l-0.8,0.2c0.6-0.1,1,0.2,1.1,0.7c0.1,0.5-0.1,0.9-0.7,1.1l-1.8,0.5l-0.1-0.4l1.6-0.4
		c0.5-0.1,0.7-0.4,0.6-0.8c-0.1-0.5-0.6-0.7-1-0.6l-1.6,0.4L599.5,618.2z"/>
	<path d="M602.6,622.4l-1.9,0.5l-0.1-0.4l4-1.1l0.3,1.3c0.2,0.9,0.1,1.5-0.6,1.7c-0.7,0.2-1.1-0.2-1.4-0.9c0,1.1-1.4,1.5-1.5,1.8
		l-0.1,0l-0.1-0.5c0.8-0.4,1.7-0.9,1.5-1.9L602.6,622.4z M604.3,622l-1.4,0.4l0.3,0.9c0.2,0.6,0.5,0.8,1,0.7
		c0.5-0.1,0.6-0.4,0.4-1.1L604.3,622z"/>
	<path d="M601.5,626l2.7-0.7l0.1,0.4l-2.7,0.7L601.5,626z M604.9,625l0.5-0.1l0.1,0.5l-0.5,0.1L604.9,625z"/>
	<path d="M604.2,628.2c0.3-0.2,0.3-0.5,0.3-0.8c-0.1-0.3-0.3-0.5-0.5-0.4c-0.6,0.2,0.2,1.7-0.8,2c-0.5,0.1-0.9-0.2-1-0.8
		c-0.1-0.5,0-1,0.3-1.3l0.3,0.3c-0.3,0.3-0.4,0.6-0.3,0.9c0.1,0.3,0.3,0.6,0.6,0.5c0.7-0.2-0.2-1.7,0.9-2c0.5-0.1,0.8,0.2,1,0.7
		c0.1,0.4,0,0.9-0.3,1.2L604.2,628.2z"/>
	<path d="M602.8,630.9c-0.2-0.8,0.2-1.4,1-1.6c0.8-0.2,1.5,0.1,1.7,0.9c0.2,0.8-0.2,1.4-1,1.6l-0.6-2l-0.1,0c-0.7,0.2-1,0.6-0.8,1.1
		c0.1,0.5,0.6,0.7,1,0.6l0.1,0.4C603.7,631.9,603,631.7,602.8,630.9z M604.2,629.7l0.4,1.6c0.4-0.1,0.8-0.4,0.6-1
		C605.2,629.8,604.8,629.6,604.2,629.7z"/>
</g>
<rect x="148.6" y="486" transform="matrix(0.964 -0.2658 0.2658 0.964 -124.5089 64.4589)" class="st0" width="54.6" height="12.4"/>
<g>
	<path d="M156.3,495.3l2.6-0.7l0.1,0.4l-2.1,0.6l0.4,1.4l1.8-0.5l0.1,0.4l-1.8,0.5l0.4,1.5l2.1-0.6l0.1,0.4l-2.6,0.7L156.3,495.3z"
		/>
	<path d="M160.6,498.4l-1.1-4l0.4-0.1l1.1,4L160.6,498.4z"/>
	<path d="M161.9,498.1l-1.1-4l0.4-0.1l1.1,4L161.9,498.1z"/>
	<path d="M164.3,497.5c-0.8,0.2-1.4-0.2-1.6-1c-0.2-0.8,0.1-1.5,0.9-1.7c0.8-0.2,1.4,0.2,1.6,1l-2,0.6l0,0.1c0.2,0.7,0.6,1,1.1,0.8
		c0.5-0.1,0.7-0.6,0.6-1l0.4-0.1C165.3,496.5,165.1,497.2,164.3,497.5z M163,496.1l1.6-0.4c-0.1-0.4-0.4-0.8-1-0.6
		C163.1,495.1,162.9,495.5,163,496.1z"/>
	<path d="M166.2,496.9l-0.7-2.6l0.4-0.1l0.2,0.8l0.1-0.7c0.1-0.3,0.4-0.4,0.8-0.4l0.1,0.4c-0.6,0.1-0.9,0.3-0.8,1.1l0.4,1.5
		L166.2,496.9z"/>
	<path d="M169.8,495c0,0.6-0.2,1-0.7,1.2c-0.6,0.2-1.2-0.1-1.5-1.1c-0.3-0.9,0.2-1.5,0.7-1.7c0.5-0.1,0.9,0.1,1.2,0.6l-0.6-2.1
		l0.4-0.1l1.1,4l-0.4,0.1L169.8,495z M169.1,495.8c0.5-0.1,0.7-0.6,0.5-1.3c-0.2-0.7-0.6-1-1.1-0.9c-0.4,0.1-0.7,0.6-0.5,1.3
		C168.2,495.7,168.7,495.9,169.1,495.8z"/>
	<path d="M171.9,495.3c-0.4,0.1-0.8-0.1-0.9-0.5c-0.2-0.9,1-1,1.4-1.5l0-0.1c-0.1-0.4-0.3-0.5-0.8-0.4c-0.4,0.1-0.6,0.4-0.5,0.8
		l-0.4,0c0-0.6,0.3-0.9,0.9-1.1c0.7-0.2,1.1,0,1.2,0.6l0.4,1.5l0.4-0.1l0.1,0.3l-0.9,0.2l-0.1-0.3l-0.1-0.4l-0.2,0.6
		C172.4,495.1,172.2,495.3,171.9,495.3z M172.7,494.1l-0.2-0.7c-0.3,0.6-1.2,0.7-1.1,1.3c0.1,0.3,0.3,0.4,0.6,0.4
		C172.4,494.9,172.6,494.6,172.7,494.1z"/>
	<path d="M174.4,494.6l-1.1-4l0.4-0.1l1.1,4L174.4,494.6z"/>
	<path d="M176.8,494c-0.8,0.2-1.4-0.2-1.6-1c-0.2-0.8,0.1-1.5,0.9-1.7c0.8-0.2,1.4,0.2,1.6,1l-2,0.6l0,0.1c0.2,0.7,0.6,1,1.1,0.8
		c0.5-0.1,0.6-0.6,0.6-1l0.4-0.1C177.8,493.1,177.6,493.8,176.8,494z M175.5,492.6l1.6-0.4c-0.1-0.4-0.4-0.8-1-0.6
		C175.6,491.7,175.4,492,175.5,492.6z"/>
	<path d="M179.5,492.1l0.4-0.2c0.2,0.5,0.7,0.7,1.3,0.5s0.8-0.5,0.7-0.9c-0.3-1.1-2.4,0.1-2.8-1.4c-0.2-0.6,0.2-1.2,1-1.4
		c0.6-0.2,1.3,0,1.6,0.7l-0.3,0.3c-0.2-0.6-0.7-0.7-1.2-0.6c-0.5,0.1-0.8,0.5-0.7,0.9c0.3,1.1,2.4-0.1,2.8,1.4
		c0.2,0.6-0.2,1.2-1.1,1.4C180.6,493,179.8,492.8,179.5,492.1z"/>
	<path d="M182.9,489.8l-0.5,0.1l-0.1-0.3l0.5-0.1l-0.2-0.7l0.4-0.1l0.2,0.7l0.6-0.2l0.1,0.3l-0.6,0.2l0.5,1.7
		c0.1,0.2,0.2,0.3,0.4,0.2l0.3-0.1l0.1,0.3l-0.5,0.1c-0.3,0.1-0.5,0-0.6-0.4L182.9,489.8z"/>
	<path d="M185.2,491.6l-0.7-2.6l0.4-0.1l0.2,0.8l0.1-0.7c0.1-0.3,0.4-0.4,0.8-0.4l0.1,0.4c-0.6,0.1-0.9,0.3-0.8,1.1l0.4,1.5
		L185.2,491.6z"/>
	<path d="M188.3,490.8c-0.8,0.2-1.4-0.2-1.6-1c-0.2-0.8,0.1-1.5,0.9-1.7c0.8-0.2,1.4,0.2,1.6,1l-2,0.6l0,0.1c0.2,0.7,0.6,1,1.1,0.8
		c0.5-0.1,0.7-0.6,0.6-1l0.4-0.1C189.3,489.9,189.1,490.6,188.3,490.8z M187,489.4l1.6-0.4c-0.1-0.4-0.4-0.8-1-0.6
		C187.2,488.5,186.9,488.9,187,489.4z"/>
	<path d="M191.3,490c-0.8,0.2-1.4-0.2-1.6-1c-0.2-0.8,0.1-1.5,0.9-1.7c0.8-0.2,1.4,0.2,1.6,1l-2,0.6l0,0.1c0.2,0.7,0.6,1,1.1,0.8
		c0.5-0.1,0.6-0.6,0.6-1l0.4-0.1C192.3,489.1,192.1,489.8,191.3,490z M190.1,488.6l1.6-0.4c-0.1-0.4-0.4-0.8-1-0.6
		C190.2,487.7,190,488,190.1,488.6z"/>
	<path d="M192.7,487.1l-0.5,0.1l-0.1-0.3l0.5-0.1l-0.2-0.7l0.4-0.1l0.2,0.7l0.6-0.2l0.1,0.3l-0.6,0.2l0.5,1.7
		c0.1,0.2,0.2,0.3,0.4,0.2l0.3-0.1l0.1,0.3l-0.5,0.1c-0.3,0.1-0.5,0-0.6-0.4L192.7,487.1z"/>
</g>
<rect x="14.9" y="418.5" transform="matrix(0.964 -0.2658 0.2658 0.964 -111.0695 27.1768)" class="st0" width="60" height="10.9"/>
<g>
	<path d="M22.6,427.8l1.2-0.3c0.8-0.2,1.4-0.1,1.6,0.6c0.1,0.4,0,0.8-0.4,1.1c0.6,0,0.9,0.3,1.1,0.8c0.2,0.7-0.2,1.3-1.1,1.5
		l-1.3,0.3L22.6,427.8z M23.2,428l0.4,1.3l0.9-0.3c0.4-0.1,0.7-0.5,0.5-0.9c-0.1-0.4-0.5-0.6-1-0.4L23.2,428z M23.6,429.7l0.4,1.6
		l0.9-0.2c0.6-0.2,0.9-0.5,0.7-1c-0.1-0.5-0.5-0.7-1.1-0.5L23.6,429.7z"/>
	<path d="M27.1,430.8l-0.7-2.6l0.4-0.1l0.2,0.8l0.1-0.7c0.1-0.3,0.4-0.4,0.8-0.4l0.1,0.4c-0.6,0.1-0.9,0.3-0.8,1.1l0.4,1.5
		L27.1,430.8z"/>
	<path d="M31.1,428.3c0.2,0.8-0.2,1.5-0.9,1.7c-0.7,0.2-1.5-0.2-1.7-1s0.2-1.5,0.9-1.7C30.2,427.1,30.9,427.5,31.1,428.3z M29,428.9
		c0.2,0.7,0.7,1,1.2,0.9c0.5-0.1,0.7-0.7,0.5-1.3c-0.2-0.7-0.6-1-1.1-0.9C29,427.7,28.8,428.2,29,428.9z"/>
	<path d="M34.3,427.4c0.2,0.8-0.2,1.5-0.9,1.7c-0.7,0.2-1.5-0.2-1.7-1c-0.2-0.8,0.2-1.5,0.9-1.7C33.3,426.2,34,426.6,34.3,427.4z
		 M32.1,428c0.2,0.7,0.7,1,1.2,0.9c0.5-0.1,0.7-0.7,0.5-1.3c-0.2-0.7-0.6-1-1.1-0.9C32.2,426.8,31.9,427.3,32.1,428z"/>
	<path d="M35.8,427.1l-0.3,0.5l0.2,0.8l-0.4,0.1l-1.1-4l0.4-0.1l0.7,2.7l0.8-1.7l0.5-0.1l-0.7,1.4l1.5,1.2l-0.5,0.1L35.8,427.1z"/>
	<path d="M38.3,426.8l0.2,0.8l-0.4,0.1l-1.1-4l0.4-0.1l0.6,2.1c0-0.6,0.2-1,0.7-1.1c0.6-0.2,1.2,0.1,1.5,1.1
		c0.3,0.9-0.1,1.5-0.7,1.7C39.1,427.6,38.6,427.4,38.3,426.8z M38.7,425c-0.5,0.1-0.7,0.6-0.5,1.3c0.2,0.7,0.6,1,1.1,0.9
		c0.4-0.1,0.7-0.6,0.5-1.3C39.6,425.1,39.1,424.9,38.7,425z"/>
	<path d="M42,426.8c-0.4,0.1-0.8-0.1-0.9-0.5c-0.2-0.9,1-1,1.4-1.5l0-0.1c-0.1-0.4-0.3-0.5-0.8-0.4c-0.4,0.1-0.6,0.4-0.5,0.8l-0.4,0
		c0-0.6,0.3-0.9,0.9-1.1c0.7-0.2,1.1,0,1.2,0.6l0.4,1.5l0.4-0.1l0.1,0.3l-0.9,0.2l-0.1-0.3l-0.1-0.4l-0.2,0.6
		C42.4,426.6,42.2,426.7,42,426.8z M42.7,425.5l-0.2-0.7c-0.3,0.6-1.2,0.7-1.1,1.3c0.1,0.3,0.3,0.4,0.6,0.4
		C42.4,426.3,42.6,426,42.7,425.5z"/>
	<path d="M44.4,426l-0.7-2.6l0.4-0.1l0.2,0.8c-0.1-0.6,0.2-1,0.7-1.1c0.5-0.1,0.9,0.1,1.1,0.7l0.5,1.8l-0.4,0.1l-0.4-1.6
		c-0.1-0.5-0.4-0.7-0.8-0.6c-0.5,0.1-0.7,0.6-0.5,1l0.4,1.6L44.4,426z"/>
	<path d="M47.9,423.7l-0.3,0.5l0.2,0.8l-0.4,0.1l-1.1-4l0.4-0.1l0.7,2.7l0.8-1.7l0.5-0.1l-0.7,1.4l1.5,1.2l-0.5,0.1L47.9,423.7z"/>
	<path d="M51.1,423.1l0.4-0.2c0.2,0.5,0.7,0.7,1.3,0.5c0.6-0.2,0.8-0.5,0.7-0.9c-0.3-1.1-2.4,0.1-2.8-1.4c-0.2-0.6,0.2-1.2,1-1.4
		c0.6-0.2,1.3,0,1.6,0.7l-0.3,0.3c-0.2-0.6-0.7-0.7-1.2-0.6c-0.5,0.1-0.8,0.5-0.7,0.9c0.3,1.1,2.4-0.1,2.8,1.4
		c0.2,0.6-0.2,1.2-1.1,1.4C52.2,423.9,51.4,423.8,51.1,423.1z"/>
	<path d="M54.5,420.7l-0.5,0.1l-0.1-0.3l0.5-0.1l-0.2-0.7l0.4-0.1l0.2,0.7l0.6-0.2l0.1,0.3l-0.6,0.2l0.5,1.7
		c0.1,0.2,0.2,0.3,0.4,0.2l0.3-0.1l0.1,0.3l-0.5,0.1c-0.3,0.1-0.5,0-0.6-0.4L54.5,420.7z"/>
	<path d="M56.8,422.6l-0.7-2.6l0.4-0.1l0.2,0.8l0.1-0.7c0.1-0.3,0.4-0.4,0.8-0.4l0.1,0.4c-0.6,0.1-0.9,0.3-0.8,1.1l0.4,1.5
		L56.8,422.6z"/>
	<path d="M59.9,421.8c-0.8,0.2-1.4-0.2-1.6-1c-0.2-0.8,0.1-1.5,0.9-1.7c0.8-0.2,1.4,0.2,1.6,1l-2,0.6l0,0.1c0.2,0.7,0.6,1,1.1,0.8
		c0.5-0.1,0.7-0.6,0.6-1l0.4-0.1C60.9,420.9,60.7,421.6,59.9,421.8z M58.6,420.4l1.6-0.4c-0.1-0.4-0.4-0.8-1-0.6
		C58.8,419.5,58.5,419.8,58.6,420.4z"/>
	<path d="M62.9,421c-0.8,0.2-1.4-0.2-1.6-1c-0.2-0.8,0.1-1.5,0.9-1.7c0.8-0.2,1.4,0.2,1.6,1l-2,0.6l0,0.1c0.2,0.7,0.6,1,1.1,0.8
		c0.5-0.1,0.7-0.6,0.6-1l0.4-0.1C64,420,63.7,420.8,62.9,421z M61.7,419.6l1.6-0.4c-0.1-0.4-0.4-0.8-1-0.6
		C61.8,418.6,61.6,419,61.7,419.6z"/>
	<path d="M64.3,418l-0.5,0.1l-0.1-0.3l0.5-0.1l-0.2-0.7l0.4-0.1l0.2,0.7l0.6-0.2l0.1,0.3l-0.6,0.2l0.5,1.7c0.1,0.2,0.2,0.3,0.4,0.2
		l0.3-0.1l0.1,0.3l-0.5,0.1c-0.3,0.1-0.5,0-0.6-0.4L64.3,418z"/>
</g>
</svg>
